<svg width="24" height="24" viewBox="0 0 24 24" fill="none" xmlns="http://www.w3.org/2000/svg">
<path fill-rule="evenodd" clip-rule="evenodd" d="M3 4C3 3.44772 3.44772 3 4 3H10C10.5523 3 11 3.44772 11 4V10C11 10.5523 10.5523 11 10 11H4C3.44772 11 3 10.5523 3 10V4ZM5 5V9H9V5H5Z" fill="#ffffff"/>
<path fill-rule="evenodd" clip-rule="evenodd" d="M13 4C13 3.44772 13.4477 3 14 3H20C20.5523 3 21 3.44772 21 4V10C21 10.5523 20.5523 11 20 11H14C13.4477 11 13 10.5523 13 10V4ZM15 5V9H19V5H15Z" fill="#ffffff"/>
<path fill-rule="evenodd" clip-rule="evenodd" d="M3 14C3 13.4477 3.44772 13 4 13H10C10.5523 13 11 13.4477 11 14V20C11 20.5523 10.5523 21 10 21H4C3.44772 21 3 20.5523 3 20V14ZM5 15V19H9V15H5Z" fill="#ffffff"/>
<path fill-rule="evenodd" clip-rule="evenodd" d="M14.1716 14.1716C14.9217 13.4214 15.9391 13 17 13C18.0609 13 19.0783 13.4214 19.8284 14.1716C20.5786 14.9217 21 15.9391 21 17C21 18.0609 20.5786 19.0783 19.8284 19.8284C19.0783 20.5786 18.0609 21 17 21C15.9391 21 14.9217 20.5786 14.1716 19.8284C13.4214 19.0783 13 18.0609 13 17C13 15.9391 13.4214 14.9217 14.1716 14.1716ZM17 15C16.4696 15 15.9609 15.2107 15.5858 15.5858C15.2107 15.9609 15 16.4696 15 17C15 17.5304 15.2107 18.0391 15.5858 18.4142C15.9609 18.7893 16.4696 19 17 19C17.5304 19 18.0391 18.7893 18.4142 18.4142C18.7893 18.0391 19 17.5304 19 17C19 16.4696 18.7893 15.9609 18.4142 15.5858C18.0391 15.2107 17.5304 15 17 15Z" fill="#ffffff"/>
</svg>
