<svg width="32" height="32" viewBox="0 0 32 32" fill="none" xmlns="http://www.w3.org/2000/svg">
<path d="M12.8481 22.5396L12.8481 22.5396L12.8499 22.539C13.1088 22.4419 13.2391 22.1532 13.1473 21.8945V21.8739V21.8652L13.1444 21.857C12.9985 21.4485 12.9121 21.0724 12.9118 20.7277C12.9408 20.3831 13.056 20.0363 13.2316 19.6265C13.3204 19.4193 13.409 19.1828 13.4972 18.9478L13.4974 18.9471L13.4975 18.9472L13.498 18.9454C13.5054 18.9235 13.5129 18.9011 13.5206 18.8782C13.6045 18.6289 13.7062 18.3269 13.7067 18.0486C13.7365 17.7162 13.6757 17.4145 13.5559 17.115L13.5546 17.1116C13.497 16.9676 13.4364 16.8162 13.345 16.6935C13.2564 16.546 13.1952 16.4545 13.0468 16.3057C12.9457 16.1739 12.7491 16.1079 12.5814 16.1732C12.3256 16.2389 12.1586 16.4967 12.224 16.7323L12.2524 16.9026C12.2538 16.9435 12.2731 16.9883 12.29 17.0255C12.2942 17.0349 12.2986 17.0442 12.3028 17.0534C12.318 17.0861 12.3326 17.1175 12.3432 17.1494C12.3565 17.1892 12.3633 17.2296 12.3708 17.2743L12.3711 17.2758C12.3781 17.3179 12.3857 17.3639 12.4009 17.4105C12.4277 17.5763 12.4003 17.7435 12.3708 17.9203C12.3425 18.09 12.286 18.2322 12.1987 18.4067L12.1987 18.4067L12.1976 18.4091L11.9032 19.0863L11.9031 19.0863L11.9022 19.0887C11.8822 19.142 11.8605 19.1974 11.8381 19.2545C11.7632 19.445 11.6813 19.6534 11.6352 19.8609L11.6352 19.8609L11.635 19.8619L11.6345 19.8647C11.576 20.1571 11.516 20.4573 11.5458 20.7879C11.5762 21.4199 11.8769 21.9892 12.2349 22.4069L12.2335 22.4082L12.2452 22.416C12.4283 22.5381 12.6509 22.6053 12.8481 22.5396Z" fill="#068C53" stroke="#068C53" stroke-width="0.1"/>
<path d="M15.879 22.5402L15.879 22.5403L15.8828 22.5389C16.1417 22.4418 16.272 22.1532 16.1802 21.8944V21.8738V21.8652L16.1773 21.857C16.0314 21.4484 15.945 21.0724 15.9447 20.7276C15.9737 20.3831 16.0889 20.0362 16.2645 19.6264C16.3533 19.4193 16.4419 19.1828 16.5301 18.9478L16.5303 18.9471L16.5304 18.9471L16.531 18.9454C16.5383 18.9234 16.5458 18.901 16.5535 18.8782C16.6374 18.6288 16.7391 18.3269 16.7396 18.0486C16.7694 17.7161 16.7086 17.4144 16.5888 17.115L16.5875 17.1116C16.5299 16.9676 16.4693 16.8162 16.3779 16.6934C16.2894 16.546 16.2281 16.4544 16.0797 16.3057C15.9741 16.1682 15.7747 16.1408 15.6199 16.1718L15.6199 16.1717L15.6176 16.1723C15.3589 16.237 15.1899 16.4977 15.2577 16.7351L15.256 16.7356L15.2629 16.7471L15.345 16.8838C15.3489 16.9217 15.3663 16.962 15.3817 16.996C15.386 17.0054 15.3904 17.0147 15.3946 17.0239C15.4098 17.0566 15.4244 17.088 15.435 17.1199C15.4483 17.1598 15.4551 17.2001 15.4626 17.2448L15.4629 17.2464C15.4699 17.2884 15.4775 17.3344 15.4926 17.381C15.5195 17.5469 15.4921 17.714 15.4626 17.8908C15.4343 18.0606 15.3778 18.2027 15.2905 18.3772L15.2905 18.3772L15.2897 18.3789L14.9953 19.0266L14.9952 19.0266L14.994 19.0298C14.974 19.0831 14.9522 19.1385 14.9299 19.1955C14.855 19.3861 14.7731 19.5945 14.727 19.802L14.727 19.802L14.7268 19.803L14.7263 19.8058C14.6678 20.0982 14.6078 20.3983 14.6376 20.729C14.668 21.3599 14.9676 21.9282 15.3248 22.3457C15.3886 22.4404 15.4699 22.5061 15.5654 22.5393C15.6616 22.5728 15.768 22.5719 15.879 22.5402Z" fill="#068C53" stroke="#068C53" stroke-width="0.1"/>
<path d="M18.8843 22.5396L18.8843 22.5396L18.886 22.539C19.1449 22.4419 19.2752 22.1532 19.1834 21.8945V21.8739V21.8652L19.1805 21.857C19.0346 21.4485 18.9482 21.0724 18.9479 20.7277C18.9769 20.3831 19.0921 20.0363 19.2677 19.6265C19.3565 19.4193 19.4452 19.1828 19.5333 18.9478L19.5336 18.9471L19.5336 18.9472L19.5342 18.9454C19.5415 18.9235 19.549 18.9011 19.5567 18.8782C19.6406 18.6289 19.7423 18.3269 19.7428 18.0486C19.7727 17.7162 19.7118 17.4145 19.5921 17.115L19.5907 17.1116C19.5331 16.9676 19.4725 16.8162 19.3811 16.6935C19.2926 16.546 19.2313 16.4545 19.0829 16.3057C18.9819 16.1739 18.7852 16.1079 18.6175 16.1732C18.3617 16.2389 18.1948 16.4967 18.2602 16.7323L18.2886 16.9026C18.2899 16.9435 18.3092 16.9883 18.3261 17.0255C18.3304 17.0349 18.3347 17.0442 18.339 17.0534C18.3541 17.0861 18.3687 17.1175 18.3794 17.1494C18.4094 17.2394 18.4357 17.3198 18.4357 17.3986H18.435L18.4364 17.4068C18.4642 17.5738 18.4366 17.7422 18.4069 17.9203C18.3786 18.09 18.3221 18.2322 18.2349 18.4067L18.2348 18.4067L18.2337 18.4091L17.9393 19.0863L17.9393 19.0863L17.9384 19.0887C17.9184 19.142 17.8966 19.1974 17.8742 19.2545C17.7993 19.445 17.7175 19.6534 17.6714 19.8609L17.6714 19.8609L17.6712 19.8619L17.6706 19.8647C17.6121 20.1571 17.5521 20.4573 17.582 20.7879C17.6124 21.4199 17.913 21.9892 18.2711 22.4069L18.2696 22.4082L18.2813 22.416C18.4645 22.5381 18.687 22.6053 18.8843 22.5396Z" fill="#068C53" stroke="#068C53" stroke-width="0.1"/>
<path d="M15.6894 26.8996C19.8391 26.8996 23.2178 23.5206 23.2178 19.3417C23.2178 15.1921 19.839 11.8133 15.6894 11.8133C11.5398 11.8133 8.16094 15.1921 8.16094 19.3417C8.16094 23.5206 11.5397 26.8996 15.6894 26.8996ZM15.6894 13.0027C19.1949 13.0027 22.0284 15.8362 22.0284 19.3417C22.0284 22.8472 19.1949 25.6808 15.6894 25.6808C12.1839 25.6808 9.35032 22.8472 9.35032 19.3417C9.35032 15.8362 12.1839 13.0027 15.6894 13.0027Z" fill="#068C53" stroke="#068C53" stroke-width="0.1"/>
<path d="M26.1792 28.469V28.519H26.2046C26.1792 28.6753 26.0375 28.8017 25.8759 28.8017H5.50158C5.32309 28.8017 5.16882 28.6475 5.16882 28.469V9.88176H26.1792V28.469ZM25.8759 1.95H5.50158C4.64957 1.95 3.95 2.64957 3.95 3.50158V28.4984C3.95 29.3504 4.64957 30.05 5.50158 30.05H25.8465C26.6985 30.05 27.3981 29.3504 27.3981 28.4984V3.50158C27.3981 2.65021 26.6991 1.95 25.8759 1.95ZM5.16882 8.69238V3.50158C5.16882 3.32309 5.32309 3.16882 5.50158 3.16882H25.8465C26.025 3.16882 26.1792 3.32309 26.1792 3.50158V8.69238H5.16882Z" fill="#068C53" stroke="#068C53" stroke-width="0.1"/>
<path d="M8.73996 7.29066C9.49931 7.29066 10.1149 6.67509 10.1149 5.91574C10.1149 5.15639 9.49931 4.54082 8.73996 4.54082C7.98061 4.54082 7.36504 5.15639 7.36504 5.91574C7.36504 6.67509 7.98061 7.29066 8.73996 7.29066Z" fill="#068C53" stroke="#068C53" stroke-width="0.1"/>
<path d="M22.6374 7.29066C23.3968 7.29066 24.0123 6.67509 24.0123 5.91574C24.0123 5.15639 23.3968 4.54082 22.6374 4.54082C21.8781 4.54082 21.2625 5.15639 21.2625 5.91574C21.2625 6.67509 21.8781 7.29066 22.6374 7.29066Z" fill="#068C53" stroke="#068C53" stroke-width="0.1"/>
<path d="M13.098 5.18877H12.3031C12.1282 5.18877 11.9881 5.32893 11.9881 5.50375V6.29871C11.9881 6.47353 12.1282 6.61369 12.3031 6.61369H13.098C13.2729 6.61369 13.413 6.47353 13.413 6.29871V5.50375C13.413 5.32893 13.2729 5.18877 13.098 5.18877Z" fill="#068C53" stroke="#068C53" stroke-width="0.1"/>
<path d="M16.101 5.18877H15.306C15.1312 5.18877 14.991 5.32893 14.991 5.50375V6.29871C14.991 6.47353 15.1312 6.61369 15.306 6.61369H16.101C16.2758 6.61369 16.4159 6.47353 16.4159 6.29871V5.50375C16.4159 5.32893 16.2758 5.18877 16.101 5.18877Z" fill="#068C53" stroke="#068C53" stroke-width="0.1"/>
<path d="M19.1039 5.18877H18.3089C18.1341 5.18877 17.9939 5.32893 17.9939 5.50375V6.29871C17.9939 6.47353 18.1341 6.61369 18.3089 6.61369H19.1039C19.2787 6.61369 19.4189 6.47353 19.4189 6.29871V5.50375C19.4189 5.32893 19.2787 5.18877 19.1039 5.18877Z" fill="#068C53" stroke="#068C53" stroke-width="0.1"/>
</svg>
