<svg width="32" height="32" viewBox="0 0 32 32" fill="none" xmlns="http://www.w3.org/2000/svg">
<mask id="path-1-outside-1_0_182" maskUnits="userSpaceOnUse" x="1" y="1" width="30" height="30" fill="black">
<rect fill="white" x="1" y="1" width="30" height="30"/>
<path d="M29.664 7.236C29.86 7.236 30 7.096 30 6.9V2.336C30 2.14 29.86 2 29.664 2H16H9.168C8.972 2 8.832 2.14 8.832 2.336V6.536H2.336C2.14 6.536 2 6.676 2 6.872V11.436V16C2 16.196 2.14 16.336 2.336 16.336H5.416V20.2H2.336C2.14 20.2 2 20.368 2 20.564V25.128C2 25.324 2.14 25.464 2.336 25.464H8.832V29.664C8.832 29.86 8.972 30 9.168 30H22.832C23.028 30 23.168 29.86 23.168 29.664V25.464H29.664C29.86 25.464 30 25.324 30 25.128V20.564C30 20.368 29.86 20.228 29.664 20.228H26.584V16.336H29.664C29.86 16.336 30 16.196 30 16V11.436C30 11.24 29.86 11.1 29.664 11.1H23.168V7.236H29.664ZM29.328 6.564H22.832H16.336V2.672H29.3V6.564H29.328ZM22.496 15.664H12.584H9.504V11.8H16H22.496V15.664ZM9.504 2.672H15.664V6.536H9.504V2.672ZM2.672 7.236H9.168H15.664V11.1H9.168H2.672V7.236ZM2.672 11.8H8.832V15.664H5.752H2.672V11.8ZM6.088 16.336H9.168H12.248V20.2H6.088V16.336ZM2.672 20.9H5.752H12.584H15.664V24.764H9.168H2.672V20.9ZM22.496 29.328H9.504V25.436H16H22.496V29.328ZM29.328 24.764H22.832H16.336V20.9H26.248H29.328V24.764ZM25.912 20.2H16H12.92V16.336H22.832H25.912V20.2ZM29.328 15.664H26.248H23.168V11.8H29.328V15.664ZM22.496 11.1H16.336V7.236H22.496V11.1Z"/>
</mask>
<path d="M29.664 7.236C29.86 7.236 30 7.096 30 6.9V2.336C30 2.14 29.86 2 29.664 2H16H9.168C8.972 2 8.832 2.14 8.832 2.336V6.536H2.336C2.14 6.536 2 6.676 2 6.872V11.436V16C2 16.196 2.14 16.336 2.336 16.336H5.416V20.2H2.336C2.14 20.2 2 20.368 2 20.564V25.128C2 25.324 2.14 25.464 2.336 25.464H8.832V29.664C8.832 29.86 8.972 30 9.168 30H22.832C23.028 30 23.168 29.86 23.168 29.664V25.464H29.664C29.86 25.464 30 25.324 30 25.128V20.564C30 20.368 29.86 20.228 29.664 20.228H26.584V16.336H29.664C29.86 16.336 30 16.196 30 16V11.436C30 11.24 29.86 11.1 29.664 11.1H23.168V7.236H29.664ZM29.328 6.564H22.832H16.336V2.672H29.3V6.564H29.328ZM22.496 15.664H12.584H9.504V11.8H16H22.496V15.664ZM9.504 2.672H15.664V6.536H9.504V2.672ZM2.672 7.236H9.168H15.664V11.1H9.168H2.672V7.236ZM2.672 11.8H8.832V15.664H5.752H2.672V11.8ZM6.088 16.336H9.168H12.248V20.2H6.088V16.336ZM2.672 20.9H5.752H12.584H15.664V24.764H9.168H2.672V20.9ZM22.496 29.328H9.504V25.436H16H22.496V29.328ZM29.328 24.764H22.832H16.336V20.9H26.248H29.328V24.764ZM25.912 20.2H16H12.92V16.336H22.832H25.912V20.2ZM29.328 15.664H26.248H23.168V11.8H29.328V15.664ZM22.496 11.1H16.336V7.236H22.496V11.1Z" fill="#068C53"/>
<path d="M29.664 7.236C29.86 7.236 30 7.096 30 6.9V2.336C30 2.14 29.86 2 29.664 2H16H9.168C8.972 2 8.832 2.14 8.832 2.336V6.536H2.336C2.14 6.536 2 6.676 2 6.872V11.436V16C2 16.196 2.14 16.336 2.336 16.336H5.416V20.2H2.336C2.14 20.2 2 20.368 2 20.564V25.128C2 25.324 2.14 25.464 2.336 25.464H8.832V29.664C8.832 29.86 8.972 30 9.168 30H22.832C23.028 30 23.168 29.86 23.168 29.664V25.464H29.664C29.86 25.464 30 25.324 30 25.128V20.564C30 20.368 29.86 20.228 29.664 20.228H26.584V16.336H29.664C29.86 16.336 30 16.196 30 16V11.436C30 11.24 29.86 11.1 29.664 11.1H23.168V7.236H29.664ZM29.328 6.564H22.832H16.336V2.672H29.3V6.564H29.328ZM22.496 15.664H12.584H9.504V11.8H16H22.496V15.664ZM9.504 2.672H15.664V6.536H9.504V2.672ZM2.672 7.236H9.168H15.664V11.1H9.168H2.672V7.236ZM2.672 11.8H8.832V15.664H5.752H2.672V11.8ZM6.088 16.336H9.168H12.248V20.2H6.088V16.336ZM2.672 20.9H5.752H12.584H15.664V24.764H9.168H2.672V20.9ZM22.496 29.328H9.504V25.436H16H22.496V29.328ZM29.328 24.764H22.832H16.336V20.9H26.248H29.328V24.764ZM25.912 20.2H16H12.92V16.336H22.832H25.912V20.2ZM29.328 15.664H26.248H23.168V11.8H29.328V15.664ZM22.496 11.1H16.336V7.236H22.496V11.1Z" stroke="#068C53" stroke-width="0.4" mask="url(#path-1-outside-1_0_182)"/>
</svg>
