<svg width="32" height="32" viewBox="0 0 32 32" fill="none" xmlns="http://www.w3.org/2000/svg">
<path d="M3 1.85H2.85V2V10.2023V10.8852V18.4046V19.0875V27.2898V27.4398H3H5.66946V30V30.15H5.81946H8.69937H8.84937V30V27.4395H22.661V30V30.15H22.811H25.6909H25.8409V30V27.4395H28.5107H28.6607V27.2895V19.0872V18.4042V10.8852V10.2023V2V1.85H28.5107H3ZM7.8661 29.1671H6.65205V27.4395H7.8661V29.1671ZM24.8577 29.1671H23.6436V27.4395H24.8577V29.1671ZM27.6771 26.4569H25.6902H22.8103H8.69902H5.81912H3.83259V19.2372H27.6771V26.4569ZM27.6775 18.2542H3.83293V11.0352H27.6775V18.2542ZM27.6775 10.0523H3.83293V2.83293H27.6775V10.0523Z" fill="#068C53" stroke="#068C53" stroke-width="0.3"/>
<path d="M15.7549 7.66665C16.4302 7.66665 16.9792 7.11732 16.9792 6.44241C16.9792 5.7675 16.4302 5.21816 15.7549 5.21816C15.08 5.21816 14.5307 5.7671 14.5307 6.44241C14.5307 7.11772 15.08 7.66665 15.7549 7.66665ZM15.7549 6.20109C15.8879 6.20109 15.9962 6.30945 15.9962 6.44241C15.9962 6.57529 15.8876 6.68373 15.7549 6.68373C15.6223 6.68373 15.5136 6.57503 15.5136 6.44241C15.5136 6.3097 15.622 6.20109 15.7549 6.20109Z" fill="#068C53" stroke="#068C53" stroke-width="0.3"/>
<path d="M14.5307 14.6446L14.5307 14.6446C14.5311 15.3198 15.0799 15.8688 15.7549 15.8688C16.4302 15.8688 16.9792 15.3198 16.9792 14.6446C16.9792 13.9693 16.4302 13.4203 15.7549 13.4203C15.08 13.4203 14.5307 13.9692 14.5307 14.6446ZM15.7549 14.4032C15.8879 14.4032 15.9962 14.5116 15.9962 14.6446C15.9962 14.7774 15.8876 14.8859 15.7549 14.8859C15.6222 14.8859 15.5136 14.7774 15.5136 14.6446H15.3636L15.5136 14.6448C15.5138 14.5112 15.6221 14.4032 15.7549 14.4032Z" fill="#068C53" stroke="#068C53" stroke-width="0.3"/>
<path d="M14.5307 22.8469L14.5307 22.8469C14.5311 23.5225 15.08 24.0711 15.7549 24.0711C16.4302 24.0711 16.9792 23.5225 16.9792 22.8469C16.9792 22.1719 16.4302 21.6229 15.7549 21.6229C15.0801 21.6229 14.5307 22.1715 14.5307 22.8469ZM15.7549 22.6059C15.888 22.6059 15.9962 22.7143 15.9962 22.8469C15.9962 22.98 15.8877 23.0882 15.7549 23.0882C15.6222 23.0882 15.5136 22.9797 15.5136 22.8469H15.3636L15.5136 22.8471C15.5138 22.7142 15.6221 22.6059 15.7549 22.6059Z" fill="#068C53" stroke="#068C53" stroke-width="0.3"/>
</svg>
