<svg width="26" height="26" viewBox="0 0 26 26" fill="none" xmlns="http://www.w3.org/2000/svg">
<path fill-rule="evenodd" clip-rule="evenodd" d="M8.88615 3.0683C10.1904 2.52806 11.5883 2.25 13 2.25C14.4117 2.25 15.8096 2.52806 17.1138 3.0683C18.4181 3.60853 19.6032 4.40037 20.6014 5.3986C21.5996 6.39683 22.3915 7.5819 22.9317 8.88615C23.4719 10.1904 23.75 11.5883 23.75 13C23.75 14.4117 23.4719 15.8096 22.9317 17.1138C22.3915 18.4181 21.5996 19.6032 20.6014 20.6014C19.6032 21.5996 18.4181 22.3915 17.1138 22.9317C15.8096 23.4719 14.4117 23.75 13 23.75C11.5883 23.75 10.1904 23.4719 8.88615 22.9317C7.5819 22.3915 6.39683 21.5996 5.3986 20.6014C4.40037 19.6032 3.60853 18.4181 3.06829 17.1138C2.52806 15.8096 2.25 14.4117 2.25 13C2.25 11.5883 2.52806 10.1904 3.06829 8.88615C3.60853 7.5819 4.40037 6.39683 5.3986 5.3986C6.39683 4.40037 7.5819 3.60853 8.88615 3.0683ZM13 4.25C11.8509 4.25 10.7131 4.47633 9.65152 4.91605C8.58992 5.35578 7.62533 6.0003 6.81282 6.81282C6.0003 7.62533 5.35578 8.58992 4.91605 9.65152C4.47633 10.7131 4.25 11.8509 4.25 13C4.25 14.1491 4.47633 15.2869 4.91605 16.3485C5.35578 17.4101 6.0003 18.3747 6.81282 19.1872C7.62533 19.9997 8.58992 20.6442 9.65152 21.0839C10.7131 21.5237 11.8509 21.75 13 21.75C14.1491 21.75 15.2869 21.5237 16.3485 21.0839C17.4101 20.6442 18.3747 19.9997 19.1872 19.1872C19.9997 18.3747 20.6442 17.4101 21.0839 16.3485C21.5237 15.2869 21.75 14.1491 21.75 13C21.75 11.8509 21.5237 10.7131 21.0839 9.65152C20.6442 8.58992 19.9997 7.62533 19.1872 6.81282C18.3747 6.0003 17.4101 5.35578 16.3485 4.91605C15.2869 4.47633 14.1491 4.25 13 4.25Z" fill="black"/>
<path fill-rule="evenodd" clip-rule="evenodd" d="M12 13C12 12.4477 12.4477 12 13 12H16.7917C17.344 12 17.7917 12.4477 17.7917 13C17.7917 13.5523 17.344 14 16.7917 14H13C12.4477 14 12 13.5523 12 13Z" fill="black"/>
<path fill-rule="evenodd" clip-rule="evenodd" d="M13 6.5835C13.5523 6.5835 14 7.03121 14 7.5835V13.0002C14 13.5524 13.5523 14.0002 13 14.0002C12.4477 14.0002 12 13.5524 12 13.0002V7.5835C12 7.03121 12.4477 6.5835 13 6.5835Z" fill="black"/>
</svg>
