<svg width="26" height="26" viewBox="0 0 26 26" fill="none" xmlns="http://www.w3.org/2000/svg">
<path fill-rule="evenodd" clip-rule="evenodd" d="M5.41667 4.25C5.10725 4.25 4.8105 4.37292 4.59171 4.59171C4.37292 4.8105 4.25 5.10725 4.25 5.41667V20.5833C4.25 20.8928 4.37292 21.1895 4.59171 21.4083C4.8105 21.6271 5.10725 21.75 5.41667 21.75H20.5833C20.8928 21.75 21.1895 21.6271 21.4083 21.4083C21.6271 21.1895 21.75 20.8928 21.75 20.5833V5.41667C21.75 5.10725 21.6271 4.8105 21.4083 4.59171C21.1895 4.37292 20.8928 4.25 20.5833 4.25H5.41667ZM3.1775 3.1775C3.77136 2.58363 4.57681 2.25 5.41667 2.25H20.5833C21.4232 2.25 22.2286 2.58363 22.8225 3.1775C23.4164 3.77136 23.75 4.57681 23.75 5.41667V20.5833C23.75 21.4232 23.4164 22.2286 22.8225 22.8225C22.2286 23.4164 21.4232 23.75 20.5833 23.75H5.41667C4.57681 23.75 3.77136 23.4164 3.1775 22.8225C2.58363 22.2286 2.25 21.4232 2.25 20.5833V5.41667C2.25 4.57681 2.58363 3.77136 3.1775 3.1775Z" fill="black"/>
<path fill-rule="evenodd" clip-rule="evenodd" d="M8.66699 15.25C9.21928 15.25 9.66699 15.6977 9.66699 16.25V18.4167C9.66699 18.969 9.21928 19.4167 8.66699 19.4167C8.11471 19.4167 7.66699 18.969 7.66699 18.4167V16.25C7.66699 15.6977 8.11471 15.25 8.66699 15.25Z" fill="black"/>
<path fill-rule="evenodd" clip-rule="evenodd" d="M13 8.75C13.5523 8.75 14 9.19772 14 9.75V18.4167C14 18.969 13.5523 19.4167 13 19.4167C12.4477 19.4167 12 18.969 12 18.4167V9.75C12 9.19772 12.4477 8.75 13 8.75Z" fill="black"/>
<path fill-rule="evenodd" clip-rule="evenodd" d="M17.333 10.9165C17.8853 10.9165 18.333 11.3642 18.333 11.9165V18.4165C18.333 18.9688 17.8853 19.4165 17.333 19.4165C16.7807 19.4165 16.333 18.9688 16.333 18.4165V11.9165C16.333 11.3642 16.7807 10.9165 17.333 10.9165Z" fill="black"/>
</svg>
