<svg width="32" height="32" viewBox="0 0 32 32" fill="none" xmlns="http://www.w3.org/2000/svg">
<path d="M25.8037 14.2889V14.2761L25.8005 14.2637L22.8968 3.11554L22.8969 3.11551L22.8956 3.11133C22.6758 2.39709 22.0161 1.9 21.2963 1.9H10.4074C9.63966 1.9 8.97407 2.39415 8.80659 3.11687L5.90323 14.2637L5.9 14.2761V14.2889V14.2892V14.2895V14.2898V14.2901V14.2904V14.2907V14.291V14.2913V14.2916V14.2919V14.2922V14.2925V14.2928V14.2931V14.2934V14.2937V14.2941V14.2944V14.2947V14.295V14.2953V14.2956V14.2959V14.2962V14.2965V14.2968V14.2971V14.2974V14.2977V14.298V14.2983V14.2986V14.2989V14.2992V14.2995V14.2998V14.3001V14.3004V14.3007V14.301V14.3013V14.3016V14.302V14.3023V14.3026V14.3029V14.3032V14.3035V14.3038V14.3041V14.3044V14.3047V14.305V14.3053V14.3056V14.3059V14.3062V14.3065V14.3068V14.3071V14.3074V14.3077V14.308V14.3083V14.3086V14.3089V14.3092V14.3095V14.3099V14.3102V14.3105V14.3108V14.3111V14.3114V14.3117V14.312V14.3123V14.3126V14.3129V14.3132V14.3135V14.3138V14.3141V14.3144V14.3147V14.315V14.3153V14.3156V14.3159V14.3162V14.3165V14.3168V14.3171V14.3174V14.3178V14.3181V14.3184V14.3187V14.319V14.3193V14.3196V14.3199V14.3202V14.3205V14.3208V14.3211V14.3214V14.3217V14.322V14.3223V14.3226V14.3229V14.3232V14.3235V14.3238V14.3241V14.3244V14.3247V14.325V14.3253V14.3257V14.326V14.3263V14.3266V14.3269V14.3272V14.3275V14.3278V14.3281V14.3284V14.3287V14.329V14.3293V14.3296V14.3299V14.3302V14.3305V14.3308V14.3311V14.3314V14.3317V14.332V14.3323V14.3326V14.3329V14.3332V14.3336V14.3339V14.3342V14.3345V14.3348V14.3351V14.3354V14.3357V14.336V14.3363V14.3366V14.3369V14.3372V14.3375V14.3378V14.3381V14.3384V14.3387V14.339V14.3393V14.3396V14.3399V14.3402V14.3405V14.3408V14.3411V14.3414V14.3418V14.3421V14.3424V14.3427V14.343V14.3433V14.3436V14.3439V14.3442V14.3445V14.3448V14.3451V14.3454V14.3457V14.346V14.3463V14.3466V14.3469V14.3472V14.3475V14.3478V14.3481V14.3484V14.3487V14.349V14.3493V14.3497V14.35V14.3503V14.3506V14.3509V14.3512V14.3515V14.3518V14.3521V14.3524V14.3527V14.353V14.3533V14.3536V14.3539V14.3542V14.3545V14.3548V14.3551V14.3554V14.3557V14.356V14.3563V14.3566V14.3569V14.3572V14.3576V14.3579V14.3582V14.3585V14.3588V14.3591V14.3594V14.3597V14.36V14.3603V14.3606V14.3609V14.3612V14.3615V14.3618V14.3621V14.3624V14.3627V14.363V14.3633V14.3636V14.3639V14.3642V14.3645V14.3648V14.3651V14.3655V14.3658V14.3661V14.3664V14.3667V14.367V14.3673V14.3676V14.3679V14.3682V14.3685V14.3688V14.3691V14.3694V14.3697V14.37V14.3703V14.3706V14.3709V14.3712V14.3715V14.3718V14.3721V14.3724V14.3727V14.373V14.3734V14.3737V14.374V14.3743V14.3746V14.3749V14.3752V14.3755V14.3758V14.3761V14.3764V14.3767V14.377V14.3773V14.3776V14.3779V14.3782V14.3785V14.3788V14.3791V14.3794V14.3797V14.38V14.3803V14.3806V14.3809V14.3813V14.3816V14.3819V14.3822V14.3825V14.3828V14.3831V14.3834V14.3837V14.384V14.3843V14.3846V14.3849V14.3852V14.3855V14.3858V14.3861V14.3864V14.3867V14.387V14.3873V14.3876V14.3879V14.3882V14.3885V14.3888V14.3891V14.3895V14.3898V14.3901V14.3904V14.3907V14.391V14.3913V14.3916V14.3919V14.3922V14.3925V14.3928V14.3931V14.3934V14.3937V14.394V14.3943V14.3946V14.3949V14.3952V14.3955V14.3958V14.3961V14.3964V14.3967V14.397V14.3974V14.3977V14.398V14.3983V14.3986V14.3989V14.3992V14.3995V14.3998V14.4001V14.4004V14.4007V14.401V14.4013V14.4016V14.4019V14.4022V14.4025V14.4028V14.4031V14.4034V14.4037V14.404V14.4043V14.4046V14.4049V14.4053V14.4056V14.4059V14.4062V14.4065V14.4068V14.4071V14.4074V14.4077V14.408V14.4083V14.4086V14.4089V14.4092V14.4095V14.4098V14.4101V14.4104V14.4107V14.411V14.4113V14.4116V14.4119V14.4122V14.4125V14.4128V14.4132V14.4135V14.4138V14.4141V14.4144V14.4147V14.415V14.4153V14.4156V14.4159V14.4162V14.4165V14.4168V14.4171V14.4174V14.4177V14.418V14.4183V14.4186V14.4189V14.4192V14.4195V14.4198V14.4201V14.4204V14.4207V14.4211V14.4214V14.4217V14.422V14.4223V14.4226V14.4229V14.4232V14.4235V14.4238V14.4241V14.4244V14.4247V14.425V14.4253V14.4256V14.4259V14.4262V14.4265V14.4268V14.4271V14.4274V14.4277V14.428V14.4283V14.4286V14.4289V14.4293V14.4296V14.4299V14.4302V14.4305V14.4308V14.4311V14.4314V14.4317V14.432V14.4323V14.4326V14.4329V14.4332V14.4335V14.4338V14.4341V14.4344V14.4347V14.435V14.4353V14.4356V14.4359V14.4362V14.4365V14.4368V14.4372V14.4375V14.4378V14.4381V14.4384V14.4387V14.439V14.4393V14.4396V14.4399V14.4402V14.4405V14.4408V14.4411V14.4414V14.4417V14.442V14.4423V14.4426V14.4429V14.4432V14.4435V14.4438V14.4441V14.4444C5.9 15.6404 6.8781 16.6185 8.07407 16.6185H13.6778V25.7519H9.73333C8.79866 25.7519 7.97407 26.5205 7.97407 27.5111V29.4815C7.97407 29.6598 8.03394 29.8161 8.14596 29.9281C8.25797 30.0401 8.41431 30.1 8.59259 30.1H23.1111C23.2894 30.1 23.4457 30.0401 23.5577 29.9281C23.6698 29.8161 23.7296 29.6598 23.7296 29.4815V27.5111C23.7296 26.5764 22.9609 25.7519 21.9704 25.7519H18.0259V16.6185H21.9741V19.7259C21.6572 19.9131 21.4556 20.2913 21.4556 20.6667C21.4556 21.2923 21.967 21.8037 22.5926 21.8037C23.2182 21.8037 23.7296 21.2923 23.7296 20.6667C23.7296 20.2913 23.528 19.9131 23.2111 19.7259V16.6185H23.6296C24.8256 16.6185 25.8037 15.6404 25.8037 14.4444V14.4441V14.4438V14.4435V14.4432V14.4429V14.4426V14.4423V14.442V14.4417V14.4414V14.4411V14.4408V14.4405V14.4402V14.4399V14.4396V14.4393V14.439V14.4387V14.4384V14.4381V14.4378V14.4375V14.4372V14.4368V14.4365V14.4362V14.4359V14.4356V14.4353V14.435V14.4347V14.4344V14.4341V14.4338V14.4335V14.4332V14.4329V14.4326V14.4323V14.432V14.4317V14.4314V14.4311V14.4308V14.4305V14.4302V14.4299V14.4296V14.4293V14.4289V14.4286V14.4283V14.428V14.4277V14.4274V14.4271V14.4268V14.4265V14.4262V14.4259V14.4256V14.4253V14.425V14.4247V14.4244V14.4241V14.4238V14.4235V14.4232V14.4229V14.4226V14.4223V14.422V14.4217V14.4214V14.4211V14.4207V14.4204V14.4201V14.4198V14.4195V14.4192V14.4189V14.4186V14.4183V14.418V14.4177V14.4174V14.4171V14.4168V14.4165V14.4162V14.4159V14.4156V14.4153V14.415V14.4147V14.4144V14.4141V14.4138V14.4135V14.4132V14.4128V14.4125V14.4122V14.4119V14.4116V14.4113V14.411V14.4107V14.4104V14.4101V14.4098V14.4095V14.4092V14.4089V14.4086V14.4083V14.408V14.4077V14.4074V14.4071V14.4068V14.4065V14.4062V14.4059V14.4056V14.4053V14.4049V14.4046V14.4043V14.404V14.4037V14.4034V14.4031V14.4028V14.4025V14.4022V14.4019V14.4016V14.4013V14.401V14.4007V14.4004V14.4001V14.3998V14.3995V14.3992V14.3989V14.3986V14.3983V14.398V14.3977V14.3974V14.397V14.3967V14.3964V14.3961V14.3958V14.3955V14.3952V14.3949V14.3946V14.3943V14.394V14.3937V14.3934V14.3931V14.3928V14.3925V14.3922V14.3919V14.3916V14.3913V14.391V14.3907V14.3904V14.3901V14.3898V14.3895V14.3891V14.3888V14.3885V14.3882V14.3879V14.3876V14.3873V14.387V14.3867V14.3864V14.3861V14.3858V14.3855V14.3852V14.3849V14.3846V14.3843V14.384V14.3837V14.3834V14.3831V14.3828V14.3825V14.3822V14.3819V14.3816V14.3813V14.3809V14.3806V14.3803V14.38V14.3797V14.3794V14.3791V14.3788V14.3785V14.3782V14.3779V14.3776V14.3773V14.377V14.3767V14.3764V14.3761V14.3758V14.3755V14.3752V14.3749V14.3746V14.3743V14.374V14.3737V14.3734V14.373V14.3727V14.3724V14.3721V14.3718V14.3715V14.3712V14.3709V14.3706V14.3703V14.37V14.3697V14.3694V14.3691V14.3688V14.3685V14.3682V14.3679V14.3676V14.3673V14.367V14.3667V14.3664V14.3661V14.3658V14.3655V14.3651V14.3648V14.3645V14.3642V14.3639V14.3636V14.3633V14.363V14.3627V14.3624V14.3621V14.3618V14.3615V14.3612V14.3609V14.3606V14.3603V14.36V14.3597V14.3594V14.3591V14.3588V14.3585V14.3582V14.3579V14.3576V14.3572V14.3569V14.3566V14.3563V14.356V14.3557V14.3554V14.3551V14.3548V14.3545V14.3542V14.3539V14.3536V14.3533V14.353V14.3527V14.3524V14.3521V14.3518V14.3515V14.3512V14.3509V14.3506V14.3503V14.35V14.3497V14.3493V14.349V14.3487V14.3484V14.3481V14.3478V14.3475V14.3472V14.3469V14.3466V14.3463V14.346V14.3457V14.3454V14.3451V14.3448V14.3445V14.3442V14.3439V14.3436V14.3433V14.343V14.3427V14.3424V14.3421V14.3418V14.3414V14.3411V14.3408V14.3405V14.3402V14.3399V14.3396V14.3393V14.339V14.3387V14.3384V14.3381V14.3378V14.3375V14.3372V14.3369V14.3366V14.3363V14.336V14.3357V14.3354V14.3351V14.3348V14.3345V14.3342V14.3339V14.3336V14.3332V14.3329V14.3326V14.3323V14.332V14.3317V14.3314V14.3311V14.3308V14.3305V14.3302V14.3299V14.3296V14.3293V14.329V14.3287V14.3284V14.3281V14.3278V14.3275V14.3272V14.3269V14.3266V14.3263V14.326V14.3257V14.3253V14.325V14.3247V14.3244V14.3241V14.3238V14.3235V14.3232V14.3229V14.3226V14.3223V14.322V14.3217V14.3214V14.3211V14.3208V14.3205V14.3202V14.3199V14.3196V14.3193V14.319V14.3187V14.3184V14.3181V14.3178V14.3174V14.3171V14.3168V14.3165V14.3162V14.3159V14.3156V14.3153V14.315V14.3147V14.3144V14.3141V14.3138V14.3135V14.3132V14.3129V14.3126V14.3123V14.312V14.3117V14.3114V14.3111V14.3108V14.3105V14.3102V14.3099V14.3095V14.3092V14.3089V14.3086V14.3083V14.308V14.3077V14.3074V14.3071V14.3068V14.3065V14.3062V14.3059V14.3056V14.3053V14.305V14.3047V14.3044V14.3041V14.3038V14.3035V14.3032V14.3029V14.3026V14.3023V14.302V14.3016V14.3013V14.301V14.3007V14.3004V14.3001V14.2998V14.2995V14.2992V14.2989V14.2986V14.2983V14.298V14.2977V14.2974V14.2971V14.2968V14.2965V14.2962V14.2959V14.2956V14.2953V14.295V14.2947V14.2944V14.2941V14.2937V14.2934V14.2931V14.2928V14.2925V14.2922V14.2919V14.2916V14.2913V14.291V14.2907V14.2904V14.2901V14.2898V14.2895V14.2892V14.2889ZM10.0375 3.42532L10.0375 3.42532L10.0378 3.42425C10.0768 3.26817 10.2385 3.13704 10.4593 3.13704H21.2963C21.5171 3.13704 21.6788 3.26817 21.7178 3.42425L21.718 3.42489L24.5654 14.5041C24.5113 15.019 24.1379 15.3815 23.6296 15.3815H17.4074H14.2963H8.07407C7.56586 15.3815 7.19247 15.0191 7.1383 14.5043L10.0375 3.42532ZM22.4926 27.5111V28.863H9.21111V27.5111C9.21111 27.2498 9.43091 26.9889 9.73333 26.9889H14.2963H17.4074H21.9704C22.2781 26.9889 22.4926 27.2034 22.4926 27.5111ZM16.7889 25.7519H14.9148V16.6185H16.7889V25.7519Z" fill="#068C53" stroke="#068C53" stroke-width="0.2"/>
</svg>
