<svg width="32" height="32" viewBox="0 0 32 32" fill="none" xmlns="http://www.w3.org/2000/svg">
<path d="M26.4475 20.1343L25.3392 20.7781C25.1524 20.8867 25.0883 21.1261 25.1973 21.3133M26.4475 20.1343L25.7327 21.4551L25.6823 21.3688L25.7325 21.4552L25.7326 21.4552C25.5475 21.5632 25.3068 21.5021 25.1973 21.3133M26.4475 20.1343C26.6337 20.0247 26.8742 20.0884 26.983 20.2761C27.092 20.4633 27.0279 20.7027 26.841 20.8112M26.4475 20.1343L26.841 20.8112M25.1973 21.3133C25.1973 21.3133 25.1973 21.3133 25.1972 21.3132L25.2838 21.2631L25.1974 21.3134C25.1974 21.3134 25.1973 21.3134 25.1973 21.3133ZM26.841 20.8112L26.841 20.8112L26.7908 20.7248L26.841 20.8112Z" fill="#068C53" stroke="#068C53" stroke-width="0.2"/>
<mask id="path-2-outside-1_0_176" maskUnits="userSpaceOnUse" x="1" y="4" width="30" height="24" fill="black">
<rect fill="white" x="1" y="4" width="30" height="24"/>
<path d="M29.8542 13.8175C29.8536 13.8172 29.8529 13.8173 29.8523 13.817L22.884 9.7958C22.8839 9.76926 22.8842 9.86216 22.8835 9.67151C22.8833 9.61334 22.8285 9.47197 22.7374 9.41943C22.7372 9.41933 22.7376 9.41954 22.7374 9.41943L15.1014 5.03874C15.0116 4.9869 14.9017 4.98747 14.812 5.03817C14.753 5.07176 2.0913 12.2842 2.15096 12.2495C2.04343 12.3121 2.00598 12.4428 2.00598 12.5013C2.00575 12.4359 2.00006 18.6414 2 18.7015C1.99972 18.806 2.05526 18.9026 2.14583 18.955C4.0355 20.0457 13.7645 25.6615 15.8915 26.8892C15.981 26.9408 16.0924 26.9419 16.184 26.8887L24.5233 22.0426C24.6623 21.9617 24.7098 21.7831 24.6287 21.6441C24.5475 21.5042 24.3683 21.4572 24.2299 21.5384L16.3304 26.129C16.3306 26.0691 16.3446 21.9144 16.3437 22.178L29.4152 14.5785L29.4041 18.5315L27.6276 19.5637C27.4886 19.6446 27.4411 19.8232 27.5223 19.9622C27.6029 20.1017 27.7817 20.1484 27.9207 20.0678L29.8416 18.9516C29.9314 18.8997 29.9866 18.804 29.9869 18.7004L30 14.071C30 14.0709 30 14.0711 30 14.071C30 14.0709 30 14.0703 30 14.0701C29.9999 14.0088 29.9482 13.8719 29.8542 13.8175ZM4.82883 11.3965C4.88947 11.4312 11.9431 15.4702 11.882 15.4352L9.93984 16.5406L2.88611 12.5023L4.82883 11.3965ZM10.481 8.17408L12.4237 7.06844C12.4829 7.10242 15.7504 8.97687 15.5499 8.86184L13.6093 9.96634C13.5501 9.93239 10.4217 8.14013 10.481 8.17408ZM17.2421 13.9599L15.2925 15.0693C15.2923 15.0106 15.2889 14.1055 15.2891 14.1643L17.2387 13.0546L17.2421 13.9599ZM10.7909 13.1551L9.93104 13.6454L9.13544 13.19L10.787 12.2461C10.7873 12.3048 10.7912 13.2138 10.7909 13.1551ZM10.231 17.0463L12.1793 15.9373V16.8413L10.231 17.9498V17.0463ZM11.3738 13.0143C11.3735 12.9555 11.3703 12.1919 11.3705 12.2506L14.7057 14.1642L14.7089 15.0491L11.3738 13.0143ZM15.8485 9.36446V10.2671L14.9879 10.7583L14.1974 10.3042L15.8485 9.36446ZM16.4318 9.36784L19.7692 11.2826L19.7723 12.1678L16.4318 10.1326V9.36784ZM20.3559 12.1877L20.3526 11.2828L22.301 10.1762L22.305 11.0783L20.3559 12.1877ZM9.64771 17.0458V17.9481L2.59444 13.9018L2.59102 13.0058L9.64771 17.0458ZM29.1259 14.0713L16.0489 21.6707L10.5018 18.4668L12.6151 17.2642C12.7062 17.2124 12.7626 17.1156 12.7626 17.0107V15.4356C12.7626 15.3194 12.6781 15.2186 12.6176 15.1836C12.6173 15.1833 12.6168 15.1834 12.6165 15.1832C12.6161 15.183 12.616 15.1826 12.6156 15.1824L10.5186 13.9819L11.2013 13.5923C12.7334 14.5266 14.9302 15.8648 14.8564 15.8221C14.9482 15.8752 15.0582 15.8733 15.1458 15.8239C15.146 15.8237 15.146 15.8235 15.1463 15.8234C15.7374 15.4871 17.8103 14.3077 17.6785 14.3826C17.7702 14.3305 17.8263 14.2334 17.826 14.128L17.8201 12.5529C17.8198 12.4643 17.7696 12.3565 17.6745 12.3016C17.6154 12.2675 15.5085 11.0574 15.5744 11.0952L16.2539 10.7074C16.3413 10.7607 19.9783 12.9743 19.9198 12.9405C20.0056 12.99 20.116 12.9948 20.2092 12.9422C20.2094 12.9421 20.2095 12.9419 20.2097 12.9418C20.8008 12.6054 22.8734 11.426 22.7417 11.501C22.8334 11.4489 22.8898 11.3514 22.8892 11.2461L22.8864 10.4708L29.1259 14.0713ZM14.9555 5.62748L22.0042 9.6713L20.061 10.7774C12.3163 6.32835 17.3208 9.20489 13.0126 6.73323L14.9555 5.62748ZM9.89198 8.50915C14.9914 11.4309 11.5025 9.42951 16.9403 12.553C16.8223 12.6202 14.8885 13.7208 14.9974 13.6589C14.9368 13.6241 7.88789 9.57983 7.94898 9.61483L9.89198 8.50915ZM7.36052 9.95007C7.41975 9.98406 10.6878 11.8589 10.4872 11.7439L8.54676 12.8529C8.4875 12.819 5.21623 10.9458 5.41683 11.0606L7.36052 9.95007ZM2.58362 18.5343L2.59387 14.5784C9.47203 18.5474 -7.34268 8.83654 15.7585 22.1768C15.7583 22.2367 15.7445 26.3952 15.7454 26.1316L2.58362 18.5343Z"/>
</mask>
<path d="M29.8542 13.8175C29.8536 13.8172 29.8529 13.8173 29.8523 13.817L22.884 9.7958C22.8839 9.76926 22.8842 9.86216 22.8835 9.67151C22.8833 9.61334 22.8285 9.47197 22.7374 9.41943C22.7372 9.41933 22.7376 9.41954 22.7374 9.41943L15.1014 5.03874C15.0116 4.9869 14.9017 4.98747 14.812 5.03817C14.753 5.07176 2.0913 12.2842 2.15096 12.2495C2.04343 12.3121 2.00598 12.4428 2.00598 12.5013C2.00575 12.4359 2.00006 18.6414 2 18.7015C1.99972 18.806 2.05526 18.9026 2.14583 18.955C4.0355 20.0457 13.7645 25.6615 15.8915 26.8892C15.981 26.9408 16.0924 26.9419 16.184 26.8887L24.5233 22.0426C24.6623 21.9617 24.7098 21.7831 24.6287 21.6441C24.5475 21.5042 24.3683 21.4572 24.2299 21.5384L16.3304 26.129C16.3306 26.0691 16.3446 21.9144 16.3437 22.178L29.4152 14.5785L29.4041 18.5315L27.6276 19.5637C27.4886 19.6446 27.4411 19.8232 27.5223 19.9622C27.6029 20.1017 27.7817 20.1484 27.9207 20.0678L29.8416 18.9516C29.9314 18.8997 29.9866 18.804 29.9869 18.7004L30 14.071C30 14.0709 30 14.0711 30 14.071C30 14.0709 30 14.0703 30 14.0701C29.9999 14.0088 29.9482 13.8719 29.8542 13.8175ZM4.82883 11.3965C4.88947 11.4312 11.9431 15.4702 11.882 15.4352L9.93984 16.5406L2.88611 12.5023L4.82883 11.3965ZM10.481 8.17408L12.4237 7.06844C12.4829 7.10242 15.7504 8.97687 15.5499 8.86184L13.6093 9.96634C13.5501 9.93239 10.4217 8.14013 10.481 8.17408ZM17.2421 13.9599L15.2925 15.0693C15.2923 15.0106 15.2889 14.1055 15.2891 14.1643L17.2387 13.0546L17.2421 13.9599ZM10.7909 13.1551L9.93104 13.6454L9.13544 13.19L10.787 12.2461C10.7873 12.3048 10.7912 13.2138 10.7909 13.1551ZM10.231 17.0463L12.1793 15.9373V16.8413L10.231 17.9498V17.0463ZM11.3738 13.0143C11.3735 12.9555 11.3703 12.1919 11.3705 12.2506L14.7057 14.1642L14.7089 15.0491L11.3738 13.0143ZM15.8485 9.36446V10.2671L14.9879 10.7583L14.1974 10.3042L15.8485 9.36446ZM16.4318 9.36784L19.7692 11.2826L19.7723 12.1678L16.4318 10.1326V9.36784ZM20.3559 12.1877L20.3526 11.2828L22.301 10.1762L22.305 11.0783L20.3559 12.1877ZM9.64771 17.0458V17.9481L2.59444 13.9018L2.59102 13.0058L9.64771 17.0458ZM29.1259 14.0713L16.0489 21.6707L10.5018 18.4668L12.6151 17.2642C12.7062 17.2124 12.7626 17.1156 12.7626 17.0107V15.4356C12.7626 15.3194 12.6781 15.2186 12.6176 15.1836C12.6173 15.1833 12.6168 15.1834 12.6165 15.1832C12.6161 15.183 12.616 15.1826 12.6156 15.1824L10.5186 13.9819L11.2013 13.5923C12.7334 14.5266 14.9302 15.8648 14.8564 15.8221C14.9482 15.8752 15.0582 15.8733 15.1458 15.8239C15.146 15.8237 15.146 15.8235 15.1463 15.8234C15.7374 15.4871 17.8103 14.3077 17.6785 14.3826C17.7702 14.3305 17.8263 14.2334 17.826 14.128L17.8201 12.5529C17.8198 12.4643 17.7696 12.3565 17.6745 12.3016C17.6154 12.2675 15.5085 11.0574 15.5744 11.0952L16.2539 10.7074C16.3413 10.7607 19.9783 12.9743 19.9198 12.9405C20.0056 12.99 20.116 12.9948 20.2092 12.9422C20.2094 12.9421 20.2095 12.9419 20.2097 12.9418C20.8008 12.6054 22.8734 11.426 22.7417 11.501C22.8334 11.4489 22.8898 11.3514 22.8892 11.2461L22.8864 10.4708L29.1259 14.0713ZM14.9555 5.62748L22.0042 9.6713L20.061 10.7774C12.3163 6.32835 17.3208 9.20489 13.0126 6.73323L14.9555 5.62748ZM9.89198 8.50915C14.9914 11.4309 11.5025 9.42951 16.9403 12.553C16.8223 12.6202 14.8885 13.7208 14.9974 13.6589C14.9368 13.6241 7.88789 9.57983 7.94898 9.61483L9.89198 8.50915ZM7.36052 9.95007C7.41975 9.98406 10.6878 11.8589 10.4872 11.7439L8.54676 12.8529C8.4875 12.819 5.21623 10.9458 5.41683 11.0606L7.36052 9.95007ZM2.58362 18.5343L2.59387 14.5784C9.47203 18.5474 -7.34268 8.83654 15.7585 22.1768C15.7583 22.2367 15.7445 26.3952 15.7454 26.1316L2.58362 18.5343Z" fill="#068C53"/>
<path d="M29.8542 13.8175L29.9543 13.6444L29.9522 13.6432L29.8542 13.8175ZM29.8523 13.817L29.7523 13.9902L29.7543 13.9913L29.8523 13.817ZM22.884 9.7958L22.684 9.79654L22.6844 9.91155L22.784 9.96903L22.884 9.7958ZM22.8835 9.67151L22.6835 9.67211V9.67226L22.8835 9.67151ZM15.1014 5.03874L15.0013 5.21191L15.0018 5.21222L15.1014 5.03874ZM14.812 5.03817L14.7136 4.86404L14.713 4.86438L14.812 5.03817ZM2.00598 12.5013L1.80598 12.502L2.20598 12.5013H2.00598ZM2 18.7015L2.2 18.702L2.2 18.7017L2 18.7015ZM2.14583 18.955L2.04567 19.1281L2.04585 19.1282L2.14583 18.955ZM15.8915 26.8892L15.7915 27.0625L15.7917 27.0626L15.8915 26.8892ZM16.184 26.8887L16.0835 26.7158L16.0835 26.7158L16.184 26.8887ZM24.5233 22.0426L24.6238 22.2155L24.6239 22.2154L24.5233 22.0426ZM24.6287 21.6441L24.4557 21.7445L24.456 21.7449L24.6287 21.6441ZM24.2299 21.5384L24.3304 21.7113L24.3311 21.7109L24.2299 21.5384ZM16.3304 26.129L16.1304 26.1284L16.1292 26.4773L16.4309 26.302L16.3304 26.129ZM16.3437 22.178L16.1437 22.1773L16.1425 22.5263L16.4442 22.3509L16.3437 22.178ZM29.4152 14.5785L29.6152 14.579L29.6162 14.2303L29.3147 14.4056L29.4152 14.5785ZM29.4041 18.5315L29.5046 18.7044L29.6038 18.6467L29.6041 18.532L29.4041 18.5315ZM27.6276 19.5637L27.5272 19.3908L27.527 19.3908L27.6276 19.5637ZM27.5223 19.9622L27.6954 19.8621L27.695 19.8613L27.5223 19.9622ZM27.9207 20.0678L28.0211 20.2408L28.0212 20.2408L27.9207 20.0678ZM29.8416 18.9516L29.7416 18.7784L29.7411 18.7787L29.8416 18.9516ZM29.9869 18.7004L29.7869 18.6998V18.6998L29.9869 18.7004ZM30 14.0701H30.2V14.0698L30 14.0701ZM4.82883 11.3965L4.92821 11.223L4.82913 11.1662L4.7299 11.2227L4.82883 11.3965ZM11.882 15.4352L11.9813 15.2616L11.8822 15.2049L11.783 15.2614L11.882 15.4352ZM9.93984 16.5406L9.84047 16.7142L9.93955 16.7709L10.0388 16.7144L9.93984 16.5406ZM2.88611 12.5023L2.78718 12.3284L2.48269 12.5018L2.78674 12.6758L2.88611 12.5023ZM10.481 8.17408L10.3816 8.34762L10.4806 8.40439L10.5799 8.3479L10.481 8.17408ZM12.4237 7.06844L12.5232 6.89496L12.4241 6.83809L12.3247 6.89462L12.4237 7.06844ZM15.5499 8.86184L15.6494 8.68836L15.5503 8.63149L15.4509 8.68802L15.5499 8.86184ZM13.6093 9.96634L13.5099 10.1399L13.609 10.1967L13.7082 10.1402L13.6093 9.96634ZM17.2421 13.9599L17.3411 14.1337L17.4426 14.076L17.4421 13.9592L17.2421 13.9599ZM15.2925 15.0693L15.0925 15.0701L15.0938 15.4125L15.3914 15.2432L15.2925 15.0693ZM15.2891 14.1643L15.0891 14.165L15.0904 14.5075L15.388 14.3381L15.2891 14.1643ZM17.2387 13.0546L17.4387 13.0538L17.4374 12.7114L17.1398 12.8808L17.2387 13.0546ZM10.7909 13.1551L10.9909 13.1542L10.9894 12.8116L10.6918 12.9813L10.7909 13.1551ZM9.93104 13.6454L9.83167 13.819L9.93085 13.8758L10.0301 13.8192L9.93104 13.6454ZM9.13544 13.19L9.0362 13.0163L8.73262 13.1898L9.03607 13.3635L9.13544 13.19ZM10.787 12.2461L10.987 12.2452L10.9856 11.9023L10.6878 12.0724L10.787 12.2461ZM10.231 17.0463L10.1321 16.8725L10.031 16.93V17.0463H10.231ZM12.1793 15.9373H12.3793V15.5934L12.0803 15.7635L12.1793 15.9373ZM12.1793 16.8413L12.2782 17.0151L12.3793 16.9576V16.8413H12.1793ZM10.231 17.9498H10.031V18.2937L10.3299 18.1237L10.231 17.9498ZM11.3738 13.0143L11.1738 13.0151L11.1743 13.1268L11.2696 13.185L11.3738 13.0143ZM11.3705 12.2506L11.1705 12.2515L11.171 12.3667L11.271 12.4241L11.3705 12.2506ZM14.7057 14.1642L14.9057 14.1635L14.9053 14.0482L14.8053 13.9907L14.7057 14.1642ZM14.7089 15.0491L14.6047 15.2198L14.9101 15.4062L14.9089 15.0484L14.7089 15.0491ZM15.8485 9.36446H16.0485V9.02051L15.7495 9.19064L15.8485 9.36446ZM15.8485 10.2671L15.9476 10.4408L16.0485 10.3832V10.2671H15.8485ZM14.9879 10.7583L14.8883 10.9317L14.9876 10.9888L15.087 10.932L14.9879 10.7583ZM14.1974 10.3042L14.0985 10.1303L13.7945 10.3033L14.0977 10.4776L14.1974 10.3042ZM16.4318 9.36784L16.5313 9.19437L16.2318 9.02252V9.36784H16.4318ZM19.7692 11.2826L19.9692 11.2819L19.9688 11.1665L19.8687 11.1091L19.7692 11.2826ZM19.7723 12.1678L19.6682 12.3386L19.9736 12.5246L19.9723 12.1671L19.7723 12.1678ZM16.4318 10.1326H16.2318V10.245L16.3277 10.3034L16.4318 10.1326ZM20.3559 12.1877L20.1559 12.1884L20.1572 12.5309L20.4549 12.3615L20.3559 12.1877ZM20.3526 11.2828L20.2538 11.1088L20.1521 11.1666L20.1526 11.2835L20.3526 11.2828ZM22.301 10.1762L22.501 10.1753L22.4995 9.83351L22.2023 10.0023L22.301 10.1762ZM22.305 11.0783L22.4039 11.2521L22.5055 11.1943L22.505 11.0774L22.305 11.0783ZM9.64771 17.0458H9.84771V16.9299L9.74708 16.8722L9.64771 17.0458ZM9.64771 17.9481L9.54818 18.1216L9.84771 18.2934V17.9481H9.64771ZM2.59444 13.9018L2.39444 13.9026L2.39488 14.0179L2.49492 14.0753L2.59444 13.9018ZM2.59102 13.0058L2.69039 12.8322L2.3897 12.6601L2.39103 13.0065L2.59102 13.0058ZM29.1259 14.0713L29.2264 14.2442L29.525 14.0707L29.2259 13.8981L29.1259 14.0713ZM16.0489 21.6707L15.9489 21.8439L16.0492 21.9018L16.1494 21.8436L16.0489 21.6707ZM10.5018 18.4668L10.4029 18.293L10.0997 18.4655L10.4018 18.64L10.5018 18.4668ZM12.6151 17.2642L12.5162 17.0904L12.5162 17.0904L12.6151 17.2642ZM12.6176 15.1836L12.5147 15.3551L12.5172 15.3565L12.6176 15.1836ZM12.6156 15.1824L12.7186 15.0109L12.715 15.0088L12.6156 15.1824ZM10.5186 13.9819L10.4195 13.8081L10.1156 13.9816L10.4193 14.1554L10.5186 13.9819ZM11.2013 13.5923L11.3054 13.4215L11.2047 13.3601L11.1022 13.4186L11.2013 13.5923ZM14.8564 15.8221L14.9566 15.649L14.7562 15.9953L14.8564 15.8221ZM15.1458 15.8239L15.0562 15.6447L15.0475 15.6497L15.1458 15.8239ZM15.1463 15.8234L15.2358 16.0025L15.2452 15.9972L15.1463 15.8234ZM17.6785 14.3826L17.5796 14.2088L17.7773 14.5565L17.6785 14.3826ZM17.826 14.128L18.026 14.1274V14.1272L17.826 14.128ZM17.8201 12.5529L17.6201 12.5534L17.6201 12.5536L17.8201 12.5529ZM17.6745 12.3016L17.7745 12.1284L17.6745 12.3016ZM15.5744 11.0952L15.4747 11.2686L15.574 11.3257L15.6735 11.2689L15.5744 11.0952ZM16.2539 10.7074L16.3579 10.5366L16.2572 10.4753L16.1548 10.5337L16.2539 10.7074ZM19.9198 12.9405L20.0198 12.7673L19.8198 13.1137L19.9198 12.9405ZM20.2092 12.9422L20.1197 12.7631L20.111 12.768L20.2092 12.9422ZM20.2097 12.9418L20.2992 13.1209L20.3086 13.1156L20.2097 12.9418ZM22.7417 11.501L22.6427 11.3271L22.8405 11.6749L22.7417 11.501ZM22.8892 11.2461L22.6892 11.2468L22.6892 11.2471L22.8892 11.2461ZM22.8864 10.4708L22.9863 10.2976L22.6851 10.1238L22.6864 10.4715L22.8864 10.4708ZM14.9555 5.62748L15.055 5.454L14.9559 5.39714L14.8566 5.45366L14.9555 5.62748ZM22.0042 9.6713L22.1031 9.84511L22.4073 9.67198L22.1037 9.49782L22.0042 9.6713ZM20.061 10.7774L19.9614 10.9508L20.0606 11.0078L20.1599 10.9512L20.061 10.7774ZM13.0126 6.73323L12.9136 6.55941L12.6094 6.73253L12.913 6.90671L13.0126 6.73323ZM9.89198 8.50915L9.99141 8.33562L9.89232 8.27884L9.79307 8.33532L9.89198 8.50915ZM16.9403 12.553L17.0393 12.7269L17.3433 12.5538L17.0399 12.3796L16.9403 12.553ZM14.9974 13.6589L15.0963 13.8327L15.4005 13.6595L15.0969 13.4854L14.9974 13.6589ZM7.94898 9.61483L7.84955 9.78836L7.94864 9.84513L8.04789 9.78865L7.94898 9.61483ZM7.36052 9.95007L7.46004 9.7766L7.36072 9.71961L7.2613 9.77642L7.36052 9.95007ZM10.4872 11.7439L10.5868 11.5704L10.4874 11.5134L10.388 11.5702L10.4872 11.7439ZM8.54676 12.8529L8.44738 13.0265L8.54667 13.0833L8.64601 13.0266L8.54676 12.8529ZM5.41683 11.0606L5.31745 11.2342L5.41672 11.291L5.51605 11.2343L5.41683 11.0606ZM2.58362 18.5343L2.38362 18.5338L2.38332 18.6496L2.48364 18.7075L2.58362 18.5343ZM2.59387 14.5784L2.69383 14.4051L2.39477 14.2326L2.39387 14.5778L2.59387 14.5784ZM15.7585 22.1768L15.9585 22.1775L15.9589 22.0616L15.8586 22.0036L15.7585 22.1768ZM15.7454 26.1316L15.9454 26.1323L15.9457 26.0163L15.8453 25.9584L15.7454 26.1316ZM29.9522 13.6432C29.9309 13.6312 29.9118 13.6255 29.8996 13.6227C29.8935 13.6212 29.8886 13.6204 29.8856 13.6199C29.884 13.6196 29.8828 13.6194 29.882 13.6193C29.8816 13.6193 29.8813 13.6192 29.8811 13.6192C29.881 13.6192 29.8809 13.6192 29.8809 13.6192C29.8808 13.6192 29.8808 13.6192 29.8808 13.6192C29.8803 13.6191 29.8825 13.6194 29.8851 13.6198C29.8879 13.6203 29.8927 13.6211 29.8987 13.6225C29.9105 13.6253 29.9294 13.6309 29.9504 13.6427L29.7543 13.9913C29.7755 14.0033 29.7947 14.009 29.8069 14.0118C29.8129 14.0133 29.8179 14.0141 29.8209 14.0146C29.8224 14.0149 29.8237 14.0151 29.8245 14.0152C29.8249 14.0152 29.8252 14.0153 29.8254 14.0153C29.8255 14.0153 29.8256 14.0153 29.8256 14.0153C29.8257 14.0153 29.8257 14.0154 29.8257 14.0154C29.8262 14.0154 29.824 14.0151 29.8214 14.0147C29.8185 14.0142 29.8137 14.0134 29.8078 14.012C29.796 14.0092 29.7771 14.0036 29.7561 13.9918L29.9522 13.6432ZM29.9523 13.6438L22.9839 9.62258L22.784 9.96903L29.7524 13.9902L29.9523 13.6438ZM23.084 9.79506C23.084 9.79173 23.0839 9.79032 23.0839 9.78998C23.0839 9.78992 23.0839 9.78996 23.0839 9.79003C23.0839 9.79004 23.0839 9.79013 23.0839 9.79025C23.0839 9.79033 23.0839 9.7906 23.0839 9.79078C23.0839 9.79151 22.8858 9.99055 22.684 9.79603C22.684 9.79427 22.684 9.79225 22.684 9.792C22.684 9.79189 22.684 9.79174 22.684 9.79168C22.684 9.79159 22.684 9.79153 22.684 9.79151C22.6839 9.79145 22.6839 9.79144 22.684 9.7916C22.684 9.79185 22.684 9.79226 22.684 9.79276C22.684 9.79377 22.684 9.79504 22.684 9.79585C22.684 9.7962 22.684 9.79655 22.684 9.79666C22.684 9.79667 22.684 9.79673 22.684 9.7968C22.684 9.79685 22.684 9.79703 22.684 9.79716C22.684 9.79807 22.8854 9.99581 23.084 9.7962C23.084 9.79586 23.084 9.79544 23.084 9.79535C23.084 9.79531 23.084 9.79525 23.084 9.79523C23.084 9.79519 23.084 9.79515 23.084 9.79514C23.084 9.79509 23.084 9.79503 23.084 9.79499C23.084 9.79488 23.084 9.79471 23.084 9.79446C23.084 9.79053 23.0839 9.76608 23.0835 9.67076L22.6835 9.67226C22.6839 9.76759 22.684 9.79202 22.684 9.79593C22.684 9.79618 22.684 9.79634 22.684 9.79643C22.684 9.79648 22.684 9.79648 22.684 9.79646C22.684 9.79646 22.684 9.79643 22.684 9.7964C22.684 9.79638 22.684 9.79631 22.684 9.79628C22.684 9.79619 22.684 9.79577 22.684 9.79543C22.8826 9.59582 23.084 9.79356 23.084 9.79447C23.084 9.7946 23.084 9.79478 23.084 9.79483C23.084 9.79489 23.084 9.79495 23.084 9.79495C23.084 9.79496 23.084 9.79476 23.084 9.79432C23.084 9.79354 23.084 9.79222 23.084 9.79123C23.084 9.79073 23.0839 9.79029 23.0839 9.79003C23.0839 9.78994 23.0839 9.78976 23.0839 9.78963C23.0839 9.78961 23.0839 9.78954 23.0839 9.78945C23.0839 9.78939 23.0839 9.78923 23.0839 9.78913C23.0839 9.78887 23.0839 9.78686 23.0839 9.78509C22.8821 9.59057 22.684 9.78961 22.6839 9.79035C22.6839 9.79053 22.6839 9.79079 22.6839 9.79087C22.6839 9.791 22.6839 9.79109 22.6839 9.79111C22.6839 9.79121 22.6839 9.79131 22.6839 9.79134C22.684 9.79175 22.684 9.79324 22.684 9.79654L23.084 9.79506ZM23.0835 9.67091C23.0833 9.59805 23.0551 9.51596 23.0226 9.45237C22.9891 9.38675 22.9303 9.29982 22.8373 9.24619L22.6374 9.59268C22.6348 9.59113 22.6379 9.59233 22.645 9.60082C22.6517 9.60898 22.6593 9.62044 22.6664 9.63434C22.6735 9.64817 22.6786 9.66151 22.6816 9.67177C22.6831 9.67681 22.6838 9.67998 22.684 9.68114C22.6843 9.68281 22.6835 9.67945 22.6835 9.67211L23.0835 9.67091ZM22.8403 9.24793C22.8403 9.24792 22.8402 9.2479 22.8402 9.2479C22.8402 9.24789 22.8402 9.24789 22.8402 9.24788C22.8402 9.24788 22.8402 9.24787 22.8401 9.24785C22.8401 9.24785 22.8401 9.24784 22.8401 9.24783C22.8401 9.24782 22.84 9.24779 22.84 9.24775C22.84 9.24774 22.8399 9.24769 22.8398 9.24762C22.8397 9.24758 22.8395 9.24746 22.8394 9.24738C22.839 9.2472 22.8369 9.24597 22.8351 9.24494C22.5654 9.31723 22.632 9.5894 22.6331 9.59009C22.6334 9.59025 22.6337 9.59048 22.6338 9.59055C22.634 9.59065 22.6341 9.59072 22.6342 9.59073C22.6342 9.59078 22.6343 9.59081 22.6343 9.59082C22.6343 9.59083 22.6343 9.59084 22.6343 9.59085C22.6344 9.59086 22.6344 9.59087 22.6344 9.59087C22.6344 9.59089 22.6345 9.59093 22.6345 9.59093C22.6345 9.59093 22.6345 9.59097 22.6346 9.59099C22.6346 9.59099 22.6346 9.591 22.6346 9.59101C22.6346 9.59102 22.6346 9.59103 22.6347 9.59104C22.6347 9.59105 22.6347 9.59108 22.6348 9.59113C22.6348 9.59114 22.635 9.59121 22.6351 9.59131C22.6352 9.59137 22.6356 9.59159 22.6358 9.59174C22.6369 9.59235 22.9083 9.52349 22.8459 9.25144C22.8439 9.25016 22.8416 9.2487 22.8412 9.24851C22.8411 9.24843 22.8409 9.2483 22.8408 9.24826C22.8407 9.24819 22.8406 9.24814 22.8406 9.24812C22.8405 9.24808 22.8405 9.24805 22.8405 9.24805C22.8405 9.24804 22.8404 9.24803 22.8404 9.24802C22.8404 9.24801 22.8404 9.24799 22.8404 9.24799C22.8404 9.24799 22.8404 9.24798 22.8404 9.24798C22.8403 9.24797 22.8403 9.24796 22.8403 9.24795L22.6345 9.59092C22.6345 9.59094 22.6345 9.59094 22.6345 9.59094C22.6345 9.59094 22.6345 9.59094 22.6345 9.59093C22.6345 9.59093 22.6345 9.59093 22.6345 9.59093C22.6345 9.59092 22.6345 9.59092 22.6344 9.59091C22.6344 9.5909 22.6344 9.59089 22.6344 9.59088C22.6344 9.59087 22.6343 9.59085 22.6343 9.59081C22.6343 9.59079 22.6342 9.59074 22.634 9.59067C22.634 9.59062 22.6338 9.5905 22.6336 9.59042C22.6333 9.59023 22.631 9.58877 22.629 9.58749C22.5666 9.31544 22.838 9.24658 22.839 9.24719C22.8393 9.24734 22.8396 9.24756 22.8398 9.24762C22.8399 9.24772 22.84 9.24779 22.8401 9.2478C22.8401 9.24785 22.8402 9.24788 22.8402 9.24789C22.8402 9.2479 22.8402 9.24791 22.8403 9.24792C22.8403 9.24793 22.8403 9.24794 22.8403 9.24794C22.8403 9.24795 22.8403 9.24796 22.8403 9.24794C22.8403 9.24792 22.8403 9.24792 22.8403 9.24794C22.8403 9.24794 22.8403 9.24795 22.8403 9.24796C22.8403 9.24796 22.8403 9.24797 22.8404 9.24799C22.8404 9.24799 22.8404 9.24803 22.8405 9.24807C22.8405 9.24808 22.8407 9.24816 22.8408 9.24826C22.8409 9.24833 22.8413 9.24855 22.8416 9.24871C22.8427 9.24941 22.9093 9.52158 22.6395 9.59387C22.6377 9.59284 22.6356 9.59161 22.6353 9.59142C22.6352 9.59135 22.635 9.59123 22.6349 9.59119C22.6348 9.59112 22.6347 9.59106 22.6347 9.59105C22.6346 9.59101 22.6346 9.59098 22.6346 9.59098C22.6345 9.59097 22.6345 9.59096 22.6345 9.59095C22.6345 9.59094 22.6345 9.59094 22.6345 9.59093C22.6345 9.59093 22.6345 9.59093 22.6345 9.59093C22.6345 9.59092 22.6345 9.59092 22.6345 9.59092C22.6345 9.59092 22.6345 9.59092 22.6345 9.59094L22.8403 9.24793ZM22.8369 9.24595L15.2009 4.86526L15.0018 5.21222L22.6379 9.59291L22.8369 9.24595ZM15.2014 4.86556C15.0491 4.77757 14.8637 4.77923 14.7136 4.86404L14.9104 5.21229C14.9397 5.1957 14.9742 5.19623 15.0013 5.21191L15.2014 4.86556ZM14.713 4.86438C14.6835 4.88117 11.5033 6.6927 8.33799 8.49568C6.75532 9.39717 5.17636 10.2965 3.9968 10.9683C3.40702 11.3042 2.91709 11.5832 2.57648 11.7772C2.40617 11.8742 2.2732 11.9499 2.18374 12.0008C2.13901 12.0263 2.10518 12.0455 2.083 12.0581C2.0719 12.0644 2.06378 12.069 2.05868 12.0719C2.05609 12.0734 2.05444 12.0743 2.0536 12.0748C2.0528 12.0753 2.05343 12.0749 2.05437 12.0744C2.05647 12.0733 2.32377 12.1493 2.25904 12.4178C2.25583 12.4198 2.25205 12.4221 2.25159 12.4224L2.05033 12.0767C2.04964 12.0771 2.04573 12.0794 2.04248 12.0815C1.97771 12.3499 2.24506 12.426 2.24732 12.4248C2.24856 12.4241 2.24989 12.4233 2.25016 12.4232C2.25147 12.4225 2.2535 12.4213 2.25609 12.4198C2.26136 12.4168 2.26962 12.4122 2.28073 12.4058C2.30297 12.3932 2.33686 12.3739 2.3816 12.3484C2.47109 12.2975 2.60409 12.2218 2.77441 12.1248C3.11504 11.9308 3.60498 11.6518 4.19476 11.3159C5.37433 10.6441 6.9533 9.74474 8.53597 8.84325C11.7013 7.04026 14.8815 5.22875 14.911 5.21195L14.713 4.86438ZM2.05033 12.0767C1.95261 12.1336 1.89249 12.2177 1.85763 12.2909C1.8238 12.3618 1.80598 12.4383 1.80598 12.5013H2.20598C2.20598 12.5059 2.20555 12.5028 2.20791 12.4931C2.21003 12.4843 2.21358 12.4737 2.21867 12.463C2.2294 12.4405 2.24178 12.4281 2.25159 12.4224L2.05033 12.0767ZM2.20598 12.5006C2.20598 12.5004 2.20598 12.5 2.20598 12.4997C2.20597 12.4994 2.20596 12.4983 2.20595 12.4975C2.20581 12.4926 2.00338 12.3008 1.80613 12.493C1.80605 12.4954 1.80599 12.4983 1.80599 12.4989C1.80598 12.5 1.80597 12.5014 1.80597 12.5022C1.80596 12.5043 1.80595 12.5079 1.80595 12.5128C1.80593 12.5227 1.8059 12.5383 1.80588 12.5592C1.80582 12.6011 1.80575 12.6645 1.80566 12.7463C1.80548 12.9098 1.80524 13.1471 1.80496 13.4339C1.80439 14.0074 1.80365 14.7788 1.80292 15.5542C1.80146 17.1049 1.80003 18.6713 1.8 18.7013L2.2 18.7017C2.20003 18.6717 2.20146 17.1053 2.20292 15.5545C2.20365 14.7792 2.20439 14.0078 2.20496 13.4342C2.20524 13.1475 2.20548 12.9102 2.20566 12.7467C2.20575 12.6649 2.20582 12.6016 2.20588 12.5598C2.2059 12.5388 2.20593 12.5233 2.20594 12.5135C2.20595 12.5086 2.20596 12.5053 2.20597 12.5034C2.20597 12.5022 2.20597 12.5023 2.20597 12.5029C2.20596 12.5034 2.2059 12.5063 2.20583 12.5086C2.00858 12.7008 1.80615 12.5089 1.80601 12.5042C1.80598 12.5026 1.80598 12.5013 1.80598 12.502L2.20598 12.5006ZM1.8 18.701C1.79952 18.8771 1.89321 19.0399 2.04567 19.1281L2.246 18.7819C2.21731 18.7653 2.19991 18.7349 2.2 18.702L1.8 18.701ZM2.04585 19.1282C3.93552 20.2189 13.6645 25.8347 15.7915 27.0625L15.9915 26.716C13.8645 25.4883 4.13548 19.8725 2.24582 18.7818L2.04585 19.1282ZM15.7917 27.0626C15.9423 27.1493 16.1301 27.1513 16.2845 27.0616L16.0835 26.7158C16.0547 26.7325 16.0197 26.7323 15.9913 26.7159L15.7917 27.0626ZM16.2845 27.0616L24.6238 22.2155L24.4228 21.8696L16.0835 26.7158L16.2845 27.0616ZM24.6239 22.2154C24.8579 22.0792 24.9386 21.7782 24.8014 21.5432L24.456 21.7449C24.4811 21.788 24.4666 21.8441 24.4227 21.8697L24.6239 22.2154ZM24.8016 21.5437C24.665 21.3083 24.3631 21.2285 24.1287 21.3659L24.3311 21.7109C24.3736 21.686 24.4299 21.7001 24.4557 21.7445L24.8016 21.5437ZM24.1294 21.3655L16.2299 25.9561L16.4309 26.302L24.3304 21.7113L24.1294 21.3655ZM16.5304 26.1297C16.5305 26.0998 16.5341 25.0461 16.5375 24.0329C16.5392 23.5263 16.5408 23.0298 16.542 22.6764C16.5426 22.4997 16.5431 22.3588 16.5434 22.2703C16.5436 22.226 16.5437 22.1949 16.5437 22.1789C16.5437 22.171 16.5438 22.1667 16.5438 22.1666C16.3444 21.9659 16.1438 22.1652 16.1438 22.1653C16.1438 22.1653 16.1438 22.1653 16.1438 22.1654C16.1438 22.1655 16.1438 22.1657 16.1438 22.1659C16.1438 22.1664 16.1438 22.1671 16.1438 22.1681C16.1437 22.1701 16.1437 22.1732 16.1437 22.1773L16.5437 22.1786C16.5437 22.1745 16.5437 22.1715 16.5437 22.1695C16.5438 22.1685 16.5438 22.1678 16.5438 22.1673C16.5438 22.167 16.5438 22.1669 16.5438 22.1668C16.5438 22.1667 16.5438 22.1667 16.5438 22.1666C16.5438 22.1666 16.3431 22.3659 16.1438 22.1653C16.1438 22.1653 16.1438 22.1654 16.1438 22.1655C16.1438 22.1657 16.1438 22.1659 16.1438 22.1661C16.1438 22.1667 16.1438 22.1674 16.1438 22.1685C16.1437 22.1705 16.1437 22.1736 16.1437 22.1776C16.1437 22.1935 16.1436 22.2247 16.1434 22.2689C16.1431 22.3574 16.1426 22.4983 16.142 22.675C16.1409 23.0284 16.1392 23.5249 16.1375 24.0315C16.1341 25.0447 16.1305 26.0984 16.1304 26.1284L16.5304 26.1297ZM16.4442 22.3509L29.5158 14.7514L29.3147 14.4056L16.2432 22.0051L16.4442 22.3509ZM29.2152 14.5779L29.2041 18.5309L29.6041 18.532L29.6152 14.579L29.2152 14.5779ZM29.3037 18.3585L27.5272 19.3908L27.7281 19.7366L29.5046 18.7044L29.3037 18.3585ZM27.527 19.3908C27.293 19.527 27.2123 19.828 27.3496 20.063L27.695 19.8613C27.6698 19.8183 27.6843 19.7621 27.7282 19.7365L27.527 19.3908ZM27.3491 20.0622C27.4855 20.2984 27.7873 20.3764 28.0211 20.2408L27.8204 19.8948C27.7762 19.9205 27.7202 19.905 27.6954 19.8621L27.3491 20.0622ZM28.0212 20.2408L29.9421 19.1245L29.7411 18.7787L27.8202 19.8949L28.0212 20.2408ZM29.9417 19.1248C30.0933 19.0372 30.1864 18.8756 30.1869 18.7009L29.7869 18.6998C29.7868 18.7325 29.7694 18.7623 29.7416 18.7784L29.9417 19.1248ZM30.1869 18.7009L30.2 14.0716L29.8 14.0704L29.7869 18.6998L30.1869 18.7009ZM30.2 14.071C30.2 14.071 30.2 14.071 30.2 14.071C30.2 14.071 30.2 14.071 30.2 14.071V14.071V14.071C30.2 14.071 30.2 14.071 30.2 14.071C30.2 14.071 30.2 14.071 30.2 14.071C30.2 14.071 30.2 14.071 30.2 14.071V14.071C30.2 14.071 30.2 14.071 30.2 14.071C30.2 14.071 30.2 14.071 30.2 14.071V14.071C30.2 14.071 30.2 14.071 30.2 14.071C30.2 14.071 30.2 14.071 30.2 14.071C30.2 14.071 30.2 14.071 30.2 14.071C30.2 14.071 30.2 14.071 30.2 14.071V14.071C30.2 14.071 30.2 14.071 30.2 14.071V14.071C30.2 14.071 30.2 14.071 30.2 14.071C30.2 14.071 30.2 14.071 30.2 14.071V14.071C30.2 14.071 30.2 14.071 30.2 14.071C30.2 14.071 30.2 14.071 30.2 14.071V14.071V14.071V14.071V14.071V14.071V14.071C30.2 14.071 30.2 14.071 30.2 14.071C30.2 14.071 30.2 14.071 30.2 14.071C30.2 14.071 30.2 14.071 30.2 14.071C30.2 14.071 30.2 14.071 30.2 14.071V14.071C30.2 14.071 30.2 14.071 30.2 14.071C30.2 14.071 30.2 14.071 30.2 14.071V14.071C30.2 14.071 30.2 14.071 30.2 14.071C30.2 14.071 30.2 14.071 30.2 14.071V14.071C30.2 14.071 30.2 14.071 30.2 14.071V14.071C30.2 14.071 30.2 14.071 30.2 14.071C30 14.071 29.8 14.071 29.8 14.071V14.071C29.8 14.071 29.8 14.071 29.8 14.071V14.071V14.071C29.8 14.071 29.8 14.071 29.8 14.071V14.071C29.8 14.071 29.8 14.071 29.8 14.071C29.8 14.071 29.8 14.071 29.8 14.071V14.071C29.8 14.071 29.8 14.071 29.8 14.071V14.071C29.8 14.071 29.8 14.071 29.8 14.071C29.8 14.071 29.8 14.071 29.8 14.071C29.8 14.071 29.8 14.071 29.8 14.071C29.8 14.071 29.8 14.071 29.8 14.071C29.8 14.071 29.8 14.071 29.8 14.071C29.8 14.071 29.8 14.071 29.8 14.071C29.8 14.071 29.8 14.071 29.8 14.071C29.8 14.071 29.8 14.071 29.8 14.071V14.071C29.8 14.071 29.8 14.071 29.8 14.071C29.8 14.071 29.8 14.071 29.8 14.071V14.071C29.8 14.071 29.8 14.071 29.8 14.071V14.071C29.8 14.071 29.8 14.071 29.8 14.071V14.071C29.8 14.071 29.8 14.071 29.8 14.071C29.8 14.071 29.8 14.071 29.8 14.071C29.8 14.071 29.8 14.071 29.8 14.071C29.8 14.071 29.8 14.071 29.8 14.071V14.071C29.8 14.071 29.8 14.071 29.8 14.071C29.8 14.071 29.8 14.071 29.8 14.071V14.071C29.8 14.071 29.8 14.071 29.8 14.071C29.8 14.071 29.8 14.071 29.8 14.071V14.071C29.8 14.071 29.8 14.071 29.8 14.071C29.8 14.071 29.8 14.071 29.8 14.071V14.071V14.071C29.8 14.071 29.8 14.071 29.8 14.071C29.8 14.071 29.8 14.071 29.8 14.071V14.071C29.8 14.071 29.8 14.071 29.8 14.071C29.8 14.071 29.8 14.071 29.8 14.071V14.071C29.8 14.071 29.8 14.071 29.8 14.071C29.8 14.071 29.8 14.071 29.8 14.071C29.8 14.071 29.8 14.071 29.8 14.071V14.071C29.8 14.071 29.8 14.071 29.8 14.071C29.8 14.071 29.8 14.071 29.8 14.071V14.071C29.8 14.071 29.8 14.071 29.8 14.071V14.071C29.8 14.071 29.8 14.071 29.8 14.071C29.8 14.071 29.8 14.071 29.8 14.071V14.071C29.8 14.071 29.8 14.071 29.8 14.071V14.071C29.8 14.071 29.8 14.071 29.8 14.071V14.071C29.8 14.071 29.8 14.071 29.8 14.071C29.8 14.071 29.8 14.071 29.8 14.071V14.071C29.8 14.071 29.8 14.071 29.8 14.071C29.8 14.071 29.8 14.071 29.8 14.071V14.071V14.071C29.8 14.071 29.8 14.071 29.8 14.071C29.8 14.071 29.8 14.071 29.8 14.071V14.071V14.071C29.8 14.071 29.8 14.071 29.8 14.071C29.8 14.071 29.8 14.071 29.8 14.071V14.071C29.8 14.071 29.8 14.071 29.8 14.071C29.8 14.071 29.8 14.071 29.8 14.071C29.8 14.071 29.8 14.071 29.8 14.071V14.071C29.8 14.071 29.8 14.071 29.8 14.071C29.8 14.071 29.8 14.071 29.8 14.071C29.8 14.071 29.8 14.071 29.8 14.071C29.8 14.071 29.8 14.071 29.8 14.071C29.8 14.071 30 14.071 30.2 14.071C30.2 14.071 30.2 14.071 30.2 14.071C30.2 14.071 30.2 14.071 30.2 14.071V14.071C30.2 14.071 30.2 14.071 30.2 14.071C30.2 14.071 30.2 14.071 30.2 14.071C30.2 14.071 30.2 14.071 30.2 14.071C30.2 14.071 30.2 14.071 30.2 14.071C30.2 14.071 30.2 14.071 30.2 14.071C30.2 14.071 30.2 14.071 30.2 14.071V14.071C30.2 14.071 30.2 14.071 30.2 14.071V14.071C30.2 14.071 30.2 14.071 30.2 14.071C30.2 14.071 30.2 14.071 30.2 14.071C30.2 14.071 30.2 14.071 30.2 14.071C30.2 14.071 30.2 14.071 30.2 14.071C30.2 14.071 30.2 14.071 30.2 14.071C30.2 14.071 30.2 14.071 30.2 14.071C30.2 14.071 30.2 14.071 30.2 14.071C30.2 14.071 30.2 14.071 30.2 14.071V14.071C30.2 14.071 30.2 14.071 30.2 14.071C30.2 14.071 30.2 14.071 30.2 14.071V14.071C30.2 14.071 30.2 14.071 30.2 14.071V14.071C30.2 14.071 30.2 14.071 30.2 14.071V14.071C30.2 14.071 30.2 14.071 30.2 14.071V14.071C30.2 14.071 30.2 14.071 30.2 14.071C30.2 14.071 30.2 14.071 30.2 14.071V14.071C30.2 14.071 30.2 14.071 30.2 14.071C30.2 14.071 30.2 14.071 30.2 14.071V14.071C30.2 14.071 30.2 14.071 30.2 14.071C30.2 14.071 30.2 14.071 30.2 14.071C30.2 14.071 30.2 14.071 30.2 14.071V14.071V14.071C30.2 14.071 30.2 14.071 30.2 14.071C30.2 14.071 30.2 14.071 30.2 14.071H29.8C29.8 14.071 29.8 14.071 29.8 14.071C29.8 14.071 29.8 14.071 29.8 14.071V14.071V14.071C29.8 14.071 29.8 14.071 29.8 14.071C29.8 14.071 29.8 14.071 29.8 14.071C29.8 14.071 29.8 14.071 29.8 14.071V14.071C29.8 14.071 29.8 14.071 29.8 14.071C29.8 14.071 29.8 14.071 29.8 14.071V14.071C29.8 14.071 29.8 14.071 29.8 14.071C29.8 14.071 29.8 14.071 29.8 14.071V14.071C29.8 14.071 29.8 14.071 29.8 14.071V14.071C29.8 14.071 29.8 14.071 29.8 14.071V14.071C29.8 14.071 29.8 14.071 29.8 14.071V14.071C29.8 14.071 29.8 14.071 29.8 14.071C29.8 14.071 29.8 14.071 29.8 14.071V14.071C29.8 14.071 29.8 14.071 29.8 14.071C29.8 14.071 29.8 14.071 29.8 14.071C29.8 14.071 29.8 14.071 29.8 14.071C29.8 14.071 29.8 14.071 29.8 14.071C29.8 14.071 29.8 14.071 29.8 14.071C29.8 14.071 29.8 14.071 29.8 14.071C29.8 14.071 29.8 14.071 29.8 14.071C29.8 14.071 29.8 14.071 29.8 14.071V14.071C29.8 14.071 29.8 14.071 29.8 14.071V14.071C29.8 14.071 29.8 14.071 29.8 14.071C29.8 14.071 29.8 14.071 29.8 14.071C29.8 14.071 29.8 14.071 29.8 14.071C29.8 14.071 29.8 14.071 29.8 14.071C29.8 14.071 29.8 14.071 29.8 14.071C29.8 14.071 29.8 14.071 29.8 14.071V14.071C29.8 14.071 29.8 14.071 29.8 14.071C29.8 14.071 29.8 14.071 29.8 14.071C30 14.071 30.2 14.071 30.2 14.071C30.2 14.071 30.2 14.071 30.2 14.071C30.2 14.071 30.2 14.071 30.2 14.071C30.2 14.071 30.2 14.071 30.2 14.071C30.2 14.071 30.2 14.071 30.2 14.071V14.071C30.2 14.071 30.2 14.071 30.2 14.071C30.2 14.071 30.2 14.071 30.2 14.071C30.2 14.071 30.2 14.071 30.2 14.071V14.071C30.2 14.071 30.2 14.071 30.2 14.071C30.2 14.071 30.2 14.071 30.2 14.071V14.071V14.071C30.2 14.071 30.2 14.071 30.2 14.071C30.2 14.071 30.2 14.071 30.2 14.071V14.071V14.071C30.2 14.071 30.2 14.071 30.2 14.071C30.2 14.071 30.2 14.071 30.2 14.071V14.071C30.2 14.071 30.2 14.071 30.2 14.071C30.2 14.071 30.2 14.071 30.2 14.071V14.071C30.2 14.071 30.2 14.071 30.2 14.071V14.071C30.2 14.071 30.2 14.071 30.2 14.071V14.071C30.2 14.071 30.2 14.071 30.2 14.071C30.2 14.071 30.2 14.071 30.2 14.071V14.071C30.2 14.071 30.2 14.071 30.2 14.071V14.071C30.2 14.071 30.2 14.071 30.2 14.071C30.2 14.071 30.2 14.071 30.2 14.071V14.071C30.2 14.071 30.2 14.071 30.2 14.071C30.2 14.071 30.2 14.071 30.2 14.071C30.2 14.071 30.2 14.071 30.2 14.071V14.071C30.2 14.071 30.2 14.071 30.2 14.071C30.2 14.071 30.2 14.071 30.2 14.071V14.071C30.2 14.071 30.2 14.071 30.2 14.071C30.2 14.071 30.2 14.071 30.2 14.071V14.071V14.071C30.2 14.071 30.2 14.071 30.2 14.071C30.2 14.071 30.2 14.071 30.2 14.071V14.071C30.2 14.071 30.2 14.071 30.2 14.071C30.2 14.071 30.2 14.071 30.2 14.071V14.071C30.2 14.071 30.2 14.071 30.2 14.071C30.2 14.071 30.2 14.071 30.2 14.071V14.071C30.2 14.071 30.2 14.071 30.2 14.071C30.2 14.071 30.2 14.071 30.2 14.071C30.2 14.071 30.2 14.071 30.2 14.071C30.2 14.071 30.2 14.071 30.2 14.071V14.071C30.2 14.071 30.2 14.071 30.2 14.071V14.071C30.2 14.071 30.2 14.071 30.2 14.071V14.071C30.2 14.071 30.2 14.071 30.2 14.071C30.2 14.071 30.2 14.071 30.2 14.071V14.071C30.2 14.071 30.2 14.071 30.2 14.071C30.2 14.071 30.2 14.071 30.2 14.071C30.2 14.071 30.2 14.071 30.2 14.071C30.2 14.071 30.2 14.071 30.2 14.071C30.2 14.071 30.2 14.071 30.2 14.071C30.2 14.071 30.2 14.071 30.2 14.071C30.2 14.071 30.2 14.071 30.2 14.071C30.2 14.071 30.2 14.071 30.2 14.071V14.071C30.2 14.071 30.2 14.071 30.2 14.071V14.071C30.2 14.071 30.2 14.071 30.2 14.071C30.2 14.071 30.2 14.071 30.2 14.071V14.071C30.2 14.071 30.2 14.071 30.2 14.071V14.071V14.071C30.2 14.071 30.2 14.071 30.2 14.071V14.071C30.2 14.071 30 14.071 29.8 14.071C29.8 14.071 29.8 14.071 29.8 14.071V14.071C29.8 14.071 29.8 14.071 29.8 14.071V14.071C29.8 14.071 29.8 14.071 29.8 14.071C29.8 14.071 29.8 14.071 29.8 14.071V14.071C29.8 14.071 29.8 14.071 29.8 14.071C29.8 14.071 29.8 14.071 29.8 14.071V14.071C29.8 14.071 29.8 14.071 29.8 14.071C29.8 14.071 29.8 14.071 29.8 14.071C29.8 14.071 29.8 14.071 29.8 14.071C29.8 14.071 29.8 14.071 29.8 14.071V14.071V14.071V14.071V14.071V14.071V14.071C29.8 14.071 29.8 14.071 29.8 14.071C29.8 14.071 29.8 14.071 29.8 14.071V14.071C29.8 14.071 29.8 14.071 29.8 14.071C29.8 14.071 29.8 14.071 29.8 14.071V14.071C29.8 14.071 29.8 14.071 29.8 14.071V14.071C29.8 14.071 29.8 14.071 29.8 14.071C29.8 14.071 29.8 14.071 29.8 14.071C29.8 14.071 29.8 14.071 29.8 14.071C29.8 14.071 29.8 14.071 29.8 14.071V14.071C29.8 14.071 29.8 14.071 29.8 14.071C29.8 14.071 29.8 14.071 29.8 14.071V14.071C29.8 14.071 29.8 14.071 29.8 14.071C29.8 14.071 29.8 14.071 29.8 14.071C29.8 14.071 29.8 14.071 29.8 14.071V14.071V14.071C29.8 14.071 29.8 14.071 29.8 14.071C29.8 14.071 29.8 14.071 29.8 14.071H30.2ZM30.2 14.071C30.2 14.071 30.2 14.071 30.2 14.071C30.2 14.071 30.2 14.071 30.2 14.071C30.2 14.071 30.2 14.071 30.2 14.071V14.071V14.071V14.071V14.071V14.071V14.071V14.071C30.2 14.071 30.2 14.071 30.2 14.071C30.2 14.071 30.2 14.071 30.2 14.071C30.2 14.071 30.2 14.071 30.2 14.071V14.071V14.071V14.071V14.071V14.071V14.071V14.071C30.2 14.071 30.2 14.071 30.2 14.071C30.2 14.071 30.2 14.071 30.2 14.071C30.2 14.071 30.2 14.071 30.2 14.071C30.2 14.071 30.2 14.071 30.2 14.071C30.2 14.071 30.2 14.071 30.2 14.071C30.2 14.071 30.2 14.071 30.2 14.071V14.071V14.071C30.2 14.071 30.2 14.071 30.2 14.071C30.2 14.071 30.2 14.071 30.2 14.071C30.2 14.071 30.2 14.071 30.2 14.071C30.2 14.071 30.2 14.071 30.2 14.071V14.071V14.071C30.2 14.071 30.2 14.071 30.2 14.071C30.2 14.071 30.2 14.071 30.2 14.071C30.2 14.071 30.2 14.071 30.2 14.071V14.071C30.2 14.071 30.2 14.071 30.2 14.071C30.2 14.071 30.2 14.071 30.2 14.071C30.2 14.071 30.2 14.071 30.2 14.071V14.071C30.2 14.071 30.2 14.071 30.2 14.071C30.2 14.071 30.2 14.071 30.2 14.071V14.071V14.071C30.2 14.071 30.2 14.071 30.2 14.071V14.071V14.071C30.2 14.071 30.2 14.071 30.2 14.0709V14.0709V14.0709C30.2 14.0709 30.2 14.0709 30.2 14.0709V14.0709C30.2 14.0709 30.2 14.0709 30.2 14.0709C30.2 14.0709 30.2 14.0709 30.2 14.0709V14.0709C30.2 14.0709 30.2 14.0709 30.2 14.0709V14.0709C30.2 14.0709 30.2 14.0709 30.2 14.0709C30.2 14.0709 30.2 14.0709 30.2 14.0709V14.0709C30.2 14.0709 30.2 14.0709 30.2 14.0709V14.0709C30.2 14.0709 30.2 14.0709 30.2 14.0709V14.0709C30.2 14.0709 30.2 14.0709 30.2 14.0709V14.0709C30.2 14.0709 30.2 14.0709 30.2 14.0709V14.0709C30.2 14.0709 30.2 14.0709 30.2 14.0709V14.0709C30.2 14.0709 30.2 14.0709 30.2 14.0709V14.0709C30.2 14.0709 30.2 14.0709 30.2 14.0709V14.0709C30.2 14.0709 30.2 14.0709 30.2 14.0709V14.0709C30.2 14.0709 30.2 14.0709 30.2 14.0709C30.2 14.0709 30.2 14.0709 30.2 14.0709V14.0709C30.2 14.0709 30.2 14.0709 30.2 14.0709V14.0709C30.2 14.0709 30.2 14.0709 30.2 14.0709C30.2 14.0709 30.2 14.0709 30.2 14.0709V14.0709C30.2 14.0709 30.2 14.0709 30.2 14.0709V14.0709C30.2 14.0709 30.2 14.0709 30.2 14.0709C30.2 14.0709 30.2 14.0709 30.2 14.0709V14.0709C30.2 14.0709 30.2 14.0709 30.2 14.0709C30.2 14.0709 30.2 14.0709 30.2 14.0709V14.0709C30.2 14.0709 30.2 14.0709 30.2 14.0709C30.2 14.0709 30.2 14.0709 30.2 14.0709V14.0709C30.2 14.0709 30.2 14.0709 30.2 14.0709C30.2 14.0709 30.2 14.0709 30.2 14.0709V14.0709C30.2 14.0709 30.2 14.0709 30.2 14.0709C30.2 14.0709 30.2 14.0709 30.2 14.0709C30.2 14.0709 30.2 14.0709 30.2 14.0709V14.0709C30.2 14.0709 30.2 14.0709 30.2 14.0709C30.2 14.0709 30.2 14.0709 30.2 14.0709V14.0709C30.2 14.0709 30.2 14.0709 30.2 14.0709C30.2 14.0709 30.2 14.0709 30.2 14.0709C30.2 14.0709 30.2 14.0709 30.2 14.0709C30.2 14.0709 30.2 14.0709 30.2 14.0709V14.0709C30.2 14.0709 30.2 14.0709 30.2 14.0709C30.2 14.0709 30.2 14.0709 30.2 14.0709C30.2 14.0709 30.2 14.0709 30.2 14.0709V14.0709C30.2 14.0708 30.2 14.0708 30.2 14.0708C30.2 14.0708 30.2 14.0708 30.2 14.0708C30.2 14.0708 30.2 14.0708 30.2 14.0708C30.2 14.0708 30.2 14.0708 30.2 14.0708C30.2 14.0708 30.2 14.0708 30.2 14.0708V14.0708C30.2 14.0708 30.2 14.0708 30.2 14.0708C30.2 14.0708 30.2 14.0708 30.2 14.0708C30.2 14.0708 30.2 14.0708 30.2 14.0708C30.2 14.0708 30.2 14.0708 30.2 14.0708C30.2 14.0708 30.2 14.0708 30.2 14.0708V14.0708C30.2 14.0708 30.2 14.0708 30.2 14.0708C30.2 14.0708 30.2 14.0708 30.2 14.0708C30.2 14.0708 30.2 14.0708 30.2 14.0708C30.2 14.0708 30.2 14.0708 30.2 14.0708C30.2 14.0708 30.2 14.0708 30.2 14.0708C30.2 14.0708 30.2 14.0708 30.2 14.0708C30.2 14.0708 30.2 14.0708 30.2 14.0708C30.2 14.0708 30.2 14.0708 30.2 14.0708V14.0708C30.2 14.0708 30.2 14.0708 30.2 14.0708C30.2 14.0708 30.2 14.0708 30.2 14.0708C30.2 14.0708 30.2 14.0708 30.2 14.0708C30.2 14.0708 30.2 14.0708 30.2 14.0708C30.2 14.0708 30.2 14.0708 30.2 14.0708C30.2 14.0708 30.2 14.0708 30.2 14.0708C30.2 14.0708 30.2 14.0708 30.2 14.0708C30.2 14.0708 30.2 14.0708 30.2 14.0708C30.2 14.0708 30.2 14.0708 30.2 14.0708C30.2 14.0708 30.2 14.0708 30.2 14.0708C30.2 14.0708 30.2 14.0708 30.2 14.0708C30.2 14.0708 30.2 14.0708 30.2 14.0708C30.2 14.0708 30.2 14.0708 30.2 14.0708C30.2 14.0708 30.2 14.0708 30.2 14.0708C30.2 14.0708 30.2 14.0708 30.2 14.0708C30.2 14.0708 30.2 14.0708 30.2 14.0708C30.2 14.0708 30.2 14.0708 30.2 14.0708C30.2 14.0708 30.2 14.0708 30.2 14.0708V14.0708C30.2 14.0708 30.2 14.0708 30.2 14.0708C30.2 14.0708 30.2 14.0708 30.2 14.0708C30.2 14.0708 30.2 14.0708 30.2 14.0708C30.2 14.0708 30.2 14.0708 30.2 14.0708C30.2 14.0708 30.2 14.0708 30.2 14.0708C30.2 14.0708 30.2 14.0708 30.2 14.0708C30.2 14.0708 30.2 14.0708 30.2 14.0708C30.2 14.0708 30.2 14.0708 30.2 14.0708C30.2 14.0708 30.2 14.0708 30.2 14.0708C30.2 14.0708 30.2 14.0708 30.2 14.0708C30.2 14.0708 30.2 14.0708 30.2 14.0708C30.2 14.0708 30.2 14.0708 30.2 14.0708C30.2 14.0708 30.2 14.0708 30.2 14.0708C30.2 14.0708 30.2 14.0708 30.2 14.0708C30.2 14.0708 30.2 14.0707 30.2 14.0707C30.2 14.0707 30.2 14.0707 30.2 14.0707C30.2 14.0707 30.2 14.0707 30.2 14.0707C30.2 14.0707 30.2 14.0707 30.2 14.0707C30.2 14.0707 30.2 14.0707 30.2 14.0707C30.2 14.0707 30.2 14.0707 30.2 14.0707C30.2 14.0707 30.2 14.0707 30.2 14.0707C30.2 14.0707 30.2 14.0707 30.2 14.0707C30.2 14.0707 30.2 14.0707 30.2 14.0707C30.2 14.0707 30.2 14.0707 30.2 14.0707C30.2 14.0707 30.2 14.0707 30.2 14.0707C30.2 14.0707 30.2 14.0707 30.2 14.0707C30.2 14.0707 30.2 14.0707 30.2 14.0707C30.2 14.0707 30.2 14.0707 30.2 14.0707C30.2 14.0707 30.2 14.0707 30.2 14.0707C30.2 14.0707 30.2 14.0707 30.2 14.0707C30.2 14.0707 30.2 14.0707 30.2 14.0707C30.2 14.0707 30.2 14.0707 30.2 14.0707C30.2 14.0707 30.2 14.0707 30.2 14.0707C30.2 14.0707 30.2 14.0707 30.2 14.0707C30.2 14.0707 30.2 14.0707 30.2 14.0707C30.2 14.0707 30.2 14.0707 30.2 14.0707C30.2 14.0707 30.2 14.0707 30.2 14.0707C30.2 14.0707 30.2 14.0707 30.2 14.0707C30.2 14.0707 30.2 14.0707 30.2 14.0707C30.2 14.0707 30.2 14.0707 30.2 14.0707C30.2 14.0707 30.2 14.0707 30.2 14.0707C30.2 14.0707 30.2 14.0707 30.2 14.0707C30.2 14.0707 30.2 14.0707 30.2 14.0707C30.2 14.0707 30.2 14.0707 30.2 14.0707C30.2 14.0707 30.2 14.0707 30.2 14.0707C30.2 14.0707 30.2 14.0707 30.2 14.0707C30.2 14.0707 30.2 14.0707 30.2 14.0707C30.2 14.0707 30.2 14.0707 30.2 14.0707C30.2 14.0707 30.2 14.0707 30.2 14.0707C30.2 14.0707 30.2 14.0707 30.2 14.0707C30.2 14.0707 30.2 14.0707 30.2 14.0707C30.2 14.0707 30.2 14.0707 30.2 14.0707C30.2 14.0707 30.2 14.0707 30.2 14.0707C30.2 14.0707 30.2 14.0707 30.2 14.0707C30.2 14.0707 30.2 14.0707 30.2 14.0707C30.2 14.0707 30.2 14.0707 30.2 14.0707C30.2 14.0707 30.2 14.0707 30.2 14.0707C30.2 14.0707 30.2 14.0707 30.2 14.0707C30.2 14.0707 30.2 14.0707 30.2 14.0707C30.2 14.0707 30.2 14.0707 30.2 14.0707C30.2 14.0707 30.2 14.0707 30.2 14.0707C30.2 14.0707 30.2 14.0707 30.2 14.0707C30.2 14.0707 30.2 14.0707 30.2 14.0707C30.2 14.0707 30.2 14.0707 30.2 14.0707C30.2 14.0706 30.2 14.0706 30.2 14.0706C30.2 14.0706 30.2 14.0706 30.2 14.0706C30.2 14.0706 30.2 14.0706 30.2 14.0706C30.2 14.0706 30.2 14.0706 30.2 14.0706C30.2 14.0706 30.2 14.0706 30.2 14.0706C30.2 14.0706 30.2 14.0706 30.2 14.0706C30.2 14.0706 30.2 14.0706 30.2 14.0706C30.2 14.0706 30.2 14.0706 30.2 14.0706C30.2 14.0706 30.2 14.0706 30.2 14.0706C30.2 14.0706 30.2 14.0706 30.2 14.0706C30.2 14.0706 30.2 14.0706 30.2 14.0706C30.2 14.0706 30.2 14.0706 30.2 14.0706C30.2 14.0706 30.2 14.0706 30.2 14.0706C30.2 14.0706 30.2 14.0706 30.2 14.0706C30.2 14.0706 30.2 14.0706 30.2 14.0706C30.2 14.0706 30.2 14.0706 30.2 14.0706C30.2 14.0706 30.2 14.0706 30.2 14.0706C30.2 14.0706 30.2 14.0706 30.2 14.0706C30.2 14.0706 30.2 14.0706 30.2 14.0706C30.2 14.0706 30.2 14.0706 30.2 14.0706C30.2 14.0706 30.2 14.0706 30.2 14.0706C30.2 14.0706 30.2 14.0706 30.2 14.0706C30.2 14.0706 30.2 14.0706 30.2 14.0706C30.2 14.0706 30.2 14.0706 30.2 14.0706C30.2 14.0706 30.2 14.0706 30.2 14.0706C30.2 14.0706 30.2 14.0706 30.2 14.0706C30.2 14.0706 30.2 14.0706 30.2 14.0706C30.2 14.0706 30.2 14.0706 30.2 14.0706C30.2 14.0706 30.2 14.0706 30.2 14.0706C30.2 14.0706 30.2 14.0706 30.2 14.0706C30.2 14.0706 30.2 14.0706 30.2 14.0706C30.2 14.0706 30.2 14.0706 30.2 14.0706C30.2 14.0706 30.2 14.0706 30.2 14.0706C30.2 14.0706 30.2 14.0706 30.2 14.0706C30.2 14.0706 30.2 14.0706 30.2 14.0706C30.2 14.0706 30.2 14.0706 30.2 14.0706C30.2 14.0706 30.2 14.0706 30.2 14.0706C30.2 14.0706 30.2 14.0706 30.2 14.0706C30.2 14.0706 30.2 14.0706 30.2 14.0706C30.2 14.0706 30.2 14.0706 30.2 14.0706C30.2 14.0706 30.2 14.0706 30.2 14.0706C30.2 14.0706 30.2 14.0706 30.2 14.0706C30.2 14.0706 30.2 14.0706 30.2 14.0706C30.2 14.0706 30.2 14.0706 30.2 14.0706C30.2 14.0706 30.2 14.0706 30.2 14.0706C30.2 14.0706 30.2 14.0706 30.2 14.0706C30.2 14.0706 30.2 14.0706 30.2 14.0706C30.2 14.0706 30.2 14.0706 30.2 14.0705C30.2 14.0705 30.2 14.0705 30.2 14.0705C30.2 14.0705 30.2 14.0705 30.2 14.0705C30.2 14.0705 30.2 14.0705 30.2 14.0705C30.2 14.0705 30.2 14.0705 30.2 14.0705C30.2 14.0705 30.2 14.0705 30.2 14.0705C30.2 14.0705 30.2 14.0705 30.2 14.0705C30.2 14.0705 30.2 14.0705 30.2 14.0705C30.2 14.0705 30.2 14.0705 30.2 14.0705C30.2 14.0705 30.2 14.0705 30.2 14.0705C30.2 14.0705 30.2 14.0705 30.2 14.0705C30.2 14.0705 30.2 14.0705 30.2 14.0705C30.2 14.0705 30.2 14.0705 30.2 14.0705C30.2 14.0705 30.2 14.0705 30.2 14.0705C30.2 14.0705 30.2 14.0705 30.2 14.0705C30.2 14.0705 30.2 14.0705 30.2 14.0705C30.2 14.0705 30.2 14.0705 30.2 14.0705C30.2 14.0705 30.2 14.0705 30.2 14.0705C30.2 14.0705 30.2 14.0705 30.2 14.0705C30.2 14.0705 30.2 14.0705 30.2 14.0705C30.2 14.0705 30.2 14.0705 30.2 14.0705C30.2 14.0705 30.2 14.0705 30.2 14.0705C30.2 14.0705 30.2 14.0705 30.2 14.0705C30.2 14.0705 30.2 14.0705 30.2 14.0705C30.2 14.0705 30.2 14.0705 30.2 14.0705C30.2 14.0705 30.2 14.0705 30.2 14.0705C30.2 14.0705 30.2 14.0705 30.2 14.0705C30.2 14.0705 30.2 14.0705 30.2 14.0705C30.2 14.0705 30.2 14.0705 30.2 14.0705C30.2 14.0705 30.2 14.0705 30.2 14.0705C30.2 14.0705 30.2 14.0705 30.2 14.0705C30.2 14.0705 30.2 14.0705 30.2 14.0705C30.2 14.0705 30.2 14.0705 30.2 14.0705C30.2 14.0705 30.2 14.0705 30.2 14.0705C30.2 14.0705 30.2 14.0705 30.2 14.0705C30.2 14.0705 30.2 14.0705 30.2 14.0705C30.2 14.0705 30.2 14.0705 30.2 14.0705C30.2 14.0705 30.2 14.0705 30.2 14.0705C30.2 14.0705 30.2 14.0705 30.2 14.0705C30.2 14.0705 30.2 14.0705 30.2 14.0705C30.2 14.0705 30.2 14.0705 30.2 14.0705C30.2 14.0705 30.2 14.0705 30.2 14.0705C30.2 14.0705 30.2 14.0705 30.2 14.0705C30.2 14.0705 30.2 14.0705 30.2 14.0705C30.2 14.0705 30.2 14.0705 30.2 14.0705C30.2 14.0705 30.2 14.0705 30.2 14.0705C30.2 14.0705 30.2 14.0705 30.2 14.0705C30.2 14.0705 30.2 14.0705 30.2 14.0705C30.2 14.0705 30.2 14.0705 30.2 14.0705C30.2 14.0705 30.2 14.0704 30.2 14.0704C30.2 14.0704 30.2 14.0704 30.2 14.0704C30.2 14.0704 30.2 14.0704 30.2 14.0704C30.2 14.0704 30.2 14.0704 30.2 14.0704C30.2 14.0704 30.2 14.0704 30.2 14.0704C30.2 14.0704 30.2 14.0704 30.2 14.0704C30.2 14.0704 30.2 14.0704 30.2 14.0704C30.2 14.0704 30.2 14.0704 30.2 14.0704C30.2 14.0704 30.2 14.0704 30.2 14.0704C30.2 14.0704 30.2 14.0704 30.2 14.0704C30.2 14.0704 30.2 14.0704 30.2 14.0704C30.2 14.0704 30.2 14.0704 30.2 14.0704C30.2 14.0704 30.2 14.0704 30.2 14.0704C30.2 14.0704 30.2 14.0704 30.2 14.0704C30.2 14.0704 30.2 14.0704 30.2 14.0704C30.2 14.0704 30.2 14.0704 30.2 14.0704C30.2 14.0704 30.2 14.0704 30.2 14.0704C30.2 14.0704 30.2 14.0704 30.2 14.0704C30.2 14.0704 30.2 14.0704 30.2 14.0704C30.2 14.0704 30.2 14.0704 30.2 14.0704C30.2 14.0704 30.2 14.0704 30.2 14.0704C30.2 14.0704 30.2 14.0704 30.2 14.0704C30.2 14.0704 30.2 14.0704 30.2 14.0704C30.2 14.0704 30.2 14.0704 30.2 14.0704C30.2 14.0704 30.2 14.0704 30.2 14.0704C30.2 14.0704 30.2 14.0704 30.2 14.0704C30.2 14.0704 30.2 14.0704 30.2 14.0704C30.2 14.0704 30.2 14.0704 30.2 14.0704C30.2 14.0704 30.2 14.0704 30.2 14.0704C30.2 14.0704 30.2 14.0704 30.2 14.0704C30.2 14.0704 30.2 14.0704 30.2 14.0704C30.2 14.0704 30.2 14.0704 30.2 14.0704C30.2 14.0704 30.2 14.0704 30.2 14.0704C30.2 14.0704 30.2 14.0704 30.2 14.0704C30.2 14.0704 30.2 14.0704 30.2 14.0704C30.2 14.0704 30.2 14.0704 30.2 14.0704C30.2 14.0704 30.2 14.0704 30.2 14.0704C30.2 14.0704 30.2 14.0704 30.2 14.0704C30.2 14.0704 30.2 14.0704 30.2 14.0704C30.2 14.0704 30.2 14.0704 30.2 14.0704C30.2 14.0704 30.2 14.0704 30.2 14.0704C30.2 14.0704 30.2 14.0704 30.2 14.0704C30.2 14.0704 30.2 14.0704 30.2 14.0704C30.2 14.0704 30.2 14.0704 30.2 14.0704C30.2 14.0704 30.2 14.0704 30.2 14.0704V14.0704C30.2 14.0704 30.2 14.0704 30.2 14.0704C30.2 14.0704 30.2 14.0704 30.2 14.0704C30.2 14.0704 30.2 14.0704 30.2 14.0704C30.2 14.0704 30.2 14.0704 30.2 14.0704C30.2 14.0704 30.2 14.0704 30.2 14.0704C30.2 14.0704 30.2 14.0704 30.2 14.0704C30.2 14.0703 30.2 14.0703 30.2 14.0703C30.2 14.0703 30.2 14.0703 30.2 14.0703C30.2 14.0703 30.2 14.0703 30.2 14.0703C30.2 14.0703 30.2 14.0703 30.2 14.0703C30.2 14.0703 30.2 14.0703 30.2 14.0703C30.2 14.0703 30.2 14.0703 30.2 14.0703C30.2 14.0703 30.2 14.0703 30.2 14.0703V14.0703C30.2 14.0703 30.2 14.0703 30.2 14.0703C30.2 14.0703 30.2 14.0703 30.2 14.0703C30.2 14.0703 30.2 14.0703 30.2 14.0703C30.2 14.0703 30.2 14.0703 30.2 14.0703C30.2 14.0703 30.2 14.0703 30.2 14.0703C30.2 14.0703 30.2 14.0703 30.2 14.0703C30.2 14.0703 30.2 14.0703 30.2 14.0703V14.0703C30.2 14.0703 30.2 14.0703 30.2 14.0703C30.2 14.0703 30.2 14.0703 30.2 14.0703C30.2 14.0703 30.2 14.0703 30.2 14.0703C30.2 14.0703 30.2 14.0703 30.2 14.0703C30.2 14.0703 30.2 14.0703 30.2 14.0703V14.0703C30.2 14.0703 30.2 14.0703 30.2 14.0703C30.2 14.0703 30.2 14.0703 30.2 14.0703C30.2 14.0703 30.2 14.0703 30.2 14.0703C30.2 14.0703 30.2 14.0703 30.2 14.0703C30.2 14.0703 30.2 14.0703 30.2 14.0703V14.0703C30.2 14.0703 30.2 14.0703 30.2 14.0703C30.2 14.0703 30.2 14.0703 30.2 14.0703C30.2 14.0703 30.2 14.0703 30.2 14.0703V14.0703C30.2 14.0703 30.2 14.0703 30.2 14.0703C30.2 14.0703 30.2 14.0703 30.2 14.0703C30.2 14.0703 30.2 14.0703 30.2 14.0703V14.0703C30.2 14.0703 30.2 14.0703 30.2 14.0703C30.2 14.0703 30.2 14.0703 30.2 14.0703C30.2 14.0703 30.2 14.0703 30.2 14.0703V14.0703C30.2 14.0703 30.2 14.0703 30.2 14.0703C30.2 14.0703 30.2 14.0703 30.2 14.0703V14.0703C30.2 14.0703 30.2 14.0703 30.2 14.0703C30.2 14.0703 30.2 14.0703 30.2 14.0703C30.2 14.0703 30.2 14.0703 30.2 14.0703V14.0703C30.2 14.0703 30.2 14.0703 30.2 14.0703C30.2 14.0703 30.2 14.0703 30.2 14.0703V14.0703C30.2 14.0703 30.2 14.0703 30.2 14.0703C30.2 14.0703 30.2 14.0703 30.2 14.0703V14.0703C30.2 14.0703 30.2 14.0703 30.2 14.0703V14.0703C30.2 14.0703 30.2 14.0703 30.2 14.0703C30.2 14.0703 30.2 14.0703 30.2 14.0703V14.0703C30.2 14.0703 30.2 14.0703 30.2 14.0703V14.0702C30.2 14.0702 30.2 14.0702 30.2 14.0702C30.2 14.0702 30.2 14.0702 30.2 14.0702V14.0702C30.2 14.0702 30.2 14.0702 30.2 14.0702V14.0702C30.2 14.0702 30.2 14.0702 30.2 14.0702V14.0702C30.2 14.0702 30.2 14.0702 30.2 14.0702V14.0702C30.2 14.0702 30.2 14.0702 30.2 14.0702C30.2 14.0702 30.2 14.0702 30.2 14.0702V14.0702C30.2 14.0702 30.2 14.0702 30.2 14.0702V14.0702V14.0702C30.2 14.0702 30.2 14.0702 30.2 14.0702V14.0702C30.2 14.0702 30.2 14.0702 30.2 14.0702V14.0702C30.2 14.0702 30.2 14.0702 30.2 14.0702V14.0702C30.2 14.0702 30.2 14.0702 30.2 14.0702V14.0702C30.2 14.0702 30.2 14.0702 30.2 14.0702C30.2 14.0702 30.2 14.0702 30.2 14.0702V14.0702C30.2 14.0702 30.2 14.0702 30.2 14.0702V14.0702C30.2 14.0702 30.2 14.0702 30.2 14.0702C30.2 14.0702 30.2 14.0702 30.2 14.0702V14.0702C30.2 14.0702 30.2 14.0702 30.2 14.0702C30.2 14.0702 30.2 14.0702 30.2 14.0702V14.0702C30.2 14.0702 30.2 14.0702 30.2 14.0702C30.2 14.0702 30.2 14.0702 30.2 14.0702V14.0702C30.2 14.0702 30.2 14.0702 30.2 14.0702C30.2 14.0702 30.2 14.0702 30.2 14.0702V14.0702V14.0702C30.2 14.0702 30.2 14.0702 30.2 14.0702C30.2 14.0702 30.2 14.0702 30.2 14.0702V14.0702V14.0702C30.2 14.0702 30.2 14.0702 30.2 14.0702C30.2 14.0702 30.2 14.0702 30.2 14.0702V14.0702V14.0702C30.2 14.0702 30.2 14.0702 30.2 14.0702C30.2 14.0702 30.2 14.0702 30.2 14.0702C30.2 14.0702 30.2 14.0702 30.2 14.0702V14.0702V14.0702V14.0702C30.2 14.0702 30.2 14.0702 30.2 14.0702C30.2 14.0702 30.2 14.0702 30.2 14.0702C30.2 14.0702 30.2 14.0702 30.2 14.0702C30.2 14.0702 30.2 14.0702 30.2 14.0702C30.2 14.0702 30.2 14.0702 30.2 14.0702V14.0702V14.0702V14.0702V14.0702C30.2 14.0702 30.2 14.0702 30.2 14.0702C30.2 14.0702 30.2 14.0702 30.2 14.0702C30.2 14.0702 30.2 14.0702 30.2 14.0702C30.2 14.0702 30.2 14.0702 30.2 14.0702C30.2 14.0702 30.2 14.0702 30.2 14.0702C30.2 14.0702 30.2 14.0702 30.2 14.0702C30.2 14.0702 30.2 14.0702 30.2 14.0702C30.2 14.0702 30.2 14.0702 30.2 14.0702C30.2 14.0702 30.2 14.0702 30.2 14.0702C30.2 14.0702 30.2 14.0702 30.2 14.0702C30.2 14.0702 30.2 14.0702 30.2 14.0702C30.2 14.0702 30.2 14.0702 30.2 14.0702C30.2 14.0702 30.2 14.0702 30.2 14.0702V14.0702V14.0702V14.0702V14.0702C30.2 14.0702 30.2 14.0702 30.2 14.0702C30.2 14.0702 30.2 14.0702 30.2 14.0701H29.8C29.8 14.0702 29.8 14.0702 29.8 14.0702C29.8 14.0702 29.8 14.0702 29.8 14.0702V14.0702V14.0702V14.0702V14.0702C29.8 14.0702 29.8 14.0702 29.8 14.0702C29.8 14.0702 29.8 14.0702 29.8 14.0702C29.8 14.0702 29.8 14.0702 29.8 14.0702C29.8 14.0702 29.8 14.0702 29.8 14.0702C29.8 14.0702 29.8 14.0702 29.8 14.0702C29.8 14.0702 29.8 14.0702 29.8 14.0702C29.8 14.0702 29.8 14.0702 29.8 14.0702C29.8 14.0702 29.8 14.0702 29.8 14.0702C29.8 14.0702 29.8 14.0702 29.8 14.0702C29.8 14.0702 29.8 14.0702 29.8 14.0702C29.8 14.0702 29.8 14.0702 29.8 14.0702C29.8 14.0702 29.8 14.0702 29.8 14.0702C29.8 14.0702 29.8 14.0702 29.8 14.0702V14.0702V14.0702V14.0702V14.0702C29.8 14.0702 29.8 14.0702 29.8 14.0702C29.8 14.0702 29.8 14.0702 29.8 14.0702C29.8 14.0702 29.8 14.0702 29.8 14.0702C29.8 14.0702 29.8 14.0702 29.8 14.0702C29.8 14.0702 29.8 14.0702 29.8 14.0702V14.0702V14.0702V14.0702C29.8 14.0702 29.8 14.0702 29.8 14.0702C29.8 14.0702 29.8 14.0702 29.8 14.0702C29.8 14.0702 29.8 14.0702 29.8 14.0702V14.0702V14.0702C29.8 14.0702 29.8 14.0702 29.8 14.0702C29.8 14.0702 29.8 14.0702 29.8 14.0702V14.0702V14.0702C29.8 14.0702 29.8 14.0702 29.8 14.0702C29.8 14.0702 29.8 14.0702 29.8 14.0702V14.0702V14.0702C29.8 14.0702 29.8 14.0702 29.8 14.0702C29.8 14.0702 29.8 14.0702 29.8 14.0702V14.0702C29.8 14.0702 29.8 14.0702 29.8 14.0702C29.8 14.0702 29.8 14.0702 29.8 14.0702V14.0702C29.8 14.0702 29.8 14.0702 29.8 14.0702C29.8 14.0702 29.8 14.0702 29.8 14.0702V14.0702C29.8 14.0702 29.8 14.0702 29.8 14.0702C29.8 14.0702 29.8 14.0702 29.8 14.0702V14.0702C29.8 14.0702 29.8 14.0702 29.8 14.0702V14.0702C29.8 14.0702 29.8 14.0702 29.8 14.0702C29.8 14.0702 29.8 14.0702 29.8 14.0702V14.0702C29.8 14.0702 29.8 14.0702 29.8 14.0702V14.0702C29.8 14.0702 29.8 14.0702 29.8 14.0702V14.0702C29.8 14.0702 29.8 14.0702 29.8 14.0702V14.0702C29.8 14.0702 29.8 14.0702 29.8 14.0702V14.0702V14.0702C29.8 14.0702 29.8 14.0702 29.8 14.0702V14.0702C29.8 14.0702 29.8 14.0702 29.8 14.0702C29.8 14.0702 29.8 14.0702 29.8 14.0702V14.0702C29.8 14.0702 29.8 14.0702 29.8 14.0702V14.0702C29.8 14.0702 29.8 14.0702 29.8 14.0702V14.0702C29.8 14.0702 29.8 14.0702 29.8 14.0702V14.0702C29.8 14.0702 29.8 14.0702 29.8 14.0702C29.8 14.0702 29.8 14.0702 29.8 14.0702V14.0703C29.8 14.0703 29.8 14.0703 29.8 14.0703V14.0703C29.8 14.0703 29.8 14.0703 29.8 14.0703C29.8 14.0703 29.8 14.0703 29.8 14.0703V14.0703C29.8 14.0703 29.8 14.0703 29.8 14.0703V14.0703C29.8 14.0703 29.8 14.0703 29.8 14.0703C29.8 14.0703 29.8 14.0703 29.8 14.0703V14.0703C29.8 14.0703 29.8 14.0703 29.8 14.0703C29.8 14.0703 29.8 14.0703 29.8 14.0703V14.0703C29.8 14.0703 29.8 14.0703 29.8 14.0703C29.8 14.0703 29.8 14.0703 29.8 14.0703C29.8 14.0703 29.8 14.0703 29.8 14.0703V14.0703C29.8 14.0703 29.8 14.0703 29.8 14.0703C29.8 14.0703 29.8 14.0703 29.8 14.0703V14.0703C29.8 14.0703 29.8 14.0703 29.8 14.0703C29.8 14.0703 29.8 14.0703 29.8 14.0703C29.8 14.0703 29.8 14.0703 29.8 14.0703V14.0703C29.8 14.0703 29.8 14.0703 29.8 14.0703C29.8 14.0703 29.8 14.0703 29.8 14.0703C29.8 14.0703 29.8 14.0703 29.8 14.0703V14.0703C29.8 14.0703 29.8 14.0703 29.8 14.0703C29.8 14.0703 29.8 14.0703 29.8 14.0703C29.8 14.0703 29.8 14.0703 29.8 14.0703V14.0703C29.8 14.0703 29.8 14.0703 29.8 14.0703C29.8 14.0703 29.8 14.0703 29.8 14.0703C29.8 14.0703 29.8 14.0703 29.8 14.0703C29.8 14.0703 29.8 14.0703 29.8 14.0703C29.8 14.0703 29.8 14.0703 29.8 14.0703V14.0703C29.8 14.0703 29.8 14.0703 29.8 14.0703C29.8 14.0703 29.8 14.0703 29.8 14.0703C29.8 14.0703 29.8 14.0703 29.8 14.0703C29.8 14.0703 29.8 14.0703 29.8 14.0703C29.8 14.0703 29.8 14.0703 29.8 14.0703V14.0703C29.8 14.0703 29.8 14.0703 29.8 14.0703C29.8 14.0703 29.8 14.0703 29.8 14.0703C29.8 14.0703 29.8 14.0703 29.8 14.0703C29.8 14.0703 29.8 14.0703 29.8 14.0703C29.8 14.0703 29.8 14.0703 29.8 14.0703C29.8 14.0703 29.8 14.0703 29.8 14.0703C29.8 14.0703 29.8 14.0703 29.8 14.0703V14.0703C29.8 14.0703 29.8 14.0703 29.8 14.0703C29.8 14.0703 29.8 14.0703 29.8 14.0703C29.8 14.0703 29.8 14.0703 29.8 14.0703C29.8 14.0703 29.8 14.0703 29.8 14.0703C29.8 14.0703 29.8 14.0703 29.8 14.0703C29.8 14.0703 29.8 14.0703 29.8 14.0703C29.8 14.0703 29.8 14.0703 29.8 14.0704C29.8 14.0704 29.8 14.0704 29.8 14.0704C29.8 14.0704 29.8 14.0704 29.8 14.0704C29.8 14.0704 29.8 14.0704 29.8 14.0704C29.8 14.0704 29.8 14.0704 29.8 14.0704C29.8 14.0704 29.8 14.0704 29.8 14.0704C29.8 14.0704 29.8 14.0704 29.8 14.0704V14.0704C29.8 14.0704 29.8 14.0704 29.8 14.0704C29.8 14.0704 29.8 14.0704 29.8 14.0704C29.8 14.0704 29.8 14.0704 29.8 14.0704C29.8 14.0704 29.8 14.0704 29.8 14.0704C29.8 14.0704 29.8 14.0704 29.8 14.0704C29.8 14.0704 29.8 14.0704 29.8 14.0704C29.8 14.0704 29.8 14.0704 29.8 14.0704C29.8 14.0704 29.8 14.0704 29.8 14.0704C29.8 14.0704 29.8 14.0704 29.8 14.0704C29.8 14.0704 29.8 14.0704 29.8 14.0704C29.8 14.0704 29.8 14.0704 29.8 14.0704C29.8 14.0704 29.8 14.0704 29.8 14.0704C29.8 14.0704 29.8 14.0704 29.8 14.0704C29.8 14.0704 29.8 14.0704 29.8 14.0704C29.8 14.0704 29.8 14.0704 29.8 14.0704C29.8 14.0704 29.8 14.0704 29.8 14.0704C29.8 14.0704 29.8 14.0704 29.8 14.0704C29.8 14.0704 29.8 14.0704 29.8 14.0704C29.8 14.0704 29.8 14.0704 29.8 14.0704C29.8 14.0704 29.8 14.0704 29.8 14.0704C29.8 14.0704 29.8 14.0704 29.8 14.0704C29.8 14.0704 29.8 14.0704 29.8 14.0704C29.8 14.0704 29.8 14.0704 29.8 14.0704C29.8 14.0704 29.8 14.0704 29.8 14.0704C29.8 14.0704 29.8 14.0704 29.8 14.0704C29.8 14.0704 29.8 14.0704 29.8 14.0704C29.8 14.0704 29.8 14.0704 29.8 14.0704C29.8 14.0704 29.8 14.0704 29.8 14.0704C29.8 14.0704 29.8 14.0704 29.8 14.0704C29.8 14.0704 29.8 14.0704 29.8 14.0704C29.8 14.0704 29.8 14.0704 29.8 14.0704C29.8 14.0704 29.8 14.0704 29.8 14.0704C29.8 14.0704 29.8 14.0704 29.8 14.0704C29.8 14.0704 29.8 14.0704 29.8 14.0704C29.8 14.0704 29.8 14.0704 29.8 14.0704C29.8 14.0704 29.8 14.0704 29.8 14.0704C29.8 14.0704 29.8 14.0704 29.8 14.0704C29.8 14.0704 29.8 14.0704 29.8 14.0704C29.8 14.0704 29.8 14.0704 29.8 14.0704C29.8 14.0704 29.8 14.0704 29.8 14.0704C29.8 14.0704 29.8 14.0704 29.8 14.0704C29.8 14.0704 29.8 14.0704 29.8 14.0704C29.8 14.0704 29.8 14.0704 29.8 14.0704C29.8 14.0704 29.8 14.0704 29.8 14.0704C29.8 14.0704 29.8 14.0705 29.8 14.0705C29.8 14.0705 29.8 14.0705 29.8 14.0705C29.8 14.0705 29.8 14.0705 29.8 14.0705C29.8 14.0705 29.8 14.0705 29.8 14.0705C29.8 14.0705 29.8 14.0705 29.8 14.0705C29.8 14.0705 29.8 14.0705 29.8 14.0705C29.8 14.0705 29.8 14.0705 29.8 14.0705C29.8 14.0705 29.8 14.0705 29.8 14.0705C29.8 14.0705 29.8 14.0705 29.8 14.0705C29.8 14.0705 29.8 14.0705 29.8 14.0705C29.8 14.0705 29.8 14.0705 29.8 14.0705C29.8 14.0705 29.8 14.0705 29.8 14.0705C29.8 14.0705 29.8 14.0705 29.8 14.0705C29.8 14.0705 29.8 14.0705 29.8 14.0705C29.8 14.0705 29.8 14.0705 29.8 14.0705C29.8 14.0705 29.8 14.0705 29.8 14.0705C29.8 14.0705 29.8 14.0705 29.8 14.0705C29.8 14.0705 29.8 14.0705 29.8 14.0705C29.8 14.0705 29.8 14.0705 29.8 14.0705C29.8 14.0705 29.8 14.0705 29.8 14.0705C29.8 14.0705 29.8 14.0705 29.8 14.0705C29.8 14.0705 29.8 14.0705 29.8 14.0705C29.8 14.0705 29.8 14.0705 29.8 14.0705C29.8 14.0705 29.8 14.0705 29.8 14.0705C29.8 14.0705 29.8 14.0705 29.8 14.0705C29.8 14.0705 29.8 14.0705 29.8 14.0705C29.8 14.0705 29.8 14.0705 29.8 14.0705C29.8 14.0705 29.8 14.0705 29.8 14.0705C29.8 14.0705 29.8 14.0705 29.8 14.0705C29.8 14.0705 29.8 14.0705 29.8 14.0705C29.8 14.0705 29.8 14.0705 29.8 14.0705C29.8 14.0705 29.8 14.0705 29.8 14.0705C29.8 14.0705 29.8 14.0705 29.8 14.0705C29.8 14.0705 29.8 14.0705 29.8 14.0705C29.8 14.0705 29.8 14.0705 29.8 14.0705C29.8 14.0705 29.8 14.0705 29.8 14.0705C29.8 14.0705 29.8 14.0705 29.8 14.0705C29.8 14.0705 29.8 14.0705 29.8 14.0705C29.8 14.0705 29.8 14.0705 29.8 14.0705C29.8 14.0705 29.8 14.0705 29.8 14.0705C29.8 14.0705 29.8 14.0705 29.8 14.0705C29.8 14.0705 29.8 14.0705 29.8 14.0705C29.8 14.0705 29.8 14.0705 29.8 14.0705C29.8 14.0705 29.8 14.0705 29.8 14.0705C29.8 14.0705 29.8 14.0705 29.8 14.0705C29.8 14.0705 29.8 14.0705 29.8 14.0705C29.8 14.0705 29.8 14.0705 29.8 14.0705C29.8 14.0705 29.8 14.0705 29.8 14.0705C29.8 14.0705 29.8 14.0705 29.8 14.0705C29.8 14.0706 29.8 14.0706 29.8 14.0706C29.8 14.0706 29.8 14.0706 29.8 14.0706C29.8 14.0706 29.8 14.0706 29.8 14.0706C29.8 14.0706 29.8 14.0706 29.8 14.0706C29.8 14.0706 29.8 14.0706 29.8 14.0706C29.8 14.0706 29.8 14.0706 29.8 14.0706C29.8 14.0706 29.8 14.0706 29.8 14.0706C29.8 14.0706 29.8 14.0706 29.8 14.0706C29.8 14.0706 29.8 14.0706 29.8 14.0706C29.8 14.0706 29.8 14.0706 29.8 14.0706C29.8 14.0706 29.8 14.0706 29.8 14.0706C29.8 14.0706 29.8 14.0706 29.8 14.0706C29.8 14.0706 29.8 14.0706 29.8 14.0706C29.8 14.0706 29.8 14.0706 29.8 14.0706C29.8 14.0706 29.8 14.0706 29.8 14.0706C29.8 14.0706 29.8 14.0706 29.8 14.0706C29.8 14.0706 29.8 14.0706 29.8 14.0706C29.8 14.0706 29.8 14.0706 29.8 14.0706C29.8 14.0706 29.8 14.0706 29.8 14.0706C29.8 14.0706 29.8 14.0706 29.8 14.0706C29.8 14.0706 29.8 14.0706 29.8 14.0706C29.8 14.0706 29.8 14.0706 29.8 14.0706C29.8 14.0706 29.8 14.0706 29.8 14.0706C29.8 14.0706 29.8 14.0706 29.8 14.0706C29.8 14.0706 29.8 14.0706 29.8 14.0706C29.8 14.0706 29.8 14.0706 29.8 14.0706C29.8 14.0706 29.8 14.0706 29.8 14.0706C29.8 14.0706 29.8 14.0706 29.8 14.0706C29.8 14.0706 29.8 14.0706 29.8 14.0706C29.8 14.0706 29.8 14.0706 29.8 14.0706C29.8 14.0706 29.8 14.0706 29.8 14.0706C29.8 14.0706 29.8 14.0706 29.8 14.0706C29.8 14.0706 29.8 14.0706 29.8 14.0706C29.8 14.0706 29.8 14.0706 29.8 14.0706C29.8 14.0706 29.8 14.0706 29.8 14.0706C29.8 14.0706 29.8 14.0706 29.8 14.0706C29.8 14.0706 29.8 14.0706 29.8 14.0706C29.8 14.0706 29.8 14.0706 29.8 14.0706C29.8 14.0706 29.8 14.0706 29.8 14.0706C29.8 14.0706 29.8 14.0706 29.8 14.0706C29.8 14.0706 29.8 14.0706 29.8 14.0706C29.8 14.0706 29.8 14.0706 29.8 14.0706C29.8 14.0706 29.8 14.0706 29.8 14.0706C29.8 14.0706 29.8 14.0706 29.8 14.0706C29.8 14.0706 29.8 14.0706 29.8 14.0706C29.8 14.0706 29.8 14.0706 29.8 14.0706C29.8 14.0706 29.8 14.0706 29.8 14.0706C29.8 14.0706 29.8 14.0706 29.8 14.0707C29.8 14.0707 29.8 14.0707 29.8 14.0707C29.8 14.0707 29.8 14.0707 29.8 14.0707C29.8 14.0707 29.8 14.0707 29.8 14.0707C29.8 14.0707 29.8 14.0707 29.8 14.0707C29.8 14.0707 29.8 14.0707 29.8 14.0707C29.8 14.0707 29.8 14.0707 29.8 14.0707C29.8 14.0707 29.8 14.0707 29.8 14.0707C29.8 14.0707 29.8 14.0707 29.8 14.0707C29.8 14.0707 29.8 14.0707 29.8 14.0707C29.8 14.0707 29.8 14.0707 29.8 14.0707C29.8 14.0707 29.8 14.0707 29.8 14.0707C29.8 14.0707 29.8 14.0707 29.8 14.0707C29.8 14.0707 29.8 14.0707 29.8 14.0707C29.8 14.0707 29.8 14.0707 29.8 14.0707C29.8 14.0707 29.8 14.0707 29.8 14.0707C29.8 14.0707 29.8 14.0707 29.8 14.0707C29.8 14.0707 29.8 14.0707 29.8 14.0707C29.8 14.0707 29.8 14.0707 29.8 14.0707C29.8 14.0707 29.8 14.0707 29.8 14.0707C29.8 14.0707 29.8 14.0707 29.8 14.0707C29.8 14.0707 29.8 14.0707 29.8 14.0707C29.8 14.0707 29.8 14.0707 29.8 14.0707C29.8 14.0707 29.8 14.0707 29.8 14.0707C29.8 14.0707 29.8 14.0707 29.8 14.0707C29.8 14.0707 29.8 14.0707 29.8 14.0707C29.8 14.0707 29.8 14.0707 29.8 14.0707C29.8 14.0707 29.8 14.0707 29.8 14.0707C29.8 14.0707 29.8 14.0707 29.8 14.0707C29.8 14.0707 29.8 14.0707 29.8 14.0707C29.8 14.0707 29.8 14.0707 29.8 14.0707C29.8 14.0707 29.8 14.0707 29.8 14.0707C29.8 14.0707 29.8 14.0707 29.8 14.0707C29.8 14.0707 29.8 14.0707 29.8 14.0707C29.8 14.0707 29.8 14.0707 29.8 14.0707C29.8 14.0707 29.8 14.0707 29.8 14.0707C29.8 14.0707 29.8 14.0707 29.8 14.0707C29.8 14.0707 29.8 14.0707 29.8 14.0707C29.8 14.0707 29.8 14.0707 29.8 14.0707C29.8 14.0707 29.8 14.0707 29.8 14.0707C29.8 14.0707 29.8 14.0707 29.8 14.0707C29.8 14.0707 29.8 14.0707 29.8 14.0707C29.8 14.0707 29.8 14.0707 29.8 14.0707C29.8 14.0707 29.8 14.0707 29.8 14.0707C29.8 14.0707 29.8 14.0707 29.8 14.0707C29.8 14.0707 29.8 14.0707 29.8 14.0707C29.8 14.0707 29.8 14.0707 29.8 14.0707C29.8 14.0707 29.8 14.0707 29.8 14.0707C29.8 14.0707 29.8 14.0707 29.8 14.0707C29.8 14.0707 29.8 14.0707 29.8 14.0707C29.8 14.0707 29.8 14.0708 29.8 14.0708C29.8 14.0708 29.8 14.0708 29.8 14.0708C29.8 14.0708 29.8 14.0708 29.8 14.0708C29.8 14.0708 29.8 14.0708 29.8 14.0708C29.8 14.0708 29.8 14.0708 29.8 14.0708C29.8 14.0708 29.8 14.0708 29.8 14.0708C29.8 14.0708 29.8 14.0708 29.8 14.0708C29.8 14.0708 29.8 14.0708 29.8 14.0708C29.8 14.0708 29.8 14.0708 29.8 14.0708C29.8 14.0708 29.8 14.0708 29.8 14.0708C29.8 14.0708 29.8 14.0708 29.8 14.0708C29.8 14.0708 29.8 14.0708 29.8 14.0708C29.8 14.0708 29.8 14.0708 29.8 14.0708C29.8 14.0708 29.8 14.0708 29.8 14.0708C29.8 14.0708 29.8 14.0708 29.8 14.0708V14.0708C29.8 14.0708 29.8 14.0708 29.8 14.0708C29.8 14.0708 29.8 14.0708 29.8 14.0708C29.8 14.0708 29.8 14.0708 29.8 14.0708C29.8 14.0708 29.8 14.0708 29.8 14.0708C29.8 14.0708 29.8 14.0708 29.8 14.0708C29.8 14.0708 29.8 14.0708 29.8 14.0708C29.8 14.0708 29.8 14.0708 29.8 14.0708C29.8 14.0708 29.8 14.0708 29.8 14.0708C29.8 14.0708 29.8 14.0708 29.8 14.0708C29.8 14.0708 29.8 14.0708 29.8 14.0708C29.8 14.0708 29.8 14.0708 29.8 14.0708C29.8 14.0708 29.8 14.0708 29.8 14.0708C29.8 14.0708 29.8 14.0708 29.8 14.0708C29.8 14.0708 29.8 14.0708 29.8 14.0708C29.8 14.0708 29.8 14.0708 29.8 14.0708C29.8 14.0708 29.8 14.0708 29.8 14.0708C29.8 14.0708 29.8 14.0708 29.8 14.0708C29.8 14.0708 29.8 14.0708 29.8 14.0708V14.0708C29.8 14.0708 29.8 14.0708 29.8 14.0708C29.8 14.0708 29.8 14.0708 29.8 14.0708C29.8 14.0708 29.8 14.0708 29.8 14.0708C29.8 14.0708 29.8 14.0708 29.8 14.0708C29.8 14.0708 29.8 14.0708 29.8 14.0708C29.8 14.0708 29.8 14.0708 29.8 14.0708C29.8 14.0708 29.8 14.0708 29.8 14.0708C29.8 14.0708 29.8 14.0708 29.8 14.0708V14.0708C29.8 14.0708 29.8 14.0708 29.8 14.0708C29.8 14.0708 29.8 14.0708 29.8 14.0708C29.8 14.0708 29.8 14.0708 29.8 14.0708C29.8 14.0708 29.8 14.0708 29.8 14.0708C29.8 14.0708 29.8 14.0708 29.8 14.0708V14.0708C29.8 14.0708 29.8 14.0708 29.8 14.0708C29.8 14.0708 29.8 14.0708 29.8 14.0708C29.8 14.0708 29.8 14.0708 29.8 14.0708C29.8 14.0708 29.8 14.0708 29.8 14.0708C29.8 14.0708 29.8 14.0708 29.8 14.0709V14.0709C29.8 14.0709 29.8 14.0709 29.8 14.0709C29.8 14.0709 29.8 14.0709 29.8 14.0709C29.8 14.0709 29.8 14.0709 29.8 14.0709V14.0709C29.8 14.0709 29.8 14.0709 29.8 14.0709C29.8 14.0709 29.8 14.0709 29.8 14.0709C29.8 14.0709 29.8 14.0709 29.8 14.0709C29.8 14.0709 29.8 14.0709 29.8 14.0709V14.0709C29.8 14.0709 29.8 14.0709 29.8 14.0709C29.8 14.0709 29.8 14.0709 29.8 14.0709V14.0709C29.8 14.0709 29.8 14.0709 29.8 14.0709C29.8 14.0709 29.8 14.0709 29.8 14.0709C29.8 14.0709 29.8 14.0709 29.8 14.0709V14.0709C29.8 14.0709 29.8 14.0709 29.8 14.0709C29.8 14.0709 29.8 14.0709 29.8 14.0709V14.0709C29.8 14.0709 29.8 14.0709 29.8 14.0709C29.8 14.0709 29.8 14.0709 29.8 14.0709V14.0709C29.8 14.0709 29.8 14.0709 29.8 14.0709C29.8 14.0709 29.8 14.0709 29.8 14.0709V14.0709C29.8 14.0709 29.8 14.0709 29.8 14.0709C29.8 14.0709 29.8 14.0709 29.8 14.0709V14.0709C29.8 14.0709 29.8 14.0709 29.8 14.0709V14.0709C29.8 14.0709 29.8 14.0709 29.8 14.0709C29.8 14.0709 29.8 14.0709 29.8 14.0709V14.0709C29.8 14.0709 29.8 14.0709 29.8 14.0709V14.0709C29.8 14.0709 29.8 14.0709 29.8 14.0709C29.8 14.0709 29.8 14.0709 29.8 14.0709V14.0709C29.8 14.0709 29.8 14.0709 29.8 14.0709V14.0709C29.8 14.0709 29.8 14.0709 29.8 14.0709V14.0709C29.8 14.0709 29.8 14.0709 29.8 14.0709V14.0709C29.8 14.0709 29.8 14.0709 29.8 14.0709V14.0709C29.8 14.0709 29.8 14.0709 29.8 14.0709V14.0709C29.8 14.0709 29.8 14.0709 29.8 14.0709V14.0709C29.8 14.0709 29.8 14.0709 29.8 14.0709V14.0709C29.8 14.0709 29.8 14.0709 29.8 14.0709V14.0709C29.8 14.0709 29.8 14.0709 29.8 14.0709C29.8 14.0709 29.8 14.0709 29.8 14.0709V14.0709C29.8 14.0709 29.8 14.0709 29.8 14.0709V14.0709C29.8 14.0709 29.8 14.0709 29.8 14.0709C29.8 14.0709 29.8 14.0709 29.8 14.0709V14.0709C29.8 14.0709 29.8 14.0709 29.8 14.0709V14.0709V14.0709C29.8 14.071 29.8 14.071 29.8 14.071V14.071V14.071C29.8 14.071 29.8 14.071 29.8 14.071V14.071V14.071C29.8 14.071 29.8 14.071 29.8 14.071C29.8 14.071 29.8 14.071 29.8 14.071V14.071C29.8 14.071 29.8 14.071 29.8 14.071C29.8 14.071 29.8 14.071 29.8 14.071C29.8 14.071 29.8 14.071 29.8 14.071V14.071C29.8 14.071 29.8 14.071 29.8 14.071C29.8 14.071 29.8 14.071 29.8 14.071C29.8 14.071 29.8 14.071 29.8 14.071V14.071V14.071C29.8 14.071 29.8 14.071 29.8 14.071C29.8 14.071 29.8 14.071 29.8 14.071C29.8 14.071 29.8 14.071 29.8 14.071C29.8 14.071 29.8 14.071 29.8 14.071V14.071V14.071C29.8 14.071 29.8 14.071 29.8 14.071C29.8 14.071 29.8 14.071 29.8 14.071C29.8 14.071 29.8 14.071 29.8 14.071C29.8 14.071 29.8 14.071 29.8 14.071C29.8 14.071 29.8 14.071 29.8 14.071C29.8 14.071 29.8 14.071 29.8 14.071V14.071V14.071V14.071V14.071V14.071V14.071V14.071C29.8 14.071 29.8 14.071 29.8 14.071C29.8 14.071 29.8 14.071 29.8 14.071C29.8 14.071 29.8 14.071 29.8 14.071V14.071V14.071V14.071V14.071V14.071V14.071V14.071C29.8 14.071 29.8 14.071 29.8 14.071C29.8 14.071 29.8 14.071 29.8 14.071C29.8 14.071 29.8 14.071 29.8 14.071H30.2ZM30.2 14.0698C30.1999 13.9975 30.174 13.9165 30.1407 13.8508C30.1064 13.7832 30.0474 13.6982 29.9543 13.6444L29.754 13.9906C29.7533 13.9902 29.757 13.9923 29.7636 14.0002C29.7702 14.008 29.7773 14.0187 29.7839 14.0317C29.7905 14.0446 29.7952 14.0572 29.798 14.0671C29.8013 14.0787 29.8 14.0796 29.8 14.0705L30.2 14.0698ZM4.72945 11.5701C4.75977 11.5874 6.53833 12.6058 8.30166 13.6156C9.18333 14.1204 10.0612 14.6231 10.7148 14.9973C11.0416 15.1845 11.3124 15.3395 11.4995 15.4467C11.5931 15.5003 11.6658 15.5419 11.7141 15.5695C11.7383 15.5834 11.7563 15.5937 11.7679 15.6003C11.7737 15.6037 11.7778 15.606 11.7803 15.6074C11.7815 15.6081 11.7823 15.6086 11.7826 15.6088C11.7827 15.6089 11.7828 15.6089 11.7828 15.6089C11.7827 15.6088 11.7088 15.3361 11.9812 15.2616C11.9815 15.2617 11.9817 15.2619 11.9813 15.2616L11.7826 15.6088C11.7826 15.6088 11.7831 15.6091 11.7835 15.6093C12.056 15.5347 11.982 15.262 11.9818 15.2619C11.9817 15.2619 11.9816 15.2618 11.9815 15.2618C11.9811 15.2615 11.9803 15.261 11.9791 15.2603C11.9766 15.2589 11.9724 15.2565 11.9667 15.2532C11.9551 15.2466 11.937 15.2363 11.9129 15.2224C11.8645 15.1948 11.7919 15.1531 11.6983 15.0996C11.5112 14.9924 11.2404 14.8374 10.9136 14.6502C10.26 14.276 9.3821 13.7733 8.50043 13.2684C6.73709 12.2587 4.95853 11.2403 4.92821 11.223L4.72945 11.5701ZM11.783 15.2614L9.8409 16.3668L10.0388 16.7144L11.9809 15.609L11.783 15.2614ZM10.0392 16.3671L2.98548 12.3287L2.78674 12.6758L9.84047 16.7142L10.0392 16.3671ZM2.98504 12.6761L4.92777 11.5703L4.7299 11.2227L2.78718 12.3284L2.98504 12.6761ZM10.5799 8.3479L12.5226 7.24226L12.3247 6.89462L10.3821 8.00026L10.5799 8.3479ZM12.3241 7.24192C12.3538 7.25891 13.1854 7.73602 13.9846 8.1945C14.3843 8.42374 14.7757 8.64833 15.0548 8.80841C15.1943 8.88845 15.3057 8.95237 15.376 8.99268C15.4111 9.01284 15.436 9.02709 15.4489 9.03451C15.4554 9.03822 15.4589 9.04022 15.4592 9.04039C15.4592 9.04041 15.3852 8.76741 15.6582 8.69344C15.6582 8.69344 15.6582 8.69343 15.6582 8.69341C15.6581 8.69338 15.658 8.69331 15.6579 8.69322C15.6575 8.69303 15.657 8.69273 15.6563 8.69231C15.6548 8.69147 15.6525 8.69016 15.6494 8.68836L15.4503 9.03532C15.4535 9.03712 15.4558 9.03843 15.4572 9.03927C15.458 9.03969 15.4585 9.04 15.4588 9.04018C15.459 9.04028 15.4591 9.04034 15.4591 9.04038C15.4592 9.04039 15.4592 9.0404 15.4592 9.04041C15.7322 8.96645 15.6582 8.69344 15.6582 8.69343C15.6579 8.69326 15.6544 8.69126 15.648 8.68755C15.635 8.68013 15.6102 8.66588 15.5751 8.64572C15.5048 8.60541 15.3934 8.54149 15.2538 8.46145C14.9748 8.30136 14.5833 8.07678 14.1837 7.84754C13.3845 7.38906 12.5528 6.91195 12.5232 6.89496L12.3241 7.24192ZM15.4509 8.68802L13.5104 9.79253L13.7082 10.1402L15.6488 9.03566L15.4509 8.68802ZM13.7087 9.79281C13.6791 9.77583 12.8822 9.31928 12.1001 8.87121C11.7091 8.64718 11.3217 8.42527 11.0359 8.26149C10.8929 8.1796 10.7754 8.11224 10.6954 8.06642C10.6554 8.0435 10.6248 8.02598 10.6051 8.01471C10.5953 8.00907 10.5882 8.005 10.584 8.0026C10.5819 8.0014 10.5805 8.00062 10.5799 8.00028C10.5798 8.00019 10.5797 8.00013 10.5796 8.00009C10.5796 8.00008 10.5796 8.00006 10.5795 8.00005C10.3066 8.07419 10.3807 8.34714 10.3807 8.34715C10.3808 8.3472 10.3811 8.34736 10.3816 8.34762L10.5804 8.00055C10.5799 8.00028 10.5797 8.00013 10.5796 8.00009C10.5796 8.00008 10.6537 8.27302 10.3808 8.34717C10.3808 8.34716 10.3808 8.34716 10.3808 8.34718C10.3808 8.34721 10.3809 8.34727 10.3811 8.34735C10.3817 8.3477 10.3831 8.34848 10.3851 8.34968C10.3893 8.35207 10.3964 8.35615 10.4063 8.36178C10.4259 8.37305 10.4565 8.39058 10.4965 8.41349C10.5765 8.45932 10.6941 8.52667 10.837 8.60856C11.1229 8.77234 11.5102 8.99426 11.9013 9.21829C12.6834 9.66635 13.4803 10.1229 13.5099 10.1399L13.7087 9.79281ZM17.1432 13.7861L15.1936 14.8955L15.3914 15.2432L17.3411 14.1337L17.1432 13.7861ZM15.4925 15.0686C15.4924 15.0392 15.4915 14.7983 15.4906 14.572C15.4902 14.4589 15.4898 14.3494 15.4895 14.2719C15.4894 14.2332 15.4892 14.2024 15.4892 14.1832C15.4891 14.1735 15.4891 14.1668 15.4891 14.1634C15.4891 14.1625 15.4891 14.1619 15.4891 14.1614C15.4891 14.1612 15.4891 14.1611 15.4891 14.161C15.4891 14.1609 15.4891 14.1609 15.4891 14.1608C15.4891 14.1608 15.4891 14.1608 15.4891 14.1608C15.4891 14.1608 15.2884 13.9615 15.0891 14.1621C15.0891 14.1622 15.0891 14.1633 15.0891 14.165L15.4891 14.1635C15.4891 14.1616 15.4891 14.1609 15.4891 14.161C15.2897 14.3615 15.0891 14.1623 15.0891 14.1623C15.0891 14.1623 15.0891 14.1623 15.0891 14.1623C15.0891 14.1624 15.0891 14.1624 15.0891 14.1625C15.0891 14.1626 15.0891 14.1627 15.0891 14.1629C15.0891 14.1634 15.0891 14.164 15.0891 14.1649C15.0891 14.1683 15.0891 14.175 15.0892 14.1846C15.0892 14.2039 15.0894 14.2347 15.0895 14.2734C15.0898 14.3509 15.0902 14.4604 15.0906 14.5735C15.0915 14.7998 15.0924 15.0407 15.0925 15.0701L15.4925 15.0686ZM15.388 14.3381L17.3377 13.2284L17.1398 12.8808L15.1902 13.9905L15.388 14.3381ZM17.0387 13.0553L17.0421 13.9607L17.4421 13.9592L17.4387 13.0538L17.0387 13.0553ZM10.6918 12.9813L9.83196 13.4717L10.0301 13.8192L10.89 13.3288L10.6918 12.9813ZM10.0304 13.4719L9.23481 13.0164L9.03607 13.3635L9.83167 13.819L10.0304 13.4719ZM9.23467 13.3636L10.8863 12.4197L10.6878 12.0724L9.0362 13.0163L9.23467 13.3636ZM10.587 12.2469C10.5872 12.2763 10.5882 12.5182 10.5892 12.7455C10.5896 12.8591 10.5901 12.9691 10.5904 13.0469C10.5906 13.0859 10.5907 13.1168 10.5908 13.1361C10.5909 13.1458 10.5909 13.1526 10.5909 13.156C10.5909 13.1569 10.5909 13.1575 10.5909 13.158C10.5909 13.1582 10.5909 13.1584 10.5909 13.1585C10.5909 13.1585 10.5909 13.1586 10.5909 13.1586C10.5909 13.1586 10.5909 13.1586 10.5909 13.1586C10.5909 13.1586 10.7881 12.9578 10.9909 13.153C10.9909 13.1556 10.9909 13.1587 10.9909 13.1542L10.5909 13.1559C10.5909 13.1568 10.5909 13.1575 10.5909 13.158C10.5909 13.1582 10.5909 13.1584 10.5909 13.1585C10.5909 13.1585 10.5909 13.1586 10.5909 13.1586C10.5909 13.1586 10.5909 13.1587 10.5909 13.1587C10.5909 13.1587 10.5909 13.1607 10.591 13.1626C10.7937 13.3578 10.9909 13.157 10.9909 13.157C10.9909 13.1569 10.9909 13.1569 10.9909 13.1569C10.9909 13.1569 10.9909 13.1568 10.9909 13.1568C10.9909 13.1567 10.9909 13.1565 10.9909 13.1563C10.9909 13.1558 10.9909 13.1552 10.9909 13.1543C10.9909 13.1509 10.9909 13.1441 10.9908 13.1344C10.9907 13.1151 10.9906 13.0842 10.9904 13.0452C10.9901 12.9673 10.9896 12.8574 10.9892 12.7438C10.9882 12.5165 10.9872 12.2746 10.987 12.2452L10.587 12.2469ZM10.33 17.2201L12.2782 16.1111L12.0803 15.7635L10.1321 16.8725L10.33 17.2201ZM11.9793 15.9373V16.8413H12.3793V15.9373H11.9793ZM12.0804 16.6674L10.1321 17.776L10.3299 18.1237L12.2782 17.0151L12.0804 16.6674ZM10.431 17.9498V17.0463H10.031V17.9498H10.431ZM11.5738 13.0134C11.5737 12.9841 11.5728 12.7785 11.572 12.5875C11.5715 12.4921 11.5711 12.4003 11.5709 12.336C11.5707 12.3039 11.5706 12.2787 11.5706 12.2633C11.5705 12.2556 11.5705 12.2504 11.5705 12.248C11.5705 12.2474 11.5705 12.247 11.5705 12.2468C11.5705 12.2466 11.5705 12.2466 11.5705 12.2465C11.5705 12.2465 11.5705 12.2463 11.5705 12.2461C11.3694 12.0474 11.1705 12.2482 11.1705 12.2482C11.1705 12.2483 11.1705 12.2483 11.1705 12.2483C11.1705 12.2486 11.1705 12.2496 11.1705 12.2515L11.5705 12.2498C11.5705 12.2479 11.5705 12.2469 11.5705 12.2466C11.5705 12.2466 11.5705 12.2466 11.5705 12.2466C11.5705 12.2466 11.3715 12.4474 11.1705 12.2487C11.1705 12.2485 11.1705 12.2483 11.1705 12.2483C11.1705 12.2483 11.1705 12.2483 11.1705 12.2483C11.1705 12.2483 11.1705 12.2483 11.1705 12.2483C11.1705 12.2484 11.1705 12.2484 11.1705 12.2485C11.1705 12.2487 11.1705 12.2491 11.1705 12.2497C11.1705 12.2521 11.1705 12.2573 11.1706 12.265C11.1706 12.2804 11.1707 12.3056 11.1709 12.3378C11.1712 12.402 11.1715 12.4938 11.172 12.5893C11.1728 12.7802 11.1737 12.9858 11.1738 13.0151L11.5738 13.0134ZM11.271 12.4241L14.6062 14.3377L14.8053 13.9907L11.47 12.0771L11.271 12.4241ZM14.5057 14.1649L14.5089 15.0498L14.9089 15.0484L14.9057 14.1635L14.5057 14.1649ZM14.813 14.8784L11.4779 12.8436L11.2696 13.185L14.6047 15.2198L14.813 14.8784ZM15.6485 9.36446V10.2671H16.0485V9.36446H15.6485ZM15.7493 10.0934L14.8887 10.5846L15.087 10.932L15.9476 10.4408L15.7493 10.0934ZM15.0875 10.5849L14.297 10.1307L14.0977 10.4776L14.8883 10.9317L15.0875 10.5849ZM14.2963 10.478L15.9474 9.53828L15.7495 9.19064L14.0985 10.1303L14.2963 10.478ZM16.3323 9.54132L19.6696 11.4561L19.8687 11.1091L16.5313 9.19437L16.3323 9.54132ZM19.5692 11.2833L19.5723 12.1685L19.9723 12.1671L19.9692 11.2819L19.5692 11.2833ZM19.8764 11.997L16.5359 9.96185L16.3277 10.3034L19.6682 12.3386L19.8764 11.997ZM16.6318 10.1326V9.36784H16.2318V10.1326H16.6318ZM20.5559 12.187L20.5526 11.282L20.1526 11.2835L20.1559 12.1884L20.5559 12.187ZM20.4513 11.4567L22.3998 10.3501L22.2023 10.0023L20.2538 11.1088L20.4513 11.4567ZM22.101 10.1771L22.105 11.0792L22.505 11.0774L22.501 10.1753L22.101 10.1771ZM22.2061 10.9045L20.257 12.0139L20.4549 12.3615L22.4039 11.2521L22.2061 10.9045ZM9.44771 17.0458V17.9481H9.84771V17.0458H9.44771ZM9.74723 17.7746L2.69396 13.7283L2.49492 14.0753L9.54818 18.1216L9.74723 17.7746ZM2.79444 13.9011L2.79102 13.005L2.39103 13.0065L2.39444 13.9026L2.79444 13.9011ZM2.49166 13.1793L9.54834 17.2194L9.74708 16.8722L2.69039 12.8322L2.49166 13.1793ZM29.0254 13.8984L15.9484 21.4978L16.1494 21.8436L29.2264 14.2442L29.0254 13.8984ZM16.1489 21.4975L10.6019 18.2936L10.4018 18.64L15.9489 21.8439L16.1489 21.4975ZM10.6008 18.6407L12.714 17.4381L12.5162 17.0904L10.4029 18.293L10.6008 18.6407ZM12.7139 17.4381C12.8675 17.3507 12.9626 17.1876 12.9626 17.0107H12.5626C12.5626 17.0435 12.5449 17.0741 12.5162 17.0904L12.7139 17.4381ZM12.9626 17.0107V15.4356H12.5626V17.0107H12.9626ZM12.9626 15.4356C12.9626 15.3293 12.9244 15.2376 12.8804 15.1701C12.8375 15.1041 12.7796 15.0463 12.718 15.0106L12.5172 15.3565C12.5151 15.3553 12.5185 15.357 12.5253 15.3638C12.5318 15.3701 12.5388 15.3785 12.5451 15.3882C12.5586 15.4089 12.5626 15.4258 12.5626 15.4356H12.9626ZM12.7205 15.012C12.6976 14.9983 12.6765 14.9919 12.6633 14.9888C12.6567 14.9872 12.6513 14.9863 12.6481 14.9858C12.6464 14.9855 12.6451 14.9854 12.6442 14.9852C12.6438 14.9852 12.6435 14.9851 12.6433 14.9851C12.6432 14.9851 12.6431 14.9851 12.643 14.9851C12.643 14.9851 12.643 14.9851 12.6429 14.9851C12.6429 14.9851 12.6429 14.9851 12.6429 14.9851C12.6424 14.985 12.6449 14.9853 12.6478 14.9858C12.6509 14.9863 12.6562 14.9872 12.6627 14.9887C12.6757 14.9918 12.6966 14.9981 12.7194 15.0117L12.5136 15.3547C12.5365 15.3685 12.5576 15.3749 12.5708 15.378C12.5774 15.3796 12.5828 15.3805 12.586 15.381C12.5877 15.3812 12.589 15.3814 12.5899 15.3815C12.5903 15.3816 12.5906 15.3816 12.5908 15.3817C12.5909 15.3817 12.591 15.3817 12.5911 15.3817C12.5911 15.3817 12.5911 15.3817 12.5911 15.3817C12.5912 15.3817 12.5912 15.3817 12.5912 15.3817C12.5917 15.3818 12.5892 15.3815 12.5863 15.381C12.5832 15.3805 12.5779 15.3796 12.5714 15.3781C12.5584 15.375 12.5375 15.3687 12.5147 15.3551L12.7205 15.012ZM12.7194 15.0117C12.739 15.0235 12.7531 15.0366 12.7622 15.0463C12.7666 15.051 12.7699 15.055 12.7719 15.0575C12.7737 15.0597 12.7752 15.0617 12.7749 15.0613C12.7749 15.0613 12.7749 15.0613 12.7749 15.0613C12.7749 15.0613 12.7749 15.0613 12.7749 15.0613C12.7748 15.0612 12.7748 15.0611 12.7747 15.0611C12.7746 15.0609 12.7744 15.0606 12.7741 15.0603C12.7736 15.0596 12.7728 15.0586 12.7717 15.0573C12.7697 15.0547 12.7663 15.0507 12.7619 15.0459C12.7526 15.036 12.7384 15.0228 12.7185 15.0109L12.5127 15.3539C12.493 15.3421 12.479 15.329 12.4699 15.3193C12.4655 15.3146 12.4622 15.3106 12.4602 15.3081C12.4584 15.3059 12.4569 15.3039 12.4572 15.3043C12.4572 15.3043 12.4572 15.3043 12.4572 15.3043C12.4572 15.3043 12.4572 15.3044 12.4572 15.3044C12.4573 15.3044 12.4573 15.3045 12.4574 15.3046C12.4575 15.3048 12.4577 15.305 12.458 15.3054C12.4585 15.306 12.4593 15.3071 12.4604 15.3084C12.4624 15.3109 12.4658 15.315 12.4703 15.3198C12.4795 15.3296 12.4937 15.3428 12.5136 15.3547L12.7194 15.0117ZM12.715 15.0088L10.618 13.8083L10.4193 14.1554L12.5163 15.356L12.715 15.0088ZM10.6178 14.1556L11.3004 13.766L11.1022 13.4186L10.4195 13.8081L10.6178 14.1556ZM11.0972 13.763C11.8632 14.2301 12.7956 14.7984 13.5269 15.2443C13.8927 15.4673 14.2082 15.6598 14.4276 15.7938C14.5374 15.8608 14.623 15.9132 14.6788 15.9474C14.7068 15.9646 14.7271 15.977 14.7391 15.9844C14.742 15.9863 14.7444 15.9877 14.7462 15.9889C14.7481 15.9901 14.7488 15.9905 14.7487 15.9905C14.7487 15.9904 14.7484 15.9903 14.748 15.99C14.7477 15.9898 14.7468 15.9892 14.7456 15.9884C14.7453 15.9882 14.7413 15.9855 14.7365 15.9818C14.733 15.9791 14.7219 15.9694 14.7144 15.9622C14.6856 15.9241 14.6974 15.7042 14.8568 15.6231C14.8894 15.6256 14.9292 15.6362 14.9372 15.6394C14.9407 15.6409 14.9462 15.6435 14.9481 15.6445C14.9514 15.6461 14.9538 15.6475 14.9543 15.6478C14.9552 15.6483 14.9559 15.6486 14.9561 15.6488C14.9562 15.6488 14.9564 15.6489 14.9564 15.649C14.9565 15.649 14.9566 15.649 14.9566 15.649L14.7562 15.9953C14.7571 15.9958 14.759 15.9968 14.7611 15.998C14.7619 15.9985 14.7646 15.9999 14.768 16.0017C14.7701 16.0027 14.7756 16.0053 14.7792 16.0069C14.7872 16.0101 14.827 16.0207 14.8596 16.0231C15.019 15.9421 15.0308 15.7221 15.002 15.6841C14.9945 15.6768 14.9833 15.6671 14.9798 15.6644C14.9749 15.6606 14.9707 15.6578 14.9702 15.6574C14.9677 15.6557 14.9655 15.6543 14.9648 15.6538C14.9611 15.6515 14.9556 15.648 14.9496 15.6444C14.9368 15.6364 14.9159 15.6236 14.8879 15.6064C14.8318 15.572 14.7459 15.5195 14.6361 15.4524C14.4165 15.3183 14.1009 15.1258 13.7352 14.9028C13.0036 14.4567 12.0715 13.8887 11.3054 13.4215L11.0972 13.763ZM14.7562 15.9953C14.9109 16.0847 15.0964 16.0814 15.2441 15.998L15.0475 15.6497C15.0199 15.6652 14.9854 15.6657 14.9566 15.649L14.7562 15.9953ZM15.2352 16.0027C15.2484 15.9962 15.2599 15.9886 15.2698 15.9808C15.2797 15.973 15.2875 15.9653 15.2934 15.9589C15.2992 15.9526 15.3034 15.9471 15.306 15.9437C15.3073 15.942 15.3083 15.9405 15.3089 15.9397C15.3092 15.9392 15.3095 15.9389 15.3096 15.9387C15.3097 15.9385 15.3098 15.9385 15.3098 15.9384C15.3098 15.9384 15.3098 15.9383 15.3099 15.9383C15.3099 15.9383 15.3099 15.9383 15.3099 15.9383C15.3099 15.9383 15.3099 15.9383 15.3099 15.9383C15.3102 15.9378 15.3084 15.9405 15.3061 15.9436C15.3036 15.9469 15.2993 15.9523 15.2935 15.9586C15.2877 15.9651 15.2799 15.9727 15.2701 15.9804C15.2602 15.9882 15.2488 15.9957 15.2357 16.0023L15.0568 15.6445C15.0437 15.6511 15.0322 15.6586 15.0222 15.6665C15.0124 15.6742 15.0046 15.6819 14.9987 15.6883C14.9929 15.6947 14.9886 15.7002 14.9861 15.7036C14.9848 15.7053 14.9838 15.7067 14.9831 15.7076C14.9828 15.708 14.9826 15.7084 14.9824 15.7086C14.9823 15.7087 14.9823 15.7088 14.9822 15.7088C14.9822 15.7089 14.9822 15.7089 14.9822 15.7089C14.9822 15.7089 14.9822 15.7089 14.9822 15.7089C14.9822 15.7089 14.9822 15.7089 14.9822 15.7089C14.9818 15.7094 14.9837 15.7067 14.986 15.7037C14.9885 15.7004 14.9927 15.6949 14.9985 15.6886C15.0044 15.6822 15.0121 15.6746 15.0219 15.6669C15.0318 15.659 15.0433 15.6515 15.0563 15.645L15.2352 16.0027ZM15.2452 15.9972C15.5407 15.8291 16.2067 15.4501 16.7824 15.1226C17.0702 14.9588 17.3354 14.8079 17.5205 14.7026C17.613 14.65 17.6854 14.6088 17.7307 14.583C17.7533 14.5702 17.7691 14.5612 17.7772 14.5566C17.7812 14.5543 17.7834 14.5531 17.7835 14.553C17.8584 14.2803 17.5857 14.2053 17.5856 14.2054C17.5856 14.2054 17.5856 14.2054 17.5855 14.2054C17.5855 14.2054 17.5854 14.2055 17.5853 14.2055C17.585 14.2057 17.5847 14.2059 17.5842 14.2062C17.5832 14.2067 17.5817 14.2076 17.5796 14.2088L17.7774 14.5564C17.7795 14.5553 17.781 14.5544 17.782 14.5538C17.7825 14.5536 17.7828 14.5533 17.7831 14.5532C17.7832 14.5531 17.7833 14.5531 17.7833 14.5531C17.7834 14.5531 17.7834 14.553 17.7834 14.553C17.7834 14.5531 17.5107 14.4781 17.5856 14.2054C17.5856 14.2054 17.5855 14.2054 17.5852 14.2056C17.5849 14.2058 17.5845 14.206 17.584 14.2063C17.5829 14.2069 17.5814 14.2078 17.5794 14.2089C17.5713 14.2135 17.5555 14.2225 17.5329 14.2354C17.4876 14.2611 17.4152 14.3023 17.3226 14.355C17.1376 14.4603 16.8724 14.6112 16.5845 14.7749C16.0089 15.1025 15.3429 15.4814 15.0473 15.6496L15.2452 15.9972ZM17.7773 14.5565C17.932 14.4686 18.0265 14.3047 18.026 14.1274L17.626 14.1285C17.6261 14.162 17.6085 14.1924 17.5797 14.2087L17.7773 14.5565ZM18.026 14.1272L18.0201 12.5521L17.6201 12.5536L17.6261 14.1287L18.026 14.1272ZM18.0201 12.5523C18.0196 12.4006 17.938 12.2228 17.7745 12.1284L17.5745 12.4748C17.5861 12.4815 17.5979 12.4933 17.6073 12.5104C17.617 12.5282 17.62 12.5448 17.6201 12.5534L18.0201 12.5523ZM17.7745 12.1284C17.7447 12.1112 17.2028 11.7999 16.6772 11.498C16.4142 11.347 16.1552 11.1982 15.966 11.0895C15.8714 11.0352 15.7943 10.9909 15.7429 10.9613C15.7172 10.9466 15.6979 10.9355 15.686 10.9287C15.6801 10.9253 15.6761 10.923 15.674 10.9218C15.6739 10.9218 15.6719 10.9206 15.6709 10.92C15.3991 10.9952 15.4729 11.2676 15.473 11.2676C15.4731 11.2677 15.4732 11.2677 15.4732 11.2677C15.4733 11.2678 15.4734 11.2679 15.4735 11.2679C15.4738 11.2681 15.4742 11.2683 15.4747 11.2686L15.674 10.9218C15.6735 10.9215 15.6731 10.9213 15.6729 10.9211C15.6727 10.9211 15.6727 10.921 15.6726 10.921C15.6726 10.921 15.6727 10.921 15.6727 10.921C15.6728 10.9211 15.7466 11.1934 15.4748 11.2686C15.4738 11.2681 15.4728 11.2675 15.4748 11.2687C15.4769 11.2699 15.4809 11.2722 15.4868 11.2756C15.4987 11.2824 15.5179 11.2934 15.5436 11.3082C15.5951 11.3377 15.6722 11.382 15.7668 11.4364C15.956 11.545 16.215 11.6938 16.4779 11.8448C17.004 12.147 17.5452 12.4579 17.5745 12.4748L17.7745 12.1284ZM15.6735 11.2689L16.353 10.8811L16.1548 10.5337L15.4752 10.9215L15.6735 11.2689ZM16.1499 10.8783C16.1948 10.9056 17.1235 11.4709 18.0375 12.0274C18.494 12.3053 18.9458 12.5805 19.2799 12.7841C19.447 12.8859 19.5845 12.9698 19.6785 13.0271C19.7255 13.0558 19.7615 13.0778 19.7847 13.0921C19.7965 13.0993 19.8047 13.1043 19.8094 13.1073C19.8123 13.109 19.8127 13.1093 19.812 13.1089C19.8119 13.1088 19.8105 13.1079 19.8085 13.1066C19.8073 13.1057 19.8034 13.103 19.8009 13.1011C19.7932 13.0951 19.7205 12.9424 19.7835 12.7952C19.8825 12.7445 20.001 12.7578 20.0087 12.7614C20.0113 12.7627 20.0151 12.7647 20.0164 12.7654C20.0183 12.7664 20.0198 12.7673 20.0198 12.7673L19.8198 13.1137C19.8204 13.114 19.8221 13.115 19.8243 13.1162C19.8257 13.117 19.8297 13.1191 19.8323 13.1204C19.84 13.124 19.9586 13.1372 20.0575 13.0866C20.1205 12.9393 20.0479 12.7867 20.0401 12.7806C20.0375 12.7787 20.0336 12.7759 20.0322 12.775C20.0301 12.7735 20.0283 12.7724 20.0278 12.7721C20.0254 12.7705 20.0223 12.7686 20.02 12.7672C20.0144 12.7637 20.0055 12.7583 19.9938 12.7511C19.9702 12.7366 19.9339 12.7144 19.8869 12.6857C19.7928 12.6283 19.6551 12.5443 19.4881 12.4425C19.1539 12.2389 18.702 11.9637 18.2456 11.6858C17.3339 11.1306 16.4004 10.5625 16.3579 10.5366L16.1499 10.8783ZM19.8198 13.1137C19.9639 13.1969 20.1497 13.2054 20.3075 13.1164L20.111 12.768C20.0823 12.7842 20.0474 12.7832 20.0198 12.7673L19.8198 13.1137ZM20.2987 13.1211C20.3118 13.1145 20.3233 13.107 20.3333 13.0991C20.3431 13.0913 20.3509 13.0837 20.3568 13.0773C20.3626 13.0709 20.3669 13.0654 20.3694 13.062C20.3707 13.0603 20.3717 13.0589 20.3723 13.058C20.3727 13.0576 20.3729 13.0572 20.3731 13.057C20.3731 13.0569 20.3732 13.0568 20.3732 13.0568C20.3733 13.0567 20.3733 13.0567 20.3733 13.0567C20.3733 13.0567 20.3733 13.0567 20.3733 13.0567C20.3733 13.0567 20.3733 13.0567 20.3733 13.0567C20.3736 13.0562 20.3718 13.0589 20.3695 13.0619C20.367 13.0653 20.3628 13.0707 20.357 13.077C20.3511 13.0834 20.3434 13.091 20.3336 13.0988C20.3237 13.1066 20.3122 13.1141 20.2991 13.1207L20.1203 12.7629C20.1071 12.7694 20.0956 12.777 20.0857 12.7848C20.0758 12.7926 20.068 12.8003 20.0621 12.8067C20.0563 12.813 20.052 12.8185 20.0495 12.8219C20.0482 12.8236 20.0472 12.8251 20.0466 12.8259C20.0463 12.8264 20.046 12.8267 20.0459 12.827C20.0458 12.8271 20.0457 12.8272 20.0457 12.8272C20.0457 12.8272 20.0456 12.8273 20.0456 12.8273C20.0456 12.8273 20.0456 12.8273 20.0456 12.8273C20.0456 12.8273 20.0456 12.8273 20.0456 12.8273C20.0453 12.8278 20.0471 12.8251 20.0494 12.8221C20.0519 12.8187 20.0562 12.8133 20.0619 12.807C20.0678 12.8006 20.0755 12.793 20.0853 12.7852C20.0952 12.7774 20.1067 12.7699 20.1198 12.7633L20.2987 13.1211ZM20.3086 13.1156C20.6042 12.9474 21.2701 12.5685 21.8457 12.2409C22.1334 12.0772 22.3986 11.9263 22.5837 11.821C22.6762 11.7684 22.7486 11.7271 22.7938 11.7014C22.8165 11.6885 22.8323 11.6795 22.8403 11.6749C22.8443 11.6727 22.8465 11.6714 22.8467 11.6713C22.9215 11.3987 22.6488 11.3237 22.6488 11.3237C22.6488 11.3237 22.6487 11.3237 22.6487 11.3238C22.6486 11.3238 22.6485 11.3238 22.6484 11.3239C22.6482 11.3241 22.6478 11.3243 22.6473 11.3245C22.6463 11.3251 22.6448 11.326 22.6427 11.3271L22.8406 11.6748C22.8426 11.6736 22.8441 11.6728 22.8451 11.6722C22.8456 11.6719 22.846 11.6717 22.8462 11.6716C22.8464 11.6715 22.8464 11.6715 22.8465 11.6714C22.8465 11.6714 22.8465 11.6714 22.8465 11.6714C22.8465 11.6714 22.5738 11.5965 22.6487 11.3238C22.6487 11.3238 22.6482 11.324 22.6471 11.3247C22.6461 11.3253 22.6445 11.3261 22.6425 11.3273C22.6344 11.3319 22.6186 11.3409 22.596 11.3537C22.5508 11.3795 22.4783 11.4207 22.3858 11.4733C22.2008 11.5786 21.9356 11.7295 21.6478 11.8933C21.0723 12.2208 20.4063 12.5998 20.1108 12.7679L20.3086 13.1156ZM22.8405 11.6749C22.995 11.5871 23.0902 11.4228 23.0892 11.245L22.6892 11.2471C22.6894 11.2801 22.6718 11.3106 22.6428 11.3271L22.8405 11.6749ZM23.0892 11.2453L23.0864 10.4701L22.6864 10.4715L22.6892 11.2468L23.0892 11.2453ZM22.7864 10.644L29.026 14.2445L29.2259 13.8981L22.9863 10.2976L22.7864 10.644ZM14.856 5.80096L21.9046 9.84477L22.1037 9.49782L15.055 5.454L14.856 5.80096ZM21.9052 9.49748L19.9621 10.6035L20.1599 10.9512L22.1031 9.84511L21.9052 9.49748ZM20.1606 10.6039C12.4173 6.15571 17.4179 9.03006 13.1121 6.55975L12.913 6.90671C17.2236 9.37972 12.2153 6.50099 19.9614 10.9508L20.1606 10.6039ZM13.1115 6.90705L15.0544 5.8013L14.8566 5.45366L12.9136 6.55941L13.1115 6.90705ZM9.79256 8.68269C14.8919 11.6043 11.4029 9.60295 16.8407 12.7265L17.0399 12.3796C11.602 9.25606 15.0909 11.2574 9.99141 8.33562L9.79256 8.68269ZM16.8414 12.3792C16.7824 12.4128 16.2695 12.7047 15.7849 12.9805C15.5426 13.1184 15.3074 13.2523 15.1395 13.3478C15.0556 13.3956 14.9885 13.4338 14.9459 13.4581C14.9245 13.4702 14.9093 13.4789 14.9011 13.4836C14.8969 13.4859 14.8946 13.4872 14.8941 13.4875C14.8941 13.4875 14.8941 13.4875 14.8941 13.4875C14.8941 13.4875 15.1661 13.5612 15.0944 13.8338C15.0927 13.8347 15.0903 13.8361 15.092 13.8351C15.0921 13.8351 15.0923 13.8349 15.0927 13.8347C15.0934 13.8343 15.0946 13.8336 15.0963 13.8327L14.8985 13.485C14.8968 13.486 14.8956 13.4867 14.8948 13.4871C14.8945 13.4873 14.8942 13.4874 14.8941 13.4875C14.8941 13.4875 14.8941 13.4875 14.8941 13.4875C14.894 13.4876 14.8928 13.4883 14.8916 13.489C14.8199 13.7615 15.0919 13.8352 15.0919 13.8352C15.0919 13.8352 15.092 13.8352 15.092 13.8351C15.0925 13.8349 15.0948 13.8335 15.0989 13.8312C15.1071 13.8265 15.1224 13.8178 15.1437 13.8057C15.1864 13.7814 15.2535 13.7432 15.3374 13.6955C15.5052 13.6 15.7404 13.4661 15.9827 13.3282C16.4673 13.0524 16.9803 12.7604 17.0393 12.7269L16.8414 12.3792ZM15.0969 13.4854C15.0666 13.468 13.2892 12.4482 11.5271 11.4372C10.646 10.9317 9.76872 10.4283 9.11553 10.0536C8.78893 9.86619 8.51836 9.71095 8.33135 9.60365C8.23784 9.54999 8.16522 9.50833 8.11694 9.48062C8.09279 9.46677 8.07474 9.45641 8.0632 9.44978C8.05742 9.44647 8.05329 9.4441 8.05084 9.44269C8.04959 9.44198 8.04883 9.44154 8.0485 9.44135C8.04843 9.44131 8.04844 9.44132 8.04845 9.44132C8.04866 9.44144 8.12214 9.71397 7.85018 9.78872C7.84953 9.78835 7.84886 9.78797 7.84955 9.78836L8.0484 9.44129C8.04826 9.44121 8.04813 9.44114 8.04804 9.44108C8.0479 9.44101 8.0474 9.44072 8.04699 9.44049C7.775 9.51523 7.84851 9.78777 7.84881 9.78794C7.84891 9.788 7.84906 9.78808 7.84918 9.78815C7.84962 9.7884 7.85047 9.7889 7.8517 9.7896C7.85417 9.79102 7.85833 9.7934 7.8641 9.79672C7.87565 9.80335 7.89372 9.81371 7.91786 9.82757C7.96615 9.85527 8.03877 9.89694 8.13228 9.95059C8.3193 10.0579 8.58987 10.2131 8.91647 10.4005C9.56966 10.7753 10.4469 11.2786 11.328 11.7842C13.0902 12.7952 14.8676 13.8149 14.8979 13.8323L15.0969 13.4854ZM8.04789 9.78865L9.9909 8.68298L9.79307 8.33532L7.85006 9.441L8.04789 9.78865ZM7.26099 10.1236C7.29061 10.1405 8.12242 10.6178 8.92176 11.0763C9.32143 11.3056 9.71299 11.5303 9.99209 11.6904C10.1316 11.7704 10.2431 11.8344 10.3134 11.8747C10.3485 11.8949 10.3734 11.9091 10.3863 11.9165C10.3928 11.9202 10.3963 11.9222 10.3966 11.9224C10.3966 11.9224 10.6696 11.8485 10.5957 11.5755C10.5956 11.5755 10.5956 11.5755 10.5956 11.5754C10.5955 11.5754 10.5954 11.5753 10.5952 11.5752C10.5949 11.5751 10.5944 11.5748 10.5937 11.5743C10.5922 11.5735 10.5899 11.5722 10.5868 11.5704L10.3877 11.9173C10.3909 11.9191 10.3931 11.9205 10.3946 11.9213C10.3953 11.9217 10.3959 11.922 10.3962 11.9222C10.3963 11.9223 10.3965 11.9224 10.3965 11.9224C10.3965 11.9224 10.3966 11.9224 10.3965 11.9224C10.3226 11.6494 10.5956 11.5755 10.5956 11.5755C10.5953 11.5753 10.5918 11.5733 10.5853 11.5696C10.5724 11.5622 10.5476 11.5479 10.5124 11.5277C10.4421 11.4874 10.3307 11.4235 10.1911 11.3434C9.91203 11.1833 9.52048 10.9587 9.12081 10.7294C8.32147 10.2708 7.48966 9.79359 7.46004 9.7766L7.26099 10.1236ZM10.388 11.5702L8.44752 12.6793L8.64601 13.0266L10.5865 11.9175L10.388 11.5702ZM8.64615 12.6794C8.61652 12.6624 7.78388 12.1856 6.98373 11.7274C6.58366 11.4983 6.1917 11.2739 5.9123 11.1139C5.7726 11.0339 5.66105 10.97 5.59068 10.9297C5.5555 10.9096 5.53061 10.8953 5.51766 10.8879C5.51118 10.8842 5.50769 10.8822 5.50738 10.882C5.50737 10.882 5.58153 11.1549 5.30861 11.2291C5.30861 11.2291 5.30862 11.2291 5.30865 11.2291C5.3087 11.2292 5.30882 11.2292 5.30898 11.2293C5.3093 11.2295 5.30983 11.2298 5.31056 11.2302C5.31202 11.2311 5.31431 11.2324 5.31745 11.2342L5.51622 10.8871C5.51308 10.8853 5.51079 10.884 5.50933 10.8831C5.5086 10.8827 5.50807 10.8824 5.50774 10.8822C5.50758 10.8821 5.50747 10.8821 5.50741 10.882C5.50737 10.882 5.50735 10.882 5.50733 10.882C5.23441 10.9562 5.30857 11.2291 5.3086 11.2291C5.30891 11.2293 5.31241 11.2313 5.31889 11.235C5.33184 11.2424 5.35673 11.2567 5.39191 11.2768C5.46227 11.3171 5.57383 11.381 5.71353 11.461C5.99293 11.621 6.38489 11.8454 6.78496 12.0745C7.58511 12.5327 8.41775 13.0095 8.44738 13.0265L8.64615 12.6794ZM5.51605 11.2343L7.45973 10.1237L7.2613 9.77642L5.31761 10.887L5.51605 11.2343ZM2.78362 18.5348L2.79387 14.5789L2.39387 14.5778L2.38362 18.5338L2.78362 18.5348ZM2.49391 14.7516C3.35368 15.2477 3.8433 15.5301 4.08696 15.6705C4.20837 15.7405 4.26945 15.7756 4.28449 15.7842C4.28524 15.7846 4.28904 15.7868 4.29227 15.7885C4.29476 15.7898 4.32062 15.801 4.3451 15.8078C4.56983 15.6926 4.49821 15.4462 4.49371 15.4432C4.49238 15.4424 4.49039 15.4412 4.48964 15.4407C4.48913 15.4404 4.48836 15.4399 4.48789 15.4397C4.485 15.4379 4.47955 15.4348 4.47289 15.4309C4.45883 15.4227 4.43526 15.409 4.40424 15.391C4.15606 15.2472 3.42058 14.8221 3.19274 14.6903C3.16421 14.6738 3.14373 14.6619 3.13314 14.6558C3.12193 14.6493 3.12832 14.6528 3.13462 14.657C3.1987 14.9216 2.93405 15.0023 2.92867 14.9995C2.92781 14.999 2.92662 14.9983 2.92639 14.9982C2.92616 14.9981 2.92621 14.9981 2.92682 14.9984C2.92788 14.999 2.9297 15.0001 2.9324 15.0016C2.95407 15.0141 3.02295 15.0538 3.15487 15.1299C3.4185 15.2821 3.93311 15.5792 4.82297 16.093C6.60266 17.1206 9.88321 19.0149 15.6585 22.35L15.8586 22.0036C10.0832 18.6685 6.80269 16.7742 5.02298 15.7466C4.13313 15.2328 3.61848 14.9357 3.3548 14.7835C3.22306 14.7075 3.15377 14.6675 3.1317 14.6548C3.12894 14.6532 3.12676 14.652 3.12525 14.6511C3.12456 14.6507 3.12368 14.6502 3.12286 14.6498C3.12234 14.6495 3.12094 14.6487 3.11996 14.6482C3.11446 14.6453 2.84977 14.726 2.9139 14.9906C2.91713 14.9927 2.92118 14.9952 2.92203 14.9957C2.92247 14.9959 2.92314 14.9963 2.92352 14.9966C2.92421 14.997 2.92501 14.9974 2.92578 14.9979C2.92738 14.9988 2.92958 15.0001 2.9323 15.0017C2.94317 15.008 2.96388 15.02 2.99238 15.0365C3.22079 15.1687 3.95552 15.5933 4.2037 15.7371C4.23472 15.7551 4.25798 15.7686 4.27166 15.7766C4.27507 15.7786 4.27781 15.7802 4.2799 15.7814C4.28094 15.782 4.28177 15.7825 4.28241 15.7828C4.28274 15.783 4.28293 15.7832 4.28316 15.7833C4.28336 15.7834 4.28336 15.7834 4.28344 15.7835C4.28345 15.7835 4.28307 15.7832 4.28288 15.7831C4.28244 15.7829 4.28069 15.7818 4.27949 15.781C4.27514 15.7782 4.20359 15.5318 4.42829 15.4166C4.45275 15.4234 4.47851 15.4345 4.4808 15.4357C4.48325 15.437 4.4849 15.438 4.48206 15.4364C4.46841 15.4286 4.40887 15.3944 4.28667 15.324C4.04313 15.1836 3.55361 14.9013 2.69383 14.4051L2.49391 14.7516ZM15.5585 22.1761C15.5584 22.2061 15.5549 23.2607 15.5515 24.2748C15.5499 24.7819 15.5482 25.2789 15.547 25.6326C15.5464 25.8095 15.546 25.9505 15.5457 26.0391C15.5455 26.0834 15.5454 26.1146 15.5454 26.1306C15.5453 26.1386 15.5453 26.1428 15.5453 26.1429C15.746 25.9436 15.9453 26.1443 15.9453 26.1443C15.9453 26.1442 15.9453 26.1442 15.9453 26.1441C15.9453 26.144 15.9453 26.1439 15.9453 26.1436C15.9453 26.1431 15.9453 26.1424 15.9453 26.1414C15.9453 26.1394 15.9453 26.1364 15.9454 26.1323L15.5454 26.1309C15.5453 26.135 15.5453 26.1381 15.5453 26.1401C15.5453 26.1411 15.5453 26.1418 15.5453 26.1423C15.5453 26.1425 15.5453 26.1427 15.5453 26.1428C15.5453 26.1429 15.5453 26.1429 15.5453 26.1429C15.5453 26.1429 15.7447 26.3436 15.9453 26.1443C15.9453 26.1441 15.9453 26.1399 15.9454 26.1319C15.9454 26.1159 15.9455 26.0848 15.9457 26.0405C15.946 25.9519 15.9464 25.8108 15.947 25.6339C15.9482 25.2802 15.9499 24.7832 15.9515 24.2762C15.9549 23.262 15.9584 22.2074 15.9585 22.1775L15.5585 22.1761ZM15.8453 25.9584L2.6836 18.3611L2.48364 18.7075L15.6454 26.3048L15.8453 25.9584Z" fill="#068C53" mask="url(#path-2-outside-1_0_176)"/>
</svg>
