<svg width="32" height="32" viewBox="0 0 32 32" fill="none" xmlns="http://www.w3.org/2000/svg">
<path d="M21.4992 3.85H21.4987L10.3846 3.85L10.3845 3.85C9.47744 3.85084 8.60778 4.21153 7.9664 4.85291C7.32502 5.49429 6.96432 6.36395 6.96349 7.271V7.27114V9.67289C6.57572 9.51182 6.16279 9.41778 5.74234 9.39538C5.24269 9.36876 4.74285 9.44388 4.2731 9.61618C3.80335 9.78848 3.37347 10.0544 3.00954 10.3977C2.6456 10.7411 2.35517 11.1548 2.15586 11.6137C1.95655 12.0727 1.85251 12.5673 1.85004 13.0677C1.84758 13.568 1.94673 14.0637 2.14151 14.5245C2.33628 14.9854 2.62261 15.402 2.98314 15.7489C3.31863 16.0717 3.71186 16.3281 4.14197 16.5047V25.7V25.85H4.29197H6.1457V27.2933V27.4433H6.2957H10.3545H10.4417L10.4849 27.3674L11.347 25.85H20.4487L21.3109 27.3674L21.354 27.4433H21.4413H25.4941H25.6441V27.2933V25.85H27.7271H27.8771V25.7V16.504C28.3113 16.3229 28.7073 16.0604 29.0435 15.7303C29.4043 15.3761 29.6886 14.9515 29.8787 14.483C30.0689 14.0144 30.1609 13.5118 30.149 13.0063C30.1371 12.5008 30.0216 12.003 29.8096 11.5439C29.5976 11.0848 29.2937 10.6741 28.9166 10.3372C28.5395 10.0003 28.0973 9.74436 27.6173 9.58522C27.1374 9.42608 26.6298 9.36713 26.1262 9.41202C25.7049 9.44956 25.2939 9.55906 24.9108 9.73517L24.9108 7.26209L24.9108 7.26154C24.9074 6.35777 24.5469 5.49196 23.9079 4.85289C23.2688 4.21382 22.403 3.85333 21.4992 3.85ZM22.776 12.893V16.9604C18.4115 15.3239 13.6015 15.3239 9.23704 16.9604V12.8749H9.23729L9.23678 12.8662C9.20603 12.3394 9.06264 11.8253 8.81629 11.3587C8.5815 10.9139 8.25838 10.5221 7.86702 10.207V7.27131C7.86777 6.60379 8.13328 5.96382 8.60529 5.49181C9.07728 5.01982 9.71721 4.75431 10.3847 4.75353H21.4983C22.1643 4.75663 22.8019 5.02312 23.272 5.49481C23.7421 5.96658 24.0065 6.60526 24.0072 7.27131V10.3325C23.6536 10.6485 23.3638 11.0295 23.1536 11.4551C22.9332 11.9014 22.8048 12.3875 22.7763 12.8844L22.776 12.8844V12.893ZM26.9736 24.9465H5.04551V15.965V15.8545L4.9399 15.8217L4.72565 15.7554L4.72531 15.7552C4.23917 15.6059 3.80305 15.3266 3.46404 14.9475C3.12503 14.5683 2.896 14.1039 2.80167 13.6041C2.70734 13.1044 2.75128 12.5883 2.92877 12.1117C3.10626 11.6351 3.41054 11.2161 3.80878 10.8997C4.20702 10.5834 4.68409 10.3819 5.18849 10.3169C5.69289 10.2519 6.20547 10.3258 6.6709 10.5308C7.13634 10.7358 7.53694 11.0641 7.82948 11.4801C8.12103 11.8947 8.2942 12.3808 8.33049 12.8863V21.4873V21.6373H8.48049H23.5265H23.6765V21.4873V12.9039C23.7238 12.1834 24.0485 11.509 24.5824 11.0227C25.1175 10.5352 25.8209 10.2746 26.5444 10.2958C27.2679 10.3169 27.955 10.6182 28.4606 11.1361C28.9663 11.654 29.2511 12.3481 29.2549 13.0719L29.2552 13.1241L29.2667 13.1384C29.2581 13.7181 29.0682 14.281 28.7231 14.7479C28.3677 15.2287 27.8666 15.5819 27.2944 15.7551L27.2934 15.7554L27.0792 15.8217L26.9736 15.8545V15.965V24.9465ZM22.779 17.9285V20.7459H9.24609V17.9285C13.5925 16.2057 18.4326 16.2057 22.779 17.9285ZM10.3175 25.85L9.91795 26.5398H7.05225V25.85H10.3175ZM24.7405 26.5398H21.8755L21.4822 25.85H24.7405V26.5398Z" fill="#068C53" stroke="#068C53" stroke-width="0.3"/>
<path d="M26.006 14.3933L26.1121 14.4994L26.2182 14.3933L26.7096 13.9019L27.201 14.3933L27.3075 14.4998L27.4135 14.393L27.839 13.9645L27.9443 13.8584L27.8387 13.7527L27.3472 13.2613L27.8387 12.7698L27.9447 12.6638L27.8387 12.5577L27.4132 12.1322L27.3071 12.0261L27.201 12.1322L26.7096 12.6236L26.2182 12.1322L26.1125 12.0265L26.0064 12.1318L25.5779 12.5573L25.4711 12.6634L25.5775 12.7698L26.069 13.2613L25.5775 13.7527L25.4715 13.8588L25.5775 13.9648L26.006 14.3933Z" fill="#068C53" stroke="#068C53" stroke-width="0.3"/>
<path d="M6.28914 12.1322L6.18307 12.0261L6.07701 12.1322L5.58557 12.6236L5.09414 12.1322L4.98845 12.0265L4.88239 12.1318L4.45388 12.5573L4.34706 12.6634L4.4535 12.7698L4.94493 13.2613L4.4535 13.7527L4.34744 13.8588L4.4535 13.9648L4.88201 14.3933L4.98808 14.4994L5.09414 14.3933L5.58557 13.9019L6.07701 14.3933L6.18345 14.4998L6.28951 14.393L6.715 13.9645L6.82032 13.8584L6.71463 13.7527L6.2232 13.2613L6.71463 12.7698L6.82069 12.6638L6.71463 12.5577L6.28914 12.1322Z" fill="#068C53" stroke="#068C53" stroke-width="0.3"/>
</svg>
