<svg width="26" height="26" viewBox="0 0 26 26" fill="none" xmlns="http://www.w3.org/2000/svg">
<path fill-rule="evenodd" clip-rule="evenodd" d="M9.12148 5.34572C8.5152 5.28104 7.90209 5.3426 7.32076 5.52652C6.73943 5.71044 6.20248 6.01273 5.74372 6.41436C5.28496 6.81599 4.91433 7.30825 4.65516 7.86016C4.396 8.41206 4.25392 9.01165 4.23786 9.62117C4.2218 10.2307 4.33213 10.8369 4.56188 11.4017C4.79163 11.9665 5.13583 12.4776 5.57281 12.9028L5.57912 12.909L5.5791 12.909L13.0004 20.2591L20.4217 12.909C20.4435 12.8875 20.4659 12.8671 20.4891 12.848C20.8922 12.4354 21.2107 11.9476 21.4265 11.412C21.6536 10.8482 21.7619 10.2436 21.7446 9.63603C21.7274 9.02845 21.5849 8.43098 21.326 7.88101C21.0672 7.33104 20.6977 6.84041 20.2405 6.43982C19.7834 6.03924 19.2485 5.73733 18.6693 5.55298C18.0901 5.36864 17.4791 5.30582 16.8745 5.36848C16.2699 5.43113 15.6848 5.6179 15.1557 5.9171C14.6266 6.2163 14.165 6.62149 13.7997 7.1073C13.6102 7.35932 13.3129 7.5072 12.9976 7.50632C12.6823 7.50544 12.3859 7.35591 12.1978 7.10284C11.8341 6.61348 11.373 6.20472 10.8435 5.90231C10.3141 5.5999 9.72777 5.41039 9.12148 5.34572ZM21.7571 14.4013L13.7041 22.377C13.3144 22.763 12.6864 22.763 12.2967 22.377L4.17471 14.333C3.54142 13.7158 3.0425 12.9744 2.70929 12.1553C2.37551 11.3348 2.21523 10.454 2.23855 9.5685C2.26188 8.68298 2.4683 7.81188 2.84483 7.01006C3.22135 6.20823 3.75981 5.49305 4.42631 4.90955C5.09281 4.32605 5.87291 3.88687 6.71748 3.61967C7.56205 3.35247 8.4528 3.26304 9.33363 3.357C10.2145 3.45096 11.0663 3.72629 11.8355 4.16564C12.2574 4.4066 12.6494 4.69404 13.0045 5.02178C13.3595 4.69786 13.7507 4.41399 14.1712 4.17619C14.9399 3.74151 15.79 3.47016 16.6683 3.37913C17.5467 3.28811 18.4344 3.37936 19.2759 3.64718C20.1173 3.91501 20.8945 4.35363 21.5586 4.93561C22.2228 5.51759 22.7597 6.2304 23.1357 7.02941C23.5117 7.82842 23.7187 8.69645 23.7438 9.57916C23.7689 10.4619 23.6116 11.3403 23.2816 12.1594C22.9516 12.9785 22.4561 13.7206 21.8261 14.3394C21.8039 14.3613 21.7809 14.3819 21.7571 14.4013Z" fill="black"/>
</svg>
