<svg width="32" height="32" viewBox="0 0 32 32" fill="none" xmlns="http://www.w3.org/2000/svg">
<path d="M18.8 30H13.2C12.64 30 12.2667 29.6267 12.2667 29.0667V26.5467C11.8933 26.4533 11.52 26.2667 11.1467 26.08L9.37333 27.8533C9 28.2267 8.44 28.2267 8.06667 27.8533L4.14667 23.9333C3.96 23.7467 3.86667 23.4667 3.86667 23.28C3.86667 23.0933 3.96 22.8133 4.14667 22.6267L5.92 20.8533C5.73333 20.48 5.54667 20.1067 5.45333 19.7333H2.93333C2.37333 19.7333 2 19.36 2 18.8V13.2C2 12.64 2.37333 12.2667 2.93333 12.2667H5.45333C5.54667 11.8933 5.73333 11.52 5.92 11.1467L4.14667 9.37333C3.96 9.18667 3.86667 9 3.86667 8.72C3.86667 8.44 3.96 8.25333 4.14667 8.06667L8.06667 4.14667C8.25333 3.96 8.53333 3.86667 8.72 3.86667C9 3.86667 9.18667 3.96 9.37333 4.14667L11.1467 5.92C11.52 5.73333 11.8933 5.54667 12.2667 5.45333V2.93333C12.2667 2.37333 12.64 2 13.2 2H18.8C19.36 2 19.7333 2.37333 19.7333 2.93333V5.45333C20.1067 5.54667 20.48 5.73333 20.8533 5.92L22.6267 4.14667C23 3.77333 23.56 3.77333 23.9333 4.14667L27.8533 8.06667C28.04 8.25333 28.1333 8.44 28.1333 8.72C28.1333 9 28.04 9.18667 27.8533 9.37333L26.08 11.1467C26.2667 11.52 26.36 11.8933 26.5467 12.2667H29.0667C29.6267 12.2667 30 12.64 30 13.2V18.8C30 19.36 29.6267 19.7333 29.0667 19.7333H26.5467C26.4533 20.1067 26.2667 20.48 26.08 20.8533L27.8533 22.6267C28.04 22.8133 28.1333 23 28.1333 23.28C28.1333 23.56 28.04 23.7467 27.8533 23.9333L23.9333 27.8533C23.56 28.2267 23 28.2267 22.6267 27.8533L20.8533 26.08C20.48 26.2667 20.1067 26.36 19.7333 26.5467V29.0667C19.7333 29.6267 19.36 30 18.8 30ZM14.1333 28.1333H17.8667V25.8933C17.8667 25.52 18.1467 25.1467 18.52 24.96C19.1733 24.7733 19.92 24.4933 20.48 24.12C20.48 24.12 20.5733 24.12 20.5733 24.0267C20.6667 24.0267 20.76 23.9333 20.9467 23.9333C21.04 23.9333 21.04 23.9333 21.1333 23.9333C21.32 23.9333 21.5067 24.0267 21.6933 24.2133L23.28 25.8L25.8933 23.1867L24.3067 21.6C24.2133 21.5067 24.12 21.4133 24.12 21.32C24.12 21.2267 24.0267 21.1333 24.0267 20.9467V20.8533C24.0267 20.76 24.12 20.5733 24.12 20.48C24.4933 19.8267 24.7733 19.1733 24.96 18.52C25.0533 18.1467 25.4267 17.8667 25.8933 17.8667H28.1333V14.1333H25.8933C25.52 14.1333 25.1467 13.8533 24.96 13.48C24.7733 12.8267 24.4933 12.08 24.12 11.52C23.9333 11.1467 23.9333 10.68 24.3067 10.4L25.8933 8.81333L23.28 6.2L21.6933 7.78667C21.4133 8.06667 20.9467 8.16 20.5733 7.97333C19.92 7.6 19.2667 7.32 18.6133 7.13333C18.24 7.04 17.96 6.66667 17.96 6.2V3.86667H14.2267V6.10667C14.2267 6.57333 13.9467 6.85333 13.5733 7.04C12.92 7.22667 12.2667 7.50667 11.6133 7.88C11.6133 7.88 11.52 7.88 11.52 7.97333C11.4267 7.97333 11.3333 8.06667 11.1467 8.06667C11.0533 8.06667 11.0533 8.06667 10.96 8.06667C10.7733 8.06667 10.5867 7.97333 10.4 7.78667L8.81333 6.2L6.2 8.81333L7.78667 10.4C7.88 10.4933 7.97333 10.5867 7.97333 10.68C7.97333 10.7733 8.06667 10.8667 8.06667 11.0533V11.1467C8.06667 11.24 7.97333 11.4267 7.97333 11.52C7.6 12.1733 7.32 12.8267 7.13333 13.48C7.04 13.8533 6.66667 14.1333 6.2 14.1333H3.86667V17.8667H6.10667C6.57333 17.8667 6.85333 18.1467 7.04 18.52C7.22667 19.1733 7.50667 19.92 7.88 20.48C8.06667 20.8533 7.97333 21.32 7.69333 21.6L6.10667 23.1867L8.72 25.8L10.3067 24.2133C10.5867 23.9333 11.0533 23.84 11.4267 24.0267C12.08 24.4 12.7333 24.68 13.48 24.8667C13.8533 24.96 14.1333 25.3333 14.1333 25.8V28.1333Z" fill="#068C53"/>
<path d="M15.9994 21.5999C12.9194 21.5999 10.3994 19.0799 10.3994 15.9999C10.3994 12.9199 12.9194 10.3999 15.9994 10.3999C19.0794 10.3999 21.5994 12.9199 21.5994 15.9999C21.5994 19.0799 19.0794 21.5999 15.9994 21.5999ZM15.9994 12.2666C13.9461 12.2666 12.2661 13.9466 12.2661 15.9999C12.2661 18.0532 13.9461 19.7332 15.9994 19.7332C18.0527 19.7332 19.7327 18.0532 19.7327 15.9999C19.7327 13.9466 18.0527 12.2666 15.9994 12.2666Z" fill="#068C53"/>
</svg>
