<svg width="32" height="32" viewBox="0 0 32 32" fill="none" xmlns="http://www.w3.org/2000/svg">
<path d="M27.2365 2.56675H27.2364L4.76425 2.56675L4.76414 2.56675C4.18161 2.56737 3.62312 2.79906 3.21121 3.21097C2.7993 3.62288 2.56762 4.18137 2.56699 4.76389V4.764L2.56699 27.2362L2.56699 27.2363C2.56762 27.8188 2.7993 28.3773 3.21121 28.7892C3.62312 29.2011 4.18161 29.4328 4.76414 29.4334H4.76425H27.2364H27.2365C27.819 29.4328 28.3775 29.2011 28.7894 28.7892C29.2013 28.3773 29.433 27.8188 29.4337 27.2363V27.2362V4.764V4.76389C29.433 4.18137 29.2013 3.62288 28.7894 3.21097C28.3775 2.79906 27.819 2.56737 27.2365 2.56675ZM28.0354 27.236C28.0352 27.4479 27.9509 27.651 27.8011 27.8008C27.6512 27.9506 27.4481 28.0349 27.2363 28.0352H4.76438C4.55251 28.0349 4.3494 27.9506 4.19959 27.8008C4.0498 27.651 3.96552 27.448 3.96521 27.2361C3.96521 27.2361 3.96521 27.2361 3.96521 27.236V4.76413C3.96521 4.7641 3.96521 4.76407 3.96521 4.76405C3.96552 4.55221 4.0498 4.34914 4.19959 4.19935C4.34938 4.04956 4.55246 3.96527 4.76429 3.96497C4.76432 3.96497 4.76435 3.96497 4.76438 3.96497H27.2363C27.2363 3.96497 27.2363 3.96497 27.2364 3.96497C27.4482 3.96527 27.6513 4.04956 27.8011 4.19935C27.9509 4.34916 28.0352 4.55227 28.0354 4.76413V27.236Z" fill="#068C53" stroke="#068C53" stroke-width="0.2"/>
<path d="M8.13499 5.56309H8.13489C7.62624 5.56308 7.12901 5.71392 6.70608 5.99651C6.28315 6.2791 5.95351 6.68076 5.75886 7.15069C5.5642 7.62063 5.51327 8.13773 5.6125 8.63661C5.71173 9.13549 5.95667 9.59374 6.31635 9.95341C6.67602 10.3131 7.13427 10.558 7.63315 10.6573C8.13203 10.7565 8.64913 10.7056 9.11906 10.5109C9.589 10.3163 9.99066 9.98662 10.2733 9.56369C10.5558 9.14077 10.7067 8.64354 10.7067 8.13488V8.13478C10.706 7.45294 10.4348 6.79922 9.95269 6.31708C9.47055 5.83495 8.81684 5.56378 8.13499 5.56309ZM8.13478 9.30845C7.90271 9.30843 7.67585 9.2396 7.48289 9.11067C7.28989 8.98171 7.13947 8.79843 7.05064 8.58398C6.96182 8.36954 6.93858 8.13357 6.98386 7.90592C7.02914 7.67827 7.14091 7.46916 7.30504 7.30503C7.46917 7.1409 7.67828 7.02913 7.90593 6.98385C8.13358 6.93857 8.36955 6.96181 8.58399 7.05063C8.79844 7.13946 8.98172 7.28988 9.11068 7.48288C9.23961 7.67584 9.30844 7.9027 9.30846 8.13477C9.30811 8.44594 9.18434 8.74427 8.96431 8.9643C8.74428 9.18433 8.44595 9.3081 8.13478 9.30845Z" fill="#068C53" stroke="#068C53" stroke-width="0.2"/>
<path d="M23.8655 21.2936H23.8654C23.3567 21.2936 22.8595 21.4444 22.4365 21.727C22.0136 22.0096 21.684 22.4112 21.4893 22.8812C21.2947 23.3511 21.2437 23.8682 21.343 24.3671C21.4422 24.866 21.6871 25.3242 22.0468 25.6839C22.4065 26.0436 22.8647 26.2885 23.3636 26.3877C23.8625 26.487 24.3796 26.436 24.8495 26.2414C25.3195 26.0467 25.7211 25.7171 26.0037 25.2942C26.2863 24.8712 26.4371 24.374 26.4371 23.8653V23.8652C26.4365 23.1834 26.1653 22.5297 25.6832 22.0475C25.201 21.5654 24.5473 21.2942 23.8655 21.2936ZM23.8652 25.0389C23.6332 25.0389 23.4063 24.9701 23.2133 24.8411C23.0204 24.7122 22.8699 24.5289 22.7811 24.3144C22.6923 24.1 22.669 23.864 22.7143 23.6364C22.7596 23.4087 22.8714 23.1996 23.0355 23.0355C23.1996 22.8714 23.4087 22.7596 23.6364 22.7143C23.864 22.669 24.1 22.6923 24.3145 22.7811C24.5289 22.8699 24.7122 23.0203 24.8411 23.2133C24.9701 23.4063 25.0389 23.6332 25.0389 23.8652C25.0386 24.1764 24.9148 24.4747 24.6948 24.6948C24.4747 24.9148 24.1764 25.0386 23.8652 25.0389Z" fill="#068C53" stroke="#068C53" stroke-width="0.2"/>
<path d="M23.8655 5.56309H23.8654C23.3567 5.56309 22.8595 5.71392 22.4365 5.99651C22.0136 6.2791 21.684 6.68076 21.4893 7.1507C21.2947 7.62063 21.2437 8.13773 21.343 8.63661C21.4422 9.13549 21.6871 9.59374 22.0468 9.95342C22.4065 10.3131 22.8647 10.558 23.3636 10.6573C23.8625 10.7565 24.3796 10.7056 24.8495 10.5109C25.3195 10.3163 25.7211 9.98662 26.0037 9.56369C26.2863 9.14076 26.4371 8.64353 26.4371 8.13488V8.13478C26.4365 7.45294 26.1653 6.79922 25.6832 6.31708C25.201 5.83494 24.5473 5.56378 23.8655 5.56309ZM23.8652 9.30845C23.6332 9.30842 23.4063 9.2396 23.2133 9.11066C23.0204 8.98171 22.8699 8.79842 22.7811 8.58398C22.6923 8.36953 22.669 8.13357 22.7143 7.90592C22.7596 7.67827 22.8714 7.46916 23.0355 7.30503C23.1996 7.1409 23.4088 7.02913 23.6364 6.98385C23.8641 6.93857 24.1 6.96181 24.3145 7.05063C24.5289 7.13946 24.7122 7.28988 24.8411 7.48288C24.9701 7.67584 25.0389 7.9027 25.0389 8.13477C25.0386 8.44594 24.9148 8.74427 24.6948 8.9643C24.4747 9.18433 24.1764 9.3081 23.8652 9.30845Z" fill="#068C53" stroke="#068C53" stroke-width="0.2"/>
<path d="M8.13499 21.2936H8.13489C7.62624 21.2936 7.12901 21.4444 6.70608 21.727C6.28314 22.0096 5.95351 22.4112 5.75886 22.8812C5.5642 23.3511 5.51327 23.8682 5.6125 24.3671C5.71174 24.866 5.95668 25.3242 6.31635 25.6839C6.67602 26.0436 7.13427 26.2885 7.63315 26.3877C8.13203 26.487 8.64914 26.436 9.11907 26.2414C9.58901 26.0467 9.99066 25.7171 10.2733 25.2942C10.5558 24.8712 10.7067 24.374 10.7067 23.8653V23.8652C10.706 23.1834 10.4348 22.5297 9.95268 22.0476C9.47055 21.5654 8.81683 21.2942 8.13499 21.2936ZM8.13478 25.0389C7.90271 25.0389 7.67585 24.9701 7.48289 24.8411C7.28989 24.7122 7.13947 24.5289 7.05064 24.3145C6.96182 24.1 6.93858 23.864 6.98386 23.6364C7.02914 23.4087 7.14091 23.1996 7.30504 23.0355C7.46917 22.8714 7.67828 22.7596 7.90593 22.7143C8.13358 22.669 8.36954 22.6923 8.58399 22.7811C8.79843 22.8699 8.98172 23.0203 9.11067 23.2133C9.23961 23.4063 9.30843 23.6332 9.30846 23.8652C9.30811 24.1764 9.18434 24.4747 8.96431 24.6948C8.74428 24.9148 8.44595 25.0386 8.13478 25.0389Z" fill="#068C53" stroke="#068C53" stroke-width="0.2"/>
<path d="M11.0115 19.9998L11.0113 20.0001C10.8809 20.1314 10.8079 20.3091 10.8082 20.4942C10.8085 20.6793 10.8822 20.8567 11.0131 20.9875C11.144 21.1184 11.3214 21.1921 11.5064 21.1924C11.6915 21.1928 11.8692 21.1197 12.0005 20.9893L12.0008 20.9891L20.9894 12.0005C20.9895 12.0004 20.9895 12.0004 20.9896 12.0003C21.0548 11.9355 21.1067 11.8584 21.1421 11.7735L21.0498 11.735L21.1421 11.7735C21.1776 11.6885 21.1959 11.5974 21.1961 11.5053C21.1963 11.4133 21.1782 11.322 21.1431 11.2369C21.1079 11.1519 21.0563 11.0745 20.9912 11.0094C20.9261 10.9443 20.8488 10.8927 20.7637 10.8575C20.6786 10.8224 20.5874 10.8044 20.4953 10.8045C20.4032 10.8047 20.3121 10.8231 20.2271 10.8585C20.1422 10.894 20.0651 10.9458 20.0003 11.0111C20.0003 11.0111 20.0002 11.0112 20.0001 11.0112L11.0115 19.9998Z" fill="#068C53" stroke="#068C53" stroke-width="0.2"/>
<path d="M19.9997 15.5055L15.5053 19.9999M19.9997 15.5055L15.5053 19.9999M19.9997 15.5055C20.0647 15.4406 20.1418 15.389 20.2266 15.3539M19.9997 15.5055L20.2266 15.3539M15.5053 19.9999C15.4403 20.0649 15.3888 20.142 15.3536 20.2269M15.5053 19.9999L15.3536 20.2269M15.3536 20.2269C15.3185 20.3117 15.3004 20.4027 15.3004 20.4946M15.3536 20.2269L15.3004 20.4946M15.3004 20.4946C15.3004 20.5864 15.3185 20.6774 15.3536 20.7623M15.3004 20.4946L15.3536 20.7623M15.3536 20.7623C15.3888 20.8471 15.4403 20.9242 15.5053 20.9892M15.3536 20.7623L15.5053 20.9892M15.5053 20.9892C15.6364 21.1204 15.8144 21.1941 15.9999 21.1941M15.5053 20.9892L15.9999 21.1941M15.9999 21.1941C16.0918 21.1941 16.1827 21.176 16.2676 21.1408M15.9999 21.1941L16.2676 21.1408M16.2676 21.1408C16.3524 21.1057 16.4296 21.0542 16.4945 20.9892M16.2676 21.1408L16.4945 20.9892M16.4945 20.9892L20.989 16.4948M16.4945 20.9892L20.989 16.4948M20.989 16.4948C21.0539 16.4298 21.1054 16.3527 21.1406 16.2678M20.989 16.4948L21.1406 16.2678M21.1406 16.2678C21.1757 16.183 21.1938 16.092 21.1938 16.0001M21.1406 16.2678L21.1938 16.0001M21.1938 16.0001C21.1938 15.9083 21.1757 15.8173 21.1406 15.7324M21.1938 16.0001L21.1406 15.7324M21.1406 15.7324C21.1054 15.6476 21.0539 15.5705 20.9889 15.5055M21.1406 15.7324L20.9889 15.5055M20.9889 15.5055C20.924 15.4406 20.8469 15.389 20.762 15.3539M20.9889 15.5055L20.762 15.3539M20.762 15.3539C20.6771 15.3187 20.5862 15.3006 20.4943 15.3006M20.762 15.3539L20.4943 15.3006M20.4943 15.3006C20.4025 15.3006 20.3115 15.3187 20.2266 15.3539M20.4943 15.3006L20.2266 15.3539" fill="#068C53" stroke="#068C53" stroke-width="0.2"/>
<path d="M11.5059 16.6993C11.5977 16.6994 11.6886 16.6814 11.7735 16.6463C11.8584 16.6112 11.9355 16.5598 12.0005 16.4949L12.0005 16.4948L16.495 12.0004C16.6262 11.8692 16.6999 11.6913 16.6999 11.5058C16.6999 11.3202 16.6262 11.1423 16.495 11.0111C16.3638 10.8799 16.1859 10.8063 16.0004 10.8062C15.8148 10.8062 15.6369 10.8799 15.5057 11.0111L15.5764 11.0818L15.5057 11.0111L11.0113 15.5055C10.9134 15.6033 10.8467 15.7279 10.8197 15.8636C10.7927 15.9993 10.8065 16.14 10.8595 16.2678C10.9125 16.3956 11.0022 16.5049 11.1173 16.5817C11.2323 16.6585 11.3676 16.6994 11.5059 16.6993ZM11.5059 16.6993C11.5059 16.6993 11.506 16.6993 11.506 16.6993L11.5059 16.5993L11.5058 16.6993C11.5058 16.6993 11.5059 16.6993 11.5059 16.6993Z" fill="#068C53" stroke="#068C53" stroke-width="0.2"/>
</svg>
