<svg width="32" height="32" viewBox="0 0 32 32" fill="none" xmlns="http://www.w3.org/2000/svg">
<path d="M25.0667 1.95H6.4C6.01544 1.95 5.64662 2.10277 5.3747 2.3747C5.10277 2.64662 4.95 3.01544 4.95 3.4V28.6C4.95 28.9846 5.10277 29.3534 5.3747 29.6253C5.64662 29.8972 6.01544 30.05 6.4 30.05H25.0667C25.4512 30.05 25.82 29.8972 26.092 29.6253C26.3639 29.3534 26.5167 28.9846 26.5167 28.6V3.4C26.5167 3.01544 26.3639 2.64662 26.092 2.3747C25.82 2.10277 25.4512 1.95 25.0667 1.95ZM25.4833 28.6C25.4833 28.7105 25.4394 28.8165 25.3613 28.8946C25.2832 28.9728 25.1772 29.0167 25.0667 29.0167H6.4C6.28949 29.0167 6.18351 28.9728 6.10537 28.8946C6.02723 28.8165 5.98333 28.7105 5.98333 28.6V3.4C5.98333 3.28949 6.02723 3.18351 6.10537 3.10537C6.18351 3.02723 6.28949 2.98333 6.4 2.98333H25.0667C25.1772 2.98333 25.2832 3.02723 25.3613 3.10537C25.4394 3.18351 25.4833 3.28949 25.4833 3.4V28.6Z" fill="#068C53" stroke="#068C53" stroke-width="0.1"/>
<path d="M24.1329 3.8167H7.33288C7.19585 3.8167 7.06443 3.87113 6.96754 3.96803C6.87065 4.06492 6.81621 4.19634 6.81621 4.33337V27.6667C6.81621 27.8037 6.87065 27.9351 6.96754 28.032C7.06443 28.1289 7.19585 28.1834 7.33288 28.1834H24.1329C24.2699 28.1834 24.4013 28.1289 24.4982 28.032C24.5951 27.9351 24.6495 27.8037 24.6495 27.6667V4.33337C24.6495 4.19634 24.5951 4.06492 24.4982 3.96803C24.4013 3.87113 24.2699 3.8167 24.1329 3.8167ZM23.6162 27.15H7.84954V4.85003H23.6162V27.15Z" fill="#068C53" stroke="#068C53" stroke-width="0.1"/>
<path d="M9.18335 10.137H9.18337C9.32039 10.137 9.45178 10.0825 9.54865 9.98561C9.54865 9.98561 9.54866 9.98561 9.54866 9.98561L12.8486 6.68564C12.8978 6.63804 12.9371 6.58114 12.9641 6.51825C12.9912 6.45521 13.0054 6.38741 13.006 6.31881C13.0066 6.25021 12.9935 6.18218 12.9676 6.11868C12.9416 6.05518 12.9032 5.9975 12.8547 5.94898C12.8062 5.90047 12.7485 5.86211 12.685 5.83613C12.6215 5.81015 12.5535 5.79708 12.4849 5.79768C12.4163 5.79827 12.3485 5.81252 12.2854 5.8396C12.2225 5.86662 12.1656 5.90587 12.118 5.95507L8.81808 9.25504L8.81807 9.25504C8.74583 9.3273 8.69665 9.41935 8.67672 9.51956C8.65679 9.61977 8.66702 9.72363 8.70612 9.81803C8.74522 9.91242 8.81142 9.99311 8.89637 10.0499C8.98131 10.1067 9.08118 10.137 9.18335 10.137Z" fill="#068C53" stroke="#068C53" stroke-width="0.1"/>
<path d="M19.3485 26.3189L19.3485 26.3189L22.6487 23.0186L22.6487 23.0186L22.6493 23.018C22.7434 22.9205 22.7955 22.79 22.7943 22.6546C22.7932 22.5191 22.7388 22.3895 22.643 22.2937C22.5472 22.1979 22.4177 22.1436 22.2822 22.1424C22.1467 22.1412 22.0162 22.1933 21.9188 22.2874L21.9188 22.2874L21.9181 22.288L18.6179 25.5883L18.6179 25.5883C18.521 25.6852 18.4666 25.8166 18.4666 25.9536C18.4666 26.0906 18.521 26.222 18.6179 26.3189L18.6179 26.3189C18.7148 26.4157 18.8462 26.4701 18.9832 26.4701C19.1202 26.4701 19.2516 26.4157 19.3485 26.3189Z" fill="#068C53" stroke="#068C53" stroke-width="0.1"/>
<path d="M10.7009 21.0319L10.7009 21.0319C10.7978 21.1287 10.9292 21.1831 11.0662 21.1831C11.2032 21.1831 11.3346 21.1287 11.4315 21.0319L11.4315 21.0319L20.7648 11.6985L20.7654 11.6979C20.8595 11.6005 20.9116 11.47 20.9104 11.3345C20.9092 11.199 20.8549 11.0694 20.7591 10.9736C20.6633 10.8778 20.5337 10.8235 20.3983 10.8223C20.2628 10.8212 20.1323 10.8732 20.0348 10.9673L20.0348 10.9673L20.0342 10.968L10.7009 20.3013L10.7009 20.3013C10.604 20.3982 10.5496 20.5296 10.5496 20.6666C10.5496 20.8036 10.604 20.935 10.7009 21.0319Z" fill="#068C53" stroke="#068C53" stroke-width="0.1"/>
</svg>
