<svg width="32" height="32" viewBox="0 0 32 32" fill="none" xmlns="http://www.w3.org/2000/svg">
<path d="M20.2668 22.4V20.2665H28.8002V18.1334H24.5336V16H28.8002V3.19995H11.7336V7.46651H9.60019V3.19995H7.46676V11.7337H5.33332V3.19995H3.2002V18.1334H9.60019V20.2665H3.2002V22.4H5.33364V24.5334H3.2002V26.6665H5.33364V28.7999H7.46707V22.4009H9.60019V28.7999H26.6668V24.5334H28.8002V22.4H20.2668ZM24.5336 5.33339H26.6668V13.8668H24.5336V5.33339ZM22.4002 18.1334H20.2668V9.59995H22.4002V18.1334ZM13.8668 5.33339H22.4002V7.46683H13.8668V5.33339ZM9.60019 9.59995H18.1336V11.7334H9.60019V9.59995ZM18.1336 13.8665V22.4H16.0002V13.8665H18.1336ZM13.8668 26.6665H11.7333V18.1334H13.8668V26.6665ZM13.8668 16H5.33364V13.8665H13.8671L13.8668 16ZM24.5336 26.6665H16.0002V24.5334H24.5336V26.6665Z" fill="#068C53"/>
</svg>
