<svg width="24" height="24" viewBox="0 0 24 24" fill="none" xmlns="http://www.w3.org/2000/svg">
<path fill-rule="evenodd" clip-rule="evenodd" d="M7.0342 2.83993C7.97448 2.45046 8.98226 2.25 10 2.25C11.0177 2.25 12.0255 2.45046 12.9658 2.83993C13.9061 3.22941 14.7604 3.80027 15.4801 4.51992C16.1997 5.23958 16.7706 6.09393 17.1601 7.0342C17.5495 7.97448 17.75 8.98226 17.75 10C17.75 11.0177 17.5495 12.0255 17.1601 12.9658C16.7706 13.9061 16.1997 14.7604 15.4801 15.4801C14.7604 16.1997 13.9061 16.7706 12.9658 17.1601C12.0255 17.5495 11.0177 17.75 10 17.75C8.98226 17.75 7.97448 17.5495 7.0342 17.1601C6.09393 16.7706 5.23958 16.1997 4.51992 15.4801C3.80027 14.7604 3.22941 13.9061 2.83993 12.9658C2.45046 12.0255 2.25 11.0177 2.25 10C2.25 8.98226 2.45046 7.97448 2.83993 7.0342C3.22941 6.09393 3.80027 5.23958 4.51992 4.51992C5.23958 3.80027 6.09393 3.22941 7.0342 2.83993ZM10 3.75C9.17924 3.75 8.36651 3.91166 7.60823 4.22575C6.84994 4.53984 6.16095 5.00022 5.58058 5.58058C5.00022 6.16095 4.53984 6.84994 4.22575 7.60823C3.91166 8.36651 3.75 9.17924 3.75 10C3.75 10.8208 3.91166 11.6335 4.22575 12.3918C4.53984 13.1501 5.00022 13.8391 5.58058 14.4194C6.16095 14.9998 6.84994 15.4602 7.60823 15.7742C8.36651 16.0883 9.17924 16.25 10 16.25C10.8208 16.25 11.6335 16.0883 12.3918 15.7742C13.1501 15.4602 13.8391 14.9998 14.4194 14.4194C14.9998 13.8391 15.4602 13.1501 15.7742 12.3918C16.0883 11.6335 16.25 10.8208 16.25 10C16.25 9.17924 16.0883 8.36651 15.7742 7.60823C15.4602 6.84994 14.9998 6.16095 14.4194 5.58058C13.8391 5.00022 13.1501 4.53984 12.3918 4.22575C11.6335 3.91166 10.8208 3.75 10 3.75Z" fill="#F8DB08"/>
<path fill-rule="evenodd" clip-rule="evenodd" d="M14.4697 14.4697C14.7626 14.1768 15.2374 14.1768 15.5303 14.4697L21.5303 20.4697C21.8232 20.7626 21.8232 21.2374 21.5303 21.5303C21.2374 21.8232 20.7626 21.8232 20.4697 21.5303L14.4697 15.5303C14.1768 15.2374 14.1768 14.7626 14.4697 14.4697Z" fill="#F8DB08"/>
</svg>
