<svg width="26" height="26" viewBox="0 0 26 26" fill="none" xmlns="http://www.w3.org/2000/svg">
<path fill-rule="evenodd" clip-rule="evenodd" d="M4.2605 18.344C4.85437 17.7501 5.65982 17.4165 6.49967 17.4165C7.33953 17.4165 8.14498 17.7501 8.73885 18.344C9.33271 18.9379 9.66634 19.7433 9.66634 20.5832C9.66634 21.423 9.33271 22.2285 8.73885 22.8223C8.14498 23.4162 7.33953 23.7498 6.49967 23.7498C5.65982 23.7498 4.85437 23.4162 4.2605 22.8223C3.66664 22.2285 3.33301 21.423 3.33301 20.5832C3.33301 19.7433 3.66664 18.9379 4.2605 18.344ZM6.49967 19.4165C6.19026 19.4165 5.89351 19.5394 5.67472 19.7582C5.45592 19.977 5.33301 20.2738 5.33301 20.5832C5.33301 20.8926 5.45592 21.1893 5.67472 21.4081C5.89351 21.6269 6.19026 21.7498 6.49967 21.7498C6.80909 21.7498 7.10584 21.6269 7.32463 21.4081C7.54343 21.1893 7.66634 20.8926 7.66634 20.5832C7.66634 20.2738 7.54343 19.977 7.32463 19.7582C7.10584 19.5394 6.80909 19.4165 6.49967 19.4165Z" fill="#068C53"/>
<path fill-rule="evenodd" clip-rule="evenodd" d="M16.1775 18.344C16.7714 17.7501 17.5768 17.4165 18.4167 17.4165C19.2565 17.4165 20.062 17.7501 20.6558 18.344C21.2497 18.9379 21.5833 19.7433 21.5833 20.5832C21.5833 21.423 21.2497 22.2285 20.6558 22.8223C20.062 23.4162 19.2565 23.7498 18.4167 23.7498C17.5768 23.7498 16.7714 23.4162 16.1775 22.8223C15.5836 22.2285 15.25 21.423 15.25 20.5832C15.25 19.7433 15.5836 18.9379 16.1775 18.344ZM18.4167 19.4165C18.1072 19.4165 17.8105 19.5394 17.5917 19.7582C17.3729 19.977 17.25 20.2738 17.25 20.5832C17.25 20.8926 17.3729 21.1893 17.5917 21.4081C17.8105 21.6269 18.1072 21.7498 18.4167 21.7498C18.7261 21.7498 19.0228 21.6269 19.2416 21.4081C19.4604 21.1893 19.5833 20.8926 19.5833 20.5832C19.5833 20.2738 19.4604 19.977 19.2416 19.7582C19.0228 19.5394 18.7261 19.4165 18.4167 19.4165Z" fill="#068C53"/>
<path fill-rule="evenodd" clip-rule="evenodd" d="M3.33301 3.25C3.33301 2.69772 3.78072 2.25 4.33301 2.25H6.49967C7.05196 2.25 7.49967 2.69772 7.49967 3.25V17.4167H18.4163C18.9686 17.4167 19.4163 17.8644 19.4163 18.4167C19.4163 18.969 18.9686 19.4167 18.4163 19.4167H6.49967C5.94739 19.4167 5.49967 18.969 5.49967 18.4167V4.25H4.33301C3.78072 4.25 3.33301 3.80228 3.33301 3.25Z" fill="#068C53"/>
<path fill-rule="evenodd" clip-rule="evenodd" d="M5.50258 5.3453C5.54193 4.79442 6.02041 4.37974 6.57129 4.41909L21.738 5.50242C22.0147 5.52219 22.2708 5.65606 22.445 5.87202C22.6193 6.08799 22.6959 6.36662 22.6567 6.6413L21.5733 14.2246C21.503 14.7173 21.081 15.0832 20.5834 15.0832H6.50004C5.94776 15.0832 5.50004 14.6355 5.50004 14.0832C5.50004 13.5309 5.94776 13.0832 6.50004 13.0832H19.7161L20.525 7.42088L6.4288 6.41401C5.87791 6.37466 5.46324 5.89618 5.50258 5.3453Z" fill="#068C53"/>
</svg>
