<svg width="32" height="32" viewBox="0 0 32 32" fill="none" xmlns="http://www.w3.org/2000/svg">
<path d="M26.101 19.8903L24.9228 20.5751L26.545 20.6537L26.4698 20.524L26.5452 20.6536L26.5451 20.6537C26.7564 20.5311 26.828 20.2607 26.7055 20.0498L26.7054 20.0496C26.5822 19.8382 26.3109 19.7674 26.1013 19.8902C26.1012 19.8902 26.1011 19.8903 26.101 19.8903ZM26.5758 20.1251C26.4943 19.9852 26.3148 19.9388 26.1769 20.0197L26.5758 20.1251Z" fill="#068C53" stroke="#068C53" stroke-width="0.3"/>
<path d="M15.74 5.9101C15.8766 5.82982 16.0463 5.83047 16.1828 5.90902L16.183 5.90912L29.9291 13.8443L29.9293 13.8444C30.073 13.9276 30.146 14.0807 30.1498 14.2151C30.1499 14.2152 30.15 14.2153 30.15 14.2153V14.2154V14.2155V14.216L30.15 14.2161V14.2183V14.2185L30.15 14.2263C30.15 14.2264 30.15 14.2265 30.15 14.2266V14.2277L15.74 5.9101ZM15.74 5.9101C15.7398 5.91019 15.7397 5.91028 15.7395 5.91036L2.08286 13.8468C2.08103 13.8478 2.07917 13.8488 2.07729 13.8499L2.07675 13.8502C1.99303 13.8984 1.93945 13.9748 1.90776 14.0385C1.87679 14.1007 1.85604 14.1724 1.85572 14.2312L1.85572 14.2318L1.85269 16.395L1.85074 17.7959L1.85015 18.2154L1.85002 18.3095L1.85002 18.3098L1.85002 18.3098C1.85002 18.3099 1.85002 18.31 1.85002 18.3101C1.85001 18.3109 1.85001 18.3118 1.85001 18.3127L1.85 18.3195L1.85 18.3218L1.85 18.3224L1.85 18.3225L1.85 18.3225C1.85005 18.3226 1.8501 18.3226 1.85014 18.3226C1.8539 18.4762 1.93765 18.6171 2.07105 18.6938L2.0709 18.6937L2.14588 18.5638L2.07107 18.6938L15.74 5.9101ZM15.8218 26.6305L15.8516 26.6476L15.8591 26.6519L15.8614 26.6532L15.8631 26.6542C15.8634 26.6544 15.8649 26.6541 15.8676 26.6533M15.8218 26.6305L29.9971 18.308C29.9966 18.4117 29.9419 18.5074 29.8518 18.5593M15.8218 26.6305C15.8247 26.6322 15.8276 26.6338 15.8306 26.6354M15.8218 26.6305L15.8306 26.6354M15.8676 26.6533C15.9954 26.7081 16.1432 26.7001 16.2642 26.629L16.2637 26.6293L16.1883 26.4996M15.8676 26.6533C15.8632 26.6514 15.8588 26.6495 15.8544 26.6474M15.8676 26.6533C15.8879 26.6477 15.9716 26.6158 16.0078 26.5371C16.0698 26.5444 16.1335 26.5318 16.1883 26.4996M16.1883 26.4996L16.2644 26.6288L24.0936 22.079M16.1883 26.4996L15.8544 26.6474M24.0936 22.079L24.0937 22.0789L24.0184 21.9492L24.0936 22.079ZM24.0936 22.079C24.3049 21.9565 24.3766 21.686 24.254 21.475L24.2539 21.4748C24.1305 21.2634 23.8591 21.1935 23.65 21.3154L16.4877 25.4774L16.4908 24.4643L29.1736 17.0935L29.2675 17.0389L29.2645 18.0526L27.0963 19.3127C27.0963 19.3127 27.0963 19.3127 27.0962 19.3127C26.8849 19.4353 26.8134 19.7057 26.9359 19.9166C27.0589 20.1288 27.3299 20.1977 27.5395 20.0766L27.5398 20.0764L29.9267 18.6893C29.9269 18.6892 29.927 18.6891 29.9271 18.689L29.9272 18.689L29.8518 18.5593M29.8518 18.5593L27.4644 19.9467L29.8518 18.5593ZM2.00002 18.3103L2.00002 18.31L1.86503 18.3095C1.88884 18.2907 1.93888 18.2579 2.00009 18.2561L2.00002 18.3103ZM2.00002 18.3103L1.8643 18.3101L2.00002 18.3103ZM15.8752 26.4879C15.8589 26.5139 15.8476 26.546 15.847 26.5852L15.8752 26.4879ZM15.8752 26.4879C15.8829 26.4924 15.8899 26.4964 15.8961 26.5L15.8752 26.4879ZM15.8544 26.6474C15.8545 26.648 15.8547 26.6486 15.8548 26.6493C15.8578 26.6512 15.852 26.6478 15.8306 26.6354M15.8544 26.6474L15.8306 26.6354M2.12978 13.8317C2.1291 13.8318 2.12814 13.832 2.12709 13.8321L2.12972 13.8317L2.12978 13.8317ZM2.12978 13.8317C2.1305 13.8316 2.13089 13.8316 2.13072 13.8316L2.13072 13.8316L2.13071 13.8316L2.13066 13.8316L2.13047 13.8316L2.12978 13.8317ZM30.141 14.1764L30.1401 14.1741L30.1399 14.1734L30.1398 14.1733L30.1398 14.1732L30.1398 14.1732L30.141 14.1764ZM30 14.2278L30.1367 14.2278C30.089 14.2699 30.0419 14.2831 30 14.2818L30 14.2278ZM15.6053 23.0741L15.6042 23.4406L2.7343 16.017L2.73728 14.9967L15.6073 22.4224L15.6053 23.0741ZM16.4906 22.503L16.4908 22.4223L29.2646 14.9966L29.2617 16.0144L16.4878 23.4354L16.4892 22.9607L16.4906 22.503ZM15.9629 6.80211L28.8271 14.2281L16.0491 21.6573L3.1791 14.2313L15.9629 6.80211ZM2.7343 18.0566L2.73728 17.0387L15.6051 24.4613L15.6023 25.4816L2.7343 18.0566Z" fill="#068C53" stroke="#068C53" stroke-width="0.3"/>
<path d="M19.0306 14.7659C19.0304 14.7658 19.0286 14.7659 19.0253 14.7663L16.6979 13.4229L16.6967 13.4222C16.6969 13.4223 16.6977 13.4228 16.6993 13.4237C16.7145 13.4326 16.7655 13.4622 16.8605 13.5171C18.3894 14.3973 18.9646 14.7282 19.0275 14.7641L19.0306 14.7659ZM19.0306 14.7659L19.0318 14.7666C19.0324 14.767 19.0317 14.7665 19.0306 14.7659ZM15.8055 18.0344L15.8056 18.0345C15.9424 18.1133 16.1122 18.1134 16.2484 18.0334C16.2485 18.0333 16.2487 18.0333 16.2488 18.0332L22.1414 14.6086L22.1415 14.6085C22.2783 14.5289 22.3608 14.3829 22.3608 14.2259C22.3608 14.068 22.276 13.9226 22.1398 13.8441L16.206 10.4251L16.1311 10.5551L16.206 10.4251C16.1217 10.3765 16.0323 10.3652 15.9579 10.3701C15.8849 10.3749 15.8161 10.3958 15.7653 10.4246L15.7477 10.4347L15.7465 10.4358L9.87091 13.8508C9.87084 13.8509 9.87076 13.8509 9.8707 13.8509C9.73413 13.9301 9.65078 14.0763 9.65078 14.2333C9.65078 14.3914 9.73539 14.5373 9.87255 14.6158C9.8726 14.6159 9.87265 14.6159 9.87271 14.6159L15.8055 18.0344ZM15.9789 13.3557C16.2442 13.5085 16.4878 13.6487 16.7111 13.7773C17.0189 13.9552 17.7816 14.3954 19.271 15.2543L16.0254 17.1414L12.7352 15.2451L15.9789 13.3557ZM16.4605 12.6084L16.4221 12.5862L16.4251 11.5709L21.0382 14.229L20.1535 14.7448L18.1996 13.6144L16.8705 12.8456L16.4605 12.6084ZM11.8631 14.7232L11.8477 14.7322L10.9751 14.2306L15.5414 11.5767L15.5385 12.5897L13.5765 13.7286L12.2584 14.4937L11.8631 14.7232Z" fill="#068C53" stroke="#068C53" stroke-width="0.3"/>
</svg>
