<svg width="32" height="32" viewBox="0 0 32 32" fill="none" xmlns="http://www.w3.org/2000/svg">
<mask id="path-1-outside-1_0_229" maskUnits="userSpaceOnUse" x="2.2002" y="2.19995" width="27" height="27" fill="black">
<rect fill="white" x="2.2002" y="2.19995" width="27" height="27"/>
<path d="M28.1602 3.19995H3.8402C3.4866 3.19995 3.2002 3.48635 3.2002 3.83995V28.16C3.2002 28.5135 3.4866 28.7999 3.8402 28.7999H28.1602C28.5138 28.7999 28.8002 28.5135 28.8002 28.16V3.83995C28.8002 3.48635 28.5138 3.19995 28.1602 3.19995ZM27.5202 27.84H20.8002C20.6236 27.84 20.4802 27.6966 20.4802 27.52V23.36C20.4802 23.1833 20.6236 23.04 20.8002 23.04H27.5202C27.6968 23.04 27.8402 23.1833 27.8402 23.36V27.52C27.8402 27.6966 27.6968 27.84 27.5202 27.84ZM4.4802 4.15995H14.0802C14.2565 4.15995 14.4002 4.30363 14.4002 4.47995V14.08C14.4002 14.2563 14.2565 14.4 14.0802 14.4H4.4802C4.30388 14.4 4.1602 14.2563 4.1602 14.08V4.47995C4.1602 4.30363 4.30388 4.15995 4.4802 4.15995ZM27.8402 22.08C27.8402 22.2566 27.6968 22.4 27.5202 22.4H23.3602C23.1836 22.4 23.0402 22.2566 23.0402 22.08V15.36C23.0402 15.1836 23.1836 15.04 23.3602 15.04H27.5202C27.6968 15.04 27.8402 15.1836 27.8402 15.36V22.08ZM15.3602 22.4C15.1839 22.4 15.0402 22.2566 15.0402 22.08V15.36C15.0402 15.1836 15.1839 15.04 15.3602 15.04H22.0802C22.2568 15.04 22.4002 15.1836 22.4002 15.36V22.08C22.4002 22.2566 22.2568 22.4 22.0802 22.4H15.3602ZM4.1602 19.52V15.36C4.1602 15.1836 4.30388 15.04 4.4802 15.04H8.6402C8.81651 15.04 8.9602 15.1836 8.9602 15.36V19.52C8.9602 19.6966 8.81651 19.84 8.6402 19.84H4.4802C4.30388 19.84 4.1602 19.6966 4.1602 19.52ZM9.60019 22.08V15.36C9.60019 15.1836 9.74388 15.04 9.9202 15.04H14.0802C14.2565 15.04 14.4002 15.1836 14.4002 15.36V22.08C14.4002 22.2566 14.2565 22.4 14.0802 22.4H9.9202C9.74388 22.4 9.60019 22.2566 9.60019 22.08ZM22.4002 9.91995V14.08C22.4002 14.2563 22.2568 14.4 22.0802 14.4H15.3602C15.1839 14.4 15.0402 14.2563 15.0402 14.08V9.91995C15.0402 9.74363 15.1839 9.59995 15.3602 9.59995H22.0802C22.2568 9.59995 22.4002 9.74363 22.4002 9.91995ZM27.8402 14.08C27.8402 14.2563 27.6968 14.4 27.5202 14.4H23.3602C23.1836 14.4 23.0402 14.2563 23.0402 14.08V9.91995C23.0402 9.74363 23.1836 9.59995 23.3602 9.59995H27.5202C27.6968 9.59995 27.8402 9.74363 27.8402 9.91995V14.08ZM27.8402 4.47995V8.63995C27.8402 8.81627 27.6968 8.95995 27.5202 8.95995H23.3602C23.1836 8.95995 23.0402 8.81627 23.0402 8.63995V4.47995C23.0402 4.30363 23.1836 4.15995 23.3602 4.15995H27.5202C27.6968 4.15995 27.8402 4.30363 27.8402 4.47995ZM22.4002 4.47995V8.63995C22.4002 8.81627 22.2568 8.95995 22.0802 8.95995H15.3602C15.1839 8.95995 15.0402 8.81627 15.0402 8.63995V4.47995C15.0402 4.30363 15.1839 4.15995 15.3602 4.15995H22.0802C22.2568 4.15995 22.4002 4.30363 22.4002 4.47995ZM4.1602 27.52V20.8C4.1602 20.6233 4.30388 20.4799 4.4802 20.4799H8.6402C8.81651 20.4799 8.9602 20.6233 8.9602 20.8V27.52C8.9602 27.6966 8.81651 27.84 8.6402 27.84H4.4802C4.30388 27.84 4.1602 27.6966 4.1602 27.52ZM9.60019 27.52V23.36C9.60019 23.1833 9.74388 23.04 9.9202 23.04H14.0802C14.2565 23.04 14.4002 23.1833 14.4002 23.36V27.52C14.4002 27.6966 14.2565 27.84 14.0802 27.84H9.9202C9.74388 27.84 9.60019 27.6966 9.60019 27.52ZM15.0402 27.52V23.36C15.0402 23.1833 15.1839 23.04 15.3602 23.04H19.5202C19.6968 23.04 19.8402 23.1833 19.8402 23.36V27.52C19.8402 27.6966 19.6968 27.84 19.5202 27.84H15.3602C15.1839 27.84 15.0402 27.6966 15.0402 27.52Z"/>
</mask>
<path d="M28.1602 3.19995H3.8402C3.4866 3.19995 3.2002 3.48635 3.2002 3.83995V28.16C3.2002 28.5135 3.4866 28.7999 3.8402 28.7999H28.1602C28.5138 28.7999 28.8002 28.5135 28.8002 28.16V3.83995C28.8002 3.48635 28.5138 3.19995 28.1602 3.19995ZM27.5202 27.84H20.8002C20.6236 27.84 20.4802 27.6966 20.4802 27.52V23.36C20.4802 23.1833 20.6236 23.04 20.8002 23.04H27.5202C27.6968 23.04 27.8402 23.1833 27.8402 23.36V27.52C27.8402 27.6966 27.6968 27.84 27.5202 27.84ZM4.4802 4.15995H14.0802C14.2565 4.15995 14.4002 4.30363 14.4002 4.47995V14.08C14.4002 14.2563 14.2565 14.4 14.0802 14.4H4.4802C4.30388 14.4 4.1602 14.2563 4.1602 14.08V4.47995C4.1602 4.30363 4.30388 4.15995 4.4802 4.15995ZM27.8402 22.08C27.8402 22.2566 27.6968 22.4 27.5202 22.4H23.3602C23.1836 22.4 23.0402 22.2566 23.0402 22.08V15.36C23.0402 15.1836 23.1836 15.04 23.3602 15.04H27.5202C27.6968 15.04 27.8402 15.1836 27.8402 15.36V22.08ZM15.3602 22.4C15.1839 22.4 15.0402 22.2566 15.0402 22.08V15.36C15.0402 15.1836 15.1839 15.04 15.3602 15.04H22.0802C22.2568 15.04 22.4002 15.1836 22.4002 15.36V22.08C22.4002 22.2566 22.2568 22.4 22.0802 22.4H15.3602ZM4.1602 19.52V15.36C4.1602 15.1836 4.30388 15.04 4.4802 15.04H8.6402C8.81651 15.04 8.9602 15.1836 8.9602 15.36V19.52C8.9602 19.6966 8.81651 19.84 8.6402 19.84H4.4802C4.30388 19.84 4.1602 19.6966 4.1602 19.52ZM9.60019 22.08V15.36C9.60019 15.1836 9.74388 15.04 9.9202 15.04H14.0802C14.2565 15.04 14.4002 15.1836 14.4002 15.36V22.08C14.4002 22.2566 14.2565 22.4 14.0802 22.4H9.9202C9.74388 22.4 9.60019 22.2566 9.60019 22.08ZM22.4002 9.91995V14.08C22.4002 14.2563 22.2568 14.4 22.0802 14.4H15.3602C15.1839 14.4 15.0402 14.2563 15.0402 14.08V9.91995C15.0402 9.74363 15.1839 9.59995 15.3602 9.59995H22.0802C22.2568 9.59995 22.4002 9.74363 22.4002 9.91995ZM27.8402 14.08C27.8402 14.2563 27.6968 14.4 27.5202 14.4H23.3602C23.1836 14.4 23.0402 14.2563 23.0402 14.08V9.91995C23.0402 9.74363 23.1836 9.59995 23.3602 9.59995H27.5202C27.6968 9.59995 27.8402 9.74363 27.8402 9.91995V14.08ZM27.8402 4.47995V8.63995C27.8402 8.81627 27.6968 8.95995 27.5202 8.95995H23.3602C23.1836 8.95995 23.0402 8.81627 23.0402 8.63995V4.47995C23.0402 4.30363 23.1836 4.15995 23.3602 4.15995H27.5202C27.6968 4.15995 27.8402 4.30363 27.8402 4.47995ZM22.4002 4.47995V8.63995C22.4002 8.81627 22.2568 8.95995 22.0802 8.95995H15.3602C15.1839 8.95995 15.0402 8.81627 15.0402 8.63995V4.47995C15.0402 4.30363 15.1839 4.15995 15.3602 4.15995H22.0802C22.2568 4.15995 22.4002 4.30363 22.4002 4.47995ZM4.1602 27.52V20.8C4.1602 20.6233 4.30388 20.4799 4.4802 20.4799H8.6402C8.81651 20.4799 8.9602 20.6233 8.9602 20.8V27.52C8.9602 27.6966 8.81651 27.84 8.6402 27.84H4.4802C4.30388 27.84 4.1602 27.6966 4.1602 27.52ZM9.60019 27.52V23.36C9.60019 23.1833 9.74388 23.04 9.9202 23.04H14.0802C14.2565 23.04 14.4002 23.1833 14.4002 23.36V27.52C14.4002 27.6966 14.2565 27.84 14.0802 27.84H9.9202C9.74388 27.84 9.60019 27.6966 9.60019 27.52ZM15.0402 27.52V23.36C15.0402 23.1833 15.1839 23.04 15.3602 23.04H19.5202C19.6968 23.04 19.8402 23.1833 19.8402 23.36V27.52C19.8402 27.6966 19.6968 27.84 19.5202 27.84H15.3602C15.1839 27.84 15.0402 27.6966 15.0402 27.52Z" fill="#068C53"/>
<path d="M28.1602 3.19995H3.8402C3.4866 3.19995 3.2002 3.48635 3.2002 3.83995V28.16C3.2002 28.5135 3.4866 28.7999 3.8402 28.7999H28.1602C28.5138 28.7999 28.8002 28.5135 28.8002 28.16V3.83995C28.8002 3.48635 28.5138 3.19995 28.1602 3.19995ZM27.5202 27.84H20.8002C20.6236 27.84 20.4802 27.6966 20.4802 27.52V23.36C20.4802 23.1833 20.6236 23.04 20.8002 23.04H27.5202C27.6968 23.04 27.8402 23.1833 27.8402 23.36V27.52C27.8402 27.6966 27.6968 27.84 27.5202 27.84ZM4.4802 4.15995H14.0802C14.2565 4.15995 14.4002 4.30363 14.4002 4.47995V14.08C14.4002 14.2563 14.2565 14.4 14.0802 14.4H4.4802C4.30388 14.4 4.1602 14.2563 4.1602 14.08V4.47995C4.1602 4.30363 4.30388 4.15995 4.4802 4.15995ZM27.8402 22.08C27.8402 22.2566 27.6968 22.4 27.5202 22.4H23.3602C23.1836 22.4 23.0402 22.2566 23.0402 22.08V15.36C23.0402 15.1836 23.1836 15.04 23.3602 15.04H27.5202C27.6968 15.04 27.8402 15.1836 27.8402 15.36V22.08ZM15.3602 22.4C15.1839 22.4 15.0402 22.2566 15.0402 22.08V15.36C15.0402 15.1836 15.1839 15.04 15.3602 15.04H22.0802C22.2568 15.04 22.4002 15.1836 22.4002 15.36V22.08C22.4002 22.2566 22.2568 22.4 22.0802 22.4H15.3602ZM4.1602 19.52V15.36C4.1602 15.1836 4.30388 15.04 4.4802 15.04H8.6402C8.81651 15.04 8.9602 15.1836 8.9602 15.36V19.52C8.9602 19.6966 8.81651 19.84 8.6402 19.84H4.4802C4.30388 19.84 4.1602 19.6966 4.1602 19.52ZM9.60019 22.08V15.36C9.60019 15.1836 9.74388 15.04 9.9202 15.04H14.0802C14.2565 15.04 14.4002 15.1836 14.4002 15.36V22.08C14.4002 22.2566 14.2565 22.4 14.0802 22.4H9.9202C9.74388 22.4 9.60019 22.2566 9.60019 22.08ZM22.4002 9.91995V14.08C22.4002 14.2563 22.2568 14.4 22.0802 14.4H15.3602C15.1839 14.4 15.0402 14.2563 15.0402 14.08V9.91995C15.0402 9.74363 15.1839 9.59995 15.3602 9.59995H22.0802C22.2568 9.59995 22.4002 9.74363 22.4002 9.91995ZM27.8402 14.08C27.8402 14.2563 27.6968 14.4 27.5202 14.4H23.3602C23.1836 14.4 23.0402 14.2563 23.0402 14.08V9.91995C23.0402 9.74363 23.1836 9.59995 23.3602 9.59995H27.5202C27.6968 9.59995 27.8402 9.74363 27.8402 9.91995V14.08ZM27.8402 4.47995V8.63995C27.8402 8.81627 27.6968 8.95995 27.5202 8.95995H23.3602C23.1836 8.95995 23.0402 8.81627 23.0402 8.63995V4.47995C23.0402 4.30363 23.1836 4.15995 23.3602 4.15995H27.5202C27.6968 4.15995 27.8402 4.30363 27.8402 4.47995ZM22.4002 4.47995V8.63995C22.4002 8.81627 22.2568 8.95995 22.0802 8.95995H15.3602C15.1839 8.95995 15.0402 8.81627 15.0402 8.63995V4.47995C15.0402 4.30363 15.1839 4.15995 15.3602 4.15995H22.0802C22.2568 4.15995 22.4002 4.30363 22.4002 4.47995ZM4.1602 27.52V20.8C4.1602 20.6233 4.30388 20.4799 4.4802 20.4799H8.6402C8.81651 20.4799 8.9602 20.6233 8.9602 20.8V27.52C8.9602 27.6966 8.81651 27.84 8.6402 27.84H4.4802C4.30388 27.84 4.1602 27.6966 4.1602 27.52ZM9.60019 27.52V23.36C9.60019 23.1833 9.74388 23.04 9.9202 23.04H14.0802C14.2565 23.04 14.4002 23.1833 14.4002 23.36V27.52C14.4002 27.6966 14.2565 27.84 14.0802 27.84H9.9202C9.74388 27.84 9.60019 27.6966 9.60019 27.52ZM15.0402 27.52V23.36C15.0402 23.1833 15.1839 23.04 15.3602 23.04H19.5202C19.6968 23.04 19.8402 23.1833 19.8402 23.36V27.52C19.8402 27.6966 19.6968 27.84 19.5202 27.84H15.3602C15.1839 27.84 15.0402 27.6966 15.0402 27.52Z" stroke="#068C53" stroke-width="0.4" mask="url(#path-1-outside-1_0_229)"/>
</svg>
