<svg width="32" height="32" viewBox="0 0 32 32" fill="none" xmlns="http://www.w3.org/2000/svg">
<path d="M21.0654 21.7188L21.0653 21.7188C20.793 21.4455 20.7929 21.0024 21.066 20.73L21.0654 21.7188ZM21.0654 21.7188L25.5977 26.2508C25.7339 26.3877 25.9131 26.4558 26.092 26.4558C26.2704 26.4558 26.4495 26.3877 26.5863 26.2509C26.8588 25.9784 26.8586 25.536 26.5864 25.2622L26.5863 25.2621M21.0654 21.7188L26.5863 25.2621M26.5863 25.2621L22.0543 20.73M26.5863 25.2621L22.0543 20.73M22.0543 20.73C21.7818 20.4569 21.3393 20.457 21.066 20.7299L22.0543 20.73Z" fill="#068C53" stroke="#068C53" stroke-width="0.1"/>
<mask id="path-2-outside-1_0_249" maskUnits="userSpaceOnUse" x="1" y="1" width="30" height="29" fill="black">
<rect fill="white" x="1" y="1" width="30" height="29"/>
<path d="M8.74102 18.4332L5.01143 18.9621C4.86432 18.9951 3.54525 19.3547 2.55927 21.9059C1.28769 25.1935 2.57438 27.1186 2.62989 27.1988C2.75634 27.382 2.97253 27.4884 3.18996 27.4788C3.41294 27.4699 3.61464 27.3474 3.72598 27.1547C4.0495 26.594 4.96794 25.0476 5.32601 24.6294C5.73187 24.1572 6.26696 23.7245 7.48056 24.5788C8.54734 25.3289 8.35891 26.1968 8.29784 26.3951L6.81963 28.8839C6.70028 29.0844 6.69843 29.3339 6.81347 29.5368C6.9285 29.7385 7.14408 29.8647 7.37662 29.8647L8.80795 29.8653H8.80857C8.94704 29.8653 9.08336 29.8212 9.1947 29.7382C13.1843 26.7886 13.1022 26.3812 13.0251 26.0006C12.9897 25.7415 13.0427 24.1964 13.1161 22.7623L16.8602 19.0173L18.1626 20.3197L17.0079 21.475C16.7544 21.7279 16.7544 22.1393 17.0079 22.3925L23.1533 28.5373C23.879 29.2636 24.8452 29.6636 25.8722 29.6636C26.8993 29.6636 27.8655 29.2636 28.5924 28.5367L28.8731 28.2554C29.5994 27.5294 30 26.5641 30 25.5364C30 24.5101 29.5994 23.5444 28.8731 22.8181L22.7274 16.6718C22.4841 16.4285 22.0526 16.4285 21.8093 16.6718L20.6552 17.8265L19.3528 16.5241L22.7622 13.1168C24.1964 13.0422 25.7421 12.9891 25.9861 13.0209C26.3805 13.1011 26.7892 13.1846 29.7375 9.19537C29.8202 9.08342 29.864 8.94834 29.864 8.80924V7.3773C29.864 7.14414 29.7394 6.92856 29.5368 6.81352C29.3338 6.69787 29.085 6.69972 28.8839 6.81908L26.395 8.29667C26.2124 8.3528 25.3325 8.55141 24.5782 7.48C23.7223 6.26548 24.1553 5.73193 24.6287 5.3273C25.0479 4.96769 26.5936 4.04956 27.154 3.72696C27.3468 3.61563 27.4695 3.413 27.4788 3.19033C27.4877 2.96797 27.3819 2.75732 27.1987 2.63026C27.1185 2.57474 25.1922 1.28744 21.9064 2.55932C19.3556 3.54531 18.9947 4.8653 18.9531 5.06268L18.4331 8.74016L15.0008 12.1724L11.959 9.12999C12.0823 8.79691 12.1505 8.44254 12.1505 8.07646C12.1505 7.26565 11.835 6.50234 11.2613 5.92901C11.2293 5.89693 11.1944 5.86887 11.1565 5.84419L5.8173 2.3641C5.55947 2.19663 5.22084 2.23148 5.00403 2.44891L2.7844 4.66823C2.56759 4.88566 2.53212 5.22491 2.69959 5.48212L6.18153 10.8213C6.20559 10.8586 6.23396 10.8941 6.26511 10.9255C6.83783 11.4989 7.59868 11.8147 8.4101 11.8147C8.7768 11.8147 9.13178 11.7472 9.4661 11.6238L12.5079 14.6656L8.74102 18.4332ZM12.0228 22.0209C11.9096 22.1341 11.8421 22.2846 11.8331 22.4443C11.7758 23.5176 11.6934 25.2663 11.7264 25.9873C11.3585 26.4176 9.90435 27.5914 8.59422 28.5678H8.51712L9.44667 27.0029C9.46363 26.9752 9.47812 26.945 9.49015 26.9144C9.76309 26.2387 9.85037 24.659 8.22814 23.517C7.18787 22.7857 5.66927 22.2383 4.34064 23.7844C4.0899 24.0771 3.68712 24.7034 3.3306 25.2836C3.24208 24.5967 3.28773 23.6197 3.76977 22.3734C4.42884 20.6694 5.16964 20.2855 5.30041 20.2296L9.13795 19.6875C9.27704 19.6677 9.40596 19.6039 9.50588 19.5036L13.4267 15.5825L14.2446 16.4004L10.4182 20.2287C10.1646 20.4822 10.1646 20.8924 10.4182 21.1462C10.5446 21.2727 10.7108 21.3365 10.8765 21.3365C11.0427 21.3365 11.2089 21.2727 11.3354 21.1462L15.1615 17.3195L15.9427 18.0995L12.0228 22.0209ZM22.2685 18.0489L27.9552 23.735C28.4373 24.2171 28.7022 24.8567 28.7022 25.5361C28.7022 26.2168 28.4373 26.8558 27.9546 27.3379L27.674 27.6198C27.1925 28.1006 26.5529 28.3655 25.8722 28.3655C25.1916 28.3655 24.5519 28.1006 24.0705 27.6198L18.3844 21.9342L19.5384 20.7795C19.5384 20.7789 19.5391 20.7789 19.5397 20.7789L21.1147 19.2039C21.1153 19.2033 21.1153 19.202 21.116 19.2014L22.2685 18.0489ZM19.0801 19.4019L17.3207 17.6418C17.3201 17.6418 17.3201 17.6412 17.3201 17.6405C17.3194 17.6405 17.3188 17.6405 17.3188 17.6399L10.5801 10.9021L11.2367 10.2437L14.5419 13.5492H14.5425L19.738 18.7443L19.0801 19.4019ZM19.5042 9.50378C19.6035 9.40447 19.668 9.27556 19.688 9.13585L20.2308 5.30108C20.2863 5.1697 20.6706 4.42767 22.374 3.76921C23.6215 3.28686 24.5985 3.24214 25.2841 3.32942C24.7046 3.68594 24.0776 4.09027 23.7855 4.3407C22.2352 5.66717 22.7845 7.18577 23.5175 8.22727C24.6596 9.85012 26.2396 9.76223 26.9156 9.48867C26.9464 9.47664 26.9751 9.46215 27.0035 9.44518L28.5671 8.51687V8.59459C27.5913 9.90348 26.4184 11.357 25.9885 11.7249C25.2705 11.6929 23.5188 11.7755 22.4449 11.8335C22.2845 11.8425 22.1334 11.9094 22.0208 12.0226L18.4356 15.6069L17.655 14.8263L21.1169 11.3638C21.3704 11.1109 21.3704 10.6995 21.1169 10.4457C20.8634 10.1928 20.4526 10.1928 20.1987 10.4457L16.7369 13.9091L15.9189 13.0906L19.5042 9.50378ZM8.41041 10.5169C7.96692 10.5169 7.55026 10.3519 7.2292 10.0518L4.07386 5.2138L5.5493 3.73868L10.387 6.89217C10.6883 7.21446 10.8533 7.63297 10.8527 8.07584C10.8527 8.53969 10.672 8.97455 10.3432 9.30301L9.6385 10.0083C9.30973 10.3365 8.87426 10.5169 8.41041 10.5169Z"/>
</mask>
<path d="M8.74102 18.4332L5.01143 18.9621C4.86432 18.9951 3.54525 19.3547 2.55927 21.9059C1.28769 25.1935 2.57438 27.1186 2.62989 27.1988C2.75634 27.382 2.97253 27.4884 3.18996 27.4788C3.41294 27.4699 3.61464 27.3474 3.72598 27.1547C4.0495 26.594 4.96794 25.0476 5.32601 24.6294C5.73187 24.1572 6.26696 23.7245 7.48056 24.5788C8.54734 25.3289 8.35891 26.1968 8.29784 26.3951L6.81963 28.8839C6.70028 29.0844 6.69843 29.3339 6.81347 29.5368C6.9285 29.7385 7.14408 29.8647 7.37662 29.8647L8.80795 29.8653H8.80857C8.94704 29.8653 9.08336 29.8212 9.1947 29.7382C13.1843 26.7886 13.1022 26.3812 13.0251 26.0006C12.9897 25.7415 13.0427 24.1964 13.1161 22.7623L16.8602 19.0173L18.1626 20.3197L17.0079 21.475C16.7544 21.7279 16.7544 22.1393 17.0079 22.3925L23.1533 28.5373C23.879 29.2636 24.8452 29.6636 25.8722 29.6636C26.8993 29.6636 27.8655 29.2636 28.5924 28.5367L28.8731 28.2554C29.5994 27.5294 30 26.5641 30 25.5364C30 24.5101 29.5994 23.5444 28.8731 22.8181L22.7274 16.6718C22.4841 16.4285 22.0526 16.4285 21.8093 16.6718L20.6552 17.8265L19.3528 16.5241L22.7622 13.1168C24.1964 13.0422 25.7421 12.9891 25.9861 13.0209C26.3805 13.1011 26.7892 13.1846 29.7375 9.19537C29.8202 9.08342 29.864 8.94834 29.864 8.80924V7.3773C29.864 7.14414 29.7394 6.92856 29.5368 6.81352C29.3338 6.69787 29.085 6.69972 28.8839 6.81908L26.395 8.29667C26.2124 8.3528 25.3325 8.55141 24.5782 7.48C23.7223 6.26548 24.1553 5.73193 24.6287 5.3273C25.0479 4.96769 26.5936 4.04956 27.154 3.72696C27.3468 3.61563 27.4695 3.413 27.4788 3.19033C27.4877 2.96797 27.3819 2.75732 27.1987 2.63026C27.1185 2.57474 25.1922 1.28744 21.9064 2.55932C19.3556 3.54531 18.9947 4.8653 18.9531 5.06268L18.4331 8.74016L15.0008 12.1724L11.959 9.12999C12.0823 8.79691 12.1505 8.44254 12.1505 8.07646C12.1505 7.26565 11.835 6.50234 11.2613 5.92901C11.2293 5.89693 11.1944 5.86887 11.1565 5.84419L5.8173 2.3641C5.55947 2.19663 5.22084 2.23148 5.00403 2.44891L2.7844 4.66823C2.56759 4.88566 2.53212 5.22491 2.69959 5.48212L6.18153 10.8213C6.20559 10.8586 6.23396 10.8941 6.26511 10.9255C6.83783 11.4989 7.59868 11.8147 8.4101 11.8147C8.7768 11.8147 9.13178 11.7472 9.4661 11.6238L12.5079 14.6656L8.74102 18.4332ZM12.0228 22.0209C11.9096 22.1341 11.8421 22.2846 11.8331 22.4443C11.7758 23.5176 11.6934 25.2663 11.7264 25.9873C11.3585 26.4176 9.90435 27.5914 8.59422 28.5678H8.51712L9.44667 27.0029C9.46363 26.9752 9.47812 26.945 9.49015 26.9144C9.76309 26.2387 9.85037 24.659 8.22814 23.517C7.18787 22.7857 5.66927 22.2383 4.34064 23.7844C4.0899 24.0771 3.68712 24.7034 3.3306 25.2836C3.24208 24.5967 3.28773 23.6197 3.76977 22.3734C4.42884 20.6694 5.16964 20.2855 5.30041 20.2296L9.13795 19.6875C9.27704 19.6677 9.40596 19.6039 9.50588 19.5036L13.4267 15.5825L14.2446 16.4004L10.4182 20.2287C10.1646 20.4822 10.1646 20.8924 10.4182 21.1462C10.5446 21.2727 10.7108 21.3365 10.8765 21.3365C11.0427 21.3365 11.2089 21.2727 11.3354 21.1462L15.1615 17.3195L15.9427 18.0995L12.0228 22.0209ZM22.2685 18.0489L27.9552 23.735C28.4373 24.2171 28.7022 24.8567 28.7022 25.5361C28.7022 26.2168 28.4373 26.8558 27.9546 27.3379L27.674 27.6198C27.1925 28.1006 26.5529 28.3655 25.8722 28.3655C25.1916 28.3655 24.5519 28.1006 24.0705 27.6198L18.3844 21.9342L19.5384 20.7795C19.5384 20.7789 19.5391 20.7789 19.5397 20.7789L21.1147 19.2039C21.1153 19.2033 21.1153 19.202 21.116 19.2014L22.2685 18.0489ZM19.0801 19.4019L17.3207 17.6418C17.3201 17.6418 17.3201 17.6412 17.3201 17.6405C17.3194 17.6405 17.3188 17.6405 17.3188 17.6399L10.5801 10.9021L11.2367 10.2437L14.5419 13.5492H14.5425L19.738 18.7443L19.0801 19.4019ZM19.5042 9.50378C19.6035 9.40447 19.668 9.27556 19.688 9.13585L20.2308 5.30108C20.2863 5.1697 20.6706 4.42767 22.374 3.76921C23.6215 3.28686 24.5985 3.24214 25.2841 3.32942C24.7046 3.68594 24.0776 4.09027 23.7855 4.3407C22.2352 5.66717 22.7845 7.18577 23.5175 8.22727C24.6596 9.85012 26.2396 9.76223 26.9156 9.48867C26.9464 9.47664 26.9751 9.46215 27.0035 9.44518L28.5671 8.51687V8.59459C27.5913 9.90348 26.4184 11.357 25.9885 11.7249C25.2705 11.6929 23.5188 11.7755 22.4449 11.8335C22.2845 11.8425 22.1334 11.9094 22.0208 12.0226L18.4356 15.6069L17.655 14.8263L21.1169 11.3638C21.3704 11.1109 21.3704 10.6995 21.1169 10.4457C20.8634 10.1928 20.4526 10.1928 20.1987 10.4457L16.7369 13.9091L15.9189 13.0906L19.5042 9.50378ZM8.41041 10.5169C7.96692 10.5169 7.55026 10.3519 7.2292 10.0518L4.07386 5.2138L5.5493 3.73868L10.387 6.89217C10.6883 7.21446 10.8533 7.63297 10.8527 8.07584C10.8527 8.53969 10.672 8.97455 10.3432 9.30301L9.6385 10.0083C9.30973 10.3365 8.87426 10.5169 8.41041 10.5169Z" fill="#068C53"/>
<path d="M8.74102 18.4332L5.01143 18.9621C4.86432 18.9951 3.54525 19.3547 2.55927 21.9059C1.28769 25.1935 2.57438 27.1186 2.62989 27.1988C2.75634 27.382 2.97253 27.4884 3.18996 27.4788C3.41294 27.4699 3.61464 27.3474 3.72598 27.1547C4.0495 26.594 4.96794 25.0476 5.32601 24.6294C5.73187 24.1572 6.26696 23.7245 7.48056 24.5788C8.54734 25.3289 8.35891 26.1968 8.29784 26.3951L6.81963 28.8839C6.70028 29.0844 6.69843 29.3339 6.81347 29.5368C6.9285 29.7385 7.14408 29.8647 7.37662 29.8647L8.80795 29.8653H8.80857C8.94704 29.8653 9.08336 29.8212 9.1947 29.7382C13.1843 26.7886 13.1022 26.3812 13.0251 26.0006C12.9897 25.7415 13.0427 24.1964 13.1161 22.7623L16.8602 19.0173L18.1626 20.3197L17.0079 21.475C16.7544 21.7279 16.7544 22.1393 17.0079 22.3925L23.1533 28.5373C23.879 29.2636 24.8452 29.6636 25.8722 29.6636C26.8993 29.6636 27.8655 29.2636 28.5924 28.5367L28.8731 28.2554C29.5994 27.5294 30 26.5641 30 25.5364C30 24.5101 29.5994 23.5444 28.8731 22.8181L22.7274 16.6718C22.4841 16.4285 22.0526 16.4285 21.8093 16.6718L20.6552 17.8265L19.3528 16.5241L22.7622 13.1168C24.1964 13.0422 25.7421 12.9891 25.9861 13.0209C26.3805 13.1011 26.7892 13.1846 29.7375 9.19537C29.8202 9.08342 29.864 8.94834 29.864 8.80924V7.3773C29.864 7.14414 29.7394 6.92856 29.5368 6.81352C29.3338 6.69787 29.085 6.69972 28.8839 6.81908L26.395 8.29667C26.2124 8.3528 25.3325 8.55141 24.5782 7.48C23.7223 6.26548 24.1553 5.73193 24.6287 5.3273C25.0479 4.96769 26.5936 4.04956 27.154 3.72696C27.3468 3.61563 27.4695 3.413 27.4788 3.19033C27.4877 2.96797 27.3819 2.75732 27.1987 2.63026C27.1185 2.57474 25.1922 1.28744 21.9064 2.55932C19.3556 3.54531 18.9947 4.8653 18.9531 5.06268L18.4331 8.74016L15.0008 12.1724L11.959 9.12999C12.0823 8.79691 12.1505 8.44254 12.1505 8.07646C12.1505 7.26565 11.835 6.50234 11.2613 5.92901C11.2293 5.89693 11.1944 5.86887 11.1565 5.84419L5.8173 2.3641C5.55947 2.19663 5.22084 2.23148 5.00403 2.44891L2.7844 4.66823C2.56759 4.88566 2.53212 5.22491 2.69959 5.48212L6.18153 10.8213C6.20559 10.8586 6.23396 10.8941 6.26511 10.9255C6.83783 11.4989 7.59868 11.8147 8.4101 11.8147C8.7768 11.8147 9.13178 11.7472 9.4661 11.6238L12.5079 14.6656L8.74102 18.4332ZM12.0228 22.0209C11.9096 22.1341 11.8421 22.2846 11.8331 22.4443C11.7758 23.5176 11.6934 25.2663 11.7264 25.9873C11.3585 26.4176 9.90435 27.5914 8.59422 28.5678H8.51712L9.44667 27.0029C9.46363 26.9752 9.47812 26.945 9.49015 26.9144C9.76309 26.2387 9.85037 24.659 8.22814 23.517C7.18787 22.7857 5.66927 22.2383 4.34064 23.7844C4.0899 24.0771 3.68712 24.7034 3.3306 25.2836C3.24208 24.5967 3.28773 23.6197 3.76977 22.3734C4.42884 20.6694 5.16964 20.2855 5.30041 20.2296L9.13795 19.6875C9.27704 19.6677 9.40596 19.6039 9.50588 19.5036L13.4267 15.5825L14.2446 16.4004L10.4182 20.2287C10.1646 20.4822 10.1646 20.8924 10.4182 21.1462C10.5446 21.2727 10.7108 21.3365 10.8765 21.3365C11.0427 21.3365 11.2089 21.2727 11.3354 21.1462L15.1615 17.3195L15.9427 18.0995L12.0228 22.0209ZM22.2685 18.0489L27.9552 23.735C28.4373 24.2171 28.7022 24.8567 28.7022 25.5361C28.7022 26.2168 28.4373 26.8558 27.9546 27.3379L27.674 27.6198C27.1925 28.1006 26.5529 28.3655 25.8722 28.3655C25.1916 28.3655 24.5519 28.1006 24.0705 27.6198L18.3844 21.9342L19.5384 20.7795C19.5384 20.7789 19.5391 20.7789 19.5397 20.7789L21.1147 19.2039C21.1153 19.2033 21.1153 19.202 21.116 19.2014L22.2685 18.0489ZM19.0801 19.4019L17.3207 17.6418C17.3201 17.6418 17.3201 17.6412 17.3201 17.6405C17.3194 17.6405 17.3188 17.6405 17.3188 17.6399L10.5801 10.9021L11.2367 10.2437L14.5419 13.5492H14.5425L19.738 18.7443L19.0801 19.4019ZM19.5042 9.50378C19.6035 9.40447 19.668 9.27556 19.688 9.13585L20.2308 5.30108C20.2863 5.1697 20.6706 4.42767 22.374 3.76921C23.6215 3.28686 24.5985 3.24214 25.2841 3.32942C24.7046 3.68594 24.0776 4.09027 23.7855 4.3407C22.2352 5.66717 22.7845 7.18577 23.5175 8.22727C24.6596 9.85012 26.2396 9.76223 26.9156 9.48867C26.9464 9.47664 26.9751 9.46215 27.0035 9.44518L28.5671 8.51687V8.59459C27.5913 9.90348 26.4184 11.357 25.9885 11.7249C25.2705 11.6929 23.5188 11.7755 22.4449 11.8335C22.2845 11.8425 22.1334 11.9094 22.0208 12.0226L18.4356 15.6069L17.655 14.8263L21.1169 11.3638C21.3704 11.1109 21.3704 10.6995 21.1169 10.4457C20.8634 10.1928 20.4526 10.1928 20.1987 10.4457L16.7369 13.9091L15.9189 13.0906L19.5042 9.50378ZM8.41041 10.5169C7.96692 10.5169 7.55026 10.3519 7.2292 10.0518L4.07386 5.2138L5.5493 3.73868L10.387 6.89217C10.6883 7.21446 10.8533 7.63297 10.8527 8.07584C10.8527 8.53969 10.672 8.97455 10.3432 9.30301L9.6385 10.0083C9.30973 10.3365 8.87426 10.5169 8.41041 10.5169Z" stroke="#068C53" stroke-width="0.2" mask="url(#path-2-outside-1_0_249)"/>
</svg>
