<svg width="26" height="26" viewBox="0 0 26 26" fill="none" xmlns="http://www.w3.org/2000/svg">
<path fill-rule="evenodd" clip-rule="evenodd" d="M9.22909 3.8121C10.2293 2.8119 11.5858 2.25 13.0003 2.25C14.4148 2.25 15.7714 2.8119 16.7716 3.8121C17.7718 4.81229 18.3337 6.16885 18.3337 7.58333C18.3337 8.99782 17.7718 10.3544 16.7716 11.3546C15.7714 12.3548 14.4148 12.9167 13.0003 12.9167C11.5858 12.9167 10.2293 12.3548 9.22909 11.3546C8.2289 10.3544 7.66699 8.99782 7.66699 7.58333C7.66699 6.16885 8.2289 4.81229 9.22909 3.8121ZM13.0003 4.25C12.1163 4.25 11.2684 4.60119 10.6433 5.22631C10.0182 5.85143 9.66699 6.69928 9.66699 7.58333C9.66699 8.46739 10.0182 9.31524 10.6433 9.94036C11.2684 10.5655 12.1163 10.9167 13.0003 10.9167C13.8844 10.9167 14.7322 10.5655 15.3573 9.94036C15.9825 9.31524 16.3337 8.46739 16.3337 7.58333C16.3337 6.69928 15.9825 5.85143 15.3573 5.22631C14.7322 4.60119 13.8844 4.25 13.0003 4.25Z" fill="black"/>
<path fill-rule="evenodd" clip-rule="evenodd" d="M10.8333 17.25C9.94928 17.25 9.10143 17.6012 8.47631 18.2263C7.85119 18.8514 7.5 19.6993 7.5 20.5833V22.75C7.5 23.3023 7.05228 23.75 6.5 23.75C5.94772 23.75 5.5 23.3023 5.5 22.75V20.5833C5.5 19.1688 6.0619 17.8123 7.0621 16.8121C8.06229 15.8119 9.41884 15.25 10.8333 15.25H15.1667C16.5812 15.25 17.9377 15.8119 18.9379 16.8121C19.9381 17.8123 20.5 19.1688 20.5 20.5833V22.75C20.5 23.3023 20.0523 23.75 19.5 23.75C18.9477 23.75 18.5 23.3023 18.5 22.75V20.5833C18.5 19.6993 18.1488 18.8514 17.5237 18.2263C16.8986 17.6012 16.0507 17.25 15.1667 17.25H10.8333Z" fill="black"/>
</svg>
