<svg width="32" height="32" viewBox="0 0 32 32" fill="none" xmlns="http://www.w3.org/2000/svg">
<path d="M15.7095 13.6677V13.5677H15.6095H14.2549H14.1549V13.6677V16.7477V16.8477H14.2549H15.6095H15.7095V16.7477V13.6677Z" fill="#068C53" stroke="#068C53" stroke-width="0.2"/>
<path d="M5.52932 27.633H5H4.9V27.733V30V30.1H5H27.2986H27.3986V30V27.733V27.633H27.2986H26.7686V23.2698V22.5868V18.1225V17.4396V12.9763V12.2934V7.8298V7.14688V2.00034V1.90034H26.6686H16.4906L5.62932 1.9L5.52932 1.9V2V27.633ZM16.5906 2.78327H25.8857V7.04688H16.5906V2.78327ZM16.5906 7.9298H25.8857V12.1934H16.5906V7.9298ZM16.5906 13.0763H25.8857V17.3396H16.5906V13.0763ZM16.5906 18.2225H25.8857V22.4868H16.5906V18.2225ZM16.5906 23.3698H25.8857V27.633H16.5906V23.3698ZM6.41224 2.78293H15.7077V7.14688V7.8298V12.2934V12.9763V17.4396V18.1225V22.5868V23.2698V27.633H6.41224V2.78293ZM26.5157 29.2171H5.78327V28.516H15.8077H16.4906H26.5157V29.2171Z" fill="#068C53" stroke="#068C53" stroke-width="0.2"/>
</svg>
